ISO-10303-21;
HEADER;
/* Generated by software containing ST-Developer
 * from STEP Tools, Inc. (www.steptools.com) 
 */

FILE_DESCRIPTION(
/* description */ (''),
/* implementation_level */ '2;1');

FILE_NAME(
/* name */ 'arm.step',
/* time_stamp */ '2026-05-13T02:06:22+03:00',
/* author */ (''),
/* organization */ (''),
/* preprocessor_version */ 'ST-DEVELOPER v20.1',
/* originating_system */ 'Autodesk Translation Framework v15.8.0.0',
/* authorisation */ '');

FILE_SCHEMA (('AUTOMOTIVE_DESIGN { 1 0 10303 214 3 1 1 }'));
ENDSEC;

DATA;
#10=MECHANICAL_DESIGN_GEOMETRIC_PRESENTATION_REPRESENTATION('',(#13),#862);
#11=SHAPE_REPRESENTATION_RELATIONSHIP('SRR','None',#869,#12);
#12=ADVANCED_BREP_SHAPE_REPRESENTATION('',(#14),#861);
#13=STYLED_ITEM('',(#879),#14);
#14=MANIFOLD_SOLID_BREP('Body1',#436);
#15=TOROIDAL_SURFACE('',#466,3.8,0.2);
#16=TOROIDAL_SURFACE('',#470,3.8,0.2);
#17=TOROIDAL_SURFACE('',#480,3.5,0.5);
#18=TOROIDAL_SURFACE('',#481,3.5,0.5);
#19=CYLINDRICAL_SURFACE('',#465,0.2);
#20=CYLINDRICAL_SURFACE('',#469,0.2);
#21=CYLINDRICAL_SURFACE('',#473,4.);
#22=CYLINDRICAL_SURFACE('',#479,0.5);
#23=CYLINDRICAL_SURFACE('',#483,0.5);
#24=CYLINDRICAL_SURFACE('',#484,4.);
#25=CYLINDRICAL_SURFACE('',#485,2.9);
#26=CYLINDRICAL_SURFACE('',#489,2.9);
#27=CYLINDRICAL_SURFACE('',#493,1.5);
#28=CYLINDRICAL_SURFACE('',#494,1.5);
#29=CYLINDRICAL_SURFACE('',#500,2.1);
#30=B_SPLINE_CURVE_WITH_KNOTS('',1,(#663,#664),.UNSPECIFIED.,.F.,.F.,(2,
2),(-11.3333333333333,-0.333333333333334),.UNSPECIFIED.);
#31=B_SPLINE_CURVE_WITH_KNOTS('',3,(#698,#699,#700,#701,#702,#703,#704,
#705,#706,#707,#708,#709),.UNSPECIFIED.,.F.,.F.,(4,2,2,2,2,4),(-0.000216909930338163,
0.,0.00789375497319683,0.0157150835016789,0.0235232931881077,0.0313249529037889),
 .UNSPECIFIED.);
#32=B_SPLINE_CURVE_WITH_KNOTS('',3,(#712,#713,#714,#715,#716,#717,#718,
#719,#720,#721,#722,#723),.UNSPECIFIED.,.F.,.F.,(4,2,2,2,2,4),(-0.0628668157380038,
-0.0626499058079242,-0.0547561508343756,-0.0469348223058947,-0.0391266126194707,
-0.0313249529037912),.UNSPECIFIED.);
#33=B_SPLINE_CURVE_WITH_KNOTS('',3,(#728,#729,#730,#731,#732,#733,#734,
#735,#736,#737,#738,#739),.UNSPECIFIED.,.F.,.F.,(4,2,2,2,2,4),(-0.0628668157389451,
-0.0626499058088662,-0.0547561508353648,-0.046934822306766,-0.0391266126202254,
-0.0313249529044325),.UNSPECIFIED.);
#34=B_SPLINE_CURVE_WITH_KNOTS('',3,(#745,#746,#747,#748,#749,#750,#751,
#752,#753,#754,#755,#756),.UNSPECIFIED.,.F.,.F.,(4,2,2,2,2,4),(-0.000216909930104254,
0.,0.0078937549735022,0.0157150835021054,0.0235232931886507,0.0313249529044521),
 .UNSPECIFIED.);
#35=B_SPLINE_CURVE_WITH_KNOTS('',3,(#777,#778,#779,#780,#781,#782,#783,
#784,#785,#786,#787,#788),.UNSPECIFIED.,.F.,.F.,(4,2,2,2,2,4),(-0.000421184150958166,
0.,0.0198604640938837,0.0394136423829822,0.0589339190983995,0.0784381576301824),
 .UNSPECIFIED.);
#36=B_SPLINE_CURVE_WITH_KNOTS('',3,(#789,#790,#791,#792,#793,#794,#795,
#796,#797,#798,#799,#800),.UNSPECIFIED.,.F.,.F.,(4,2,2,2,2,4),(-0.157297499411972,
-0.15687631526099,-0.137015851167032,-0.117462672877849,-0.0979423961623521,
-0.0784381576304903),.UNSPECIFIED.);
#37=B_SPLINE_CURVE_WITH_KNOTS('',3,(#802,#803,#804,#805,#806,#807,#808,
#809,#810,#811,#812,#813),.UNSPECIFIED.,.F.,.F.,(4,2,2,2,2,4),(-0.157297499412009,
-0.156876315261028,-0.137015851167072,-0.117462672877893,-0.0979423961623883,
-0.0784381576305233),.UNSPECIFIED.);
#38=B_SPLINE_CURVE_WITH_KNOTS('',3,(#817,#818,#819,#820,#821,#822,#823,
#824,#825,#826,#827,#828),.UNSPECIFIED.,.F.,.F.,(4,2,2,2,2,4),(-0.0784381576303182,
-0.0589339190985015,-0.0394136423830495,-0.0198604640939138,0.,0.000421184150980257),
 .UNSPECIFIED.);
#39=(
BOUNDED_SURFACE()
B_SPLINE_SURFACE(1,2,((#642,#643,#644,#645,#646,#647,#648,#649,#650),(#651,
#652,#653,#654,#655,#656,#657,#658,#659)),.UNSPECIFIED.,.F.,.T.,.F.)
B_SPLINE_SURFACE_WITH_KNOTS((2,2),(3,2,2,2,3),(-2.68303897617747E-17,11.3333333333333),
(-3.14159265358979,-1.5707963267949,0.,1.5707963267949,3.14159265358979),
 .UNSPECIFIED.)
GEOMETRIC_REPRESENTATION_ITEM()
RATIONAL_B_SPLINE_SURFACE(((1.,0.707106781186548,1.,0.707106781186548,1.,
0.707106781186548,1.,0.707106781186548,1.),(1.,0.707106781186548,1.,0.707106781186548,
1.,0.707106781186548,1.,0.707106781186548,1.)))
REPRESENTATION_ITEM('')
SURFACE()
);
#40=FACE_BOUND('',#95,.T.);
#41=FACE_BOUND('',#100,.T.);
#42=FACE_BOUND('',#101,.T.);
#43=FACE_BOUND('',#102,.T.);
#44=FACE_BOUND('',#110,.T.);
#45=FACE_BOUND('',#111,.T.);
#46=FACE_BOUND('',#119,.T.);
#47=FACE_BOUND('',#122,.T.);
#48=CIRCLE('',#453,2.1);
#49=CIRCLE('',#461,3.5);
#50=CIRCLE('',#462,3.5);
#51=CIRCLE('',#463,2.9);
#52=CIRCLE('',#464,2.9);
#53=CIRCLE('',#467,3.8);
#54=CIRCLE('',#468,4.);
#55=CIRCLE('',#471,4.);
#56=CIRCLE('',#472,3.8);
#57=CIRCLE('',#474,4.);
#58=CIRCLE('',#477,1.5);
#59=CIRCLE('',#478,1.5);
#60=CIRCLE('',#482,4.);
#61=CIRCLE('',#486,2.9);
#62=CIRCLE('',#488,1.5);
#63=CIRCLE('',#490,2.9);
#64=CIRCLE('',#492,1.5);
#65=CIRCLE('',#497,2.1);
#66=FACE_OUTER_BOUND('',#94,.T.);
#67=FACE_OUTER_BOUND('',#96,.T.);
#68=FACE_OUTER_BOUND('',#97,.T.);
#69=FACE_OUTER_BOUND('',#98,.T.);
#70=FACE_OUTER_BOUND('',#99,.T.);
#71=FACE_OUTER_BOUND('',#103,.T.);
#72=FACE_OUTER_BOUND('',#104,.T.);
#73=FACE_OUTER_BOUND('',#105,.T.);
#74=FACE_OUTER_BOUND('',#106,.T.);
#75=FACE_OUTER_BOUND('',#107,.T.);
#76=FACE_OUTER_BOUND('',#108,.T.);
#77=FACE_OUTER_BOUND('',#109,.T.);
#78=FACE_OUTER_BOUND('',#112,.T.);
#79=FACE_OUTER_BOUND('',#113,.T.);
#80=FACE_OUTER_BOUND('',#114,.T.);
#81=FACE_OUTER_BOUND('',#115,.T.);
#82=FACE_OUTER_BOUND('',#116,.T.);
#83=FACE_OUTER_BOUND('',#117,.T.);
#84=FACE_OUTER_BOUND('',#118,.T.);
#85=FACE_OUTER_BOUND('',#120,.T.);
#86=FACE_OUTER_BOUND('',#121,.T.);
#87=FACE_OUTER_BOUND('',#123,.T.);
#88=FACE_OUTER_BOUND('',#124,.T.);
#89=FACE_OUTER_BOUND('',#125,.T.);
#90=FACE_OUTER_BOUND('',#126,.T.);
#91=FACE_OUTER_BOUND('',#127,.T.);
#92=FACE_OUTER_BOUND('',#128,.T.);
#93=FACE_OUTER_BOUND('',#129,.T.);
#94=EDGE_LOOP('',(#280,#281,#282,#283));
#95=EDGE_LOOP('',(#284));
#96=EDGE_LOOP('',(#285,#286,#287,#288,#289,#290,#291,#292,#293,#294,#295,
#296));
#97=EDGE_LOOP('',(#297,#298,#299,#300));
#98=EDGE_LOOP('',(#301,#302,#303,#304));
#99=EDGE_LOOP('',(#305,#306,#307,#308));
#100=EDGE_LOOP('',(#309));
#101=EDGE_LOOP('',(#310));
#102=EDGE_LOOP('',(#311));
#103=EDGE_LOOP('',(#312,#313,#314,#315));
#104=EDGE_LOOP('',(#316,#317,#318,#319));
#105=EDGE_LOOP('',(#320,#321,#322,#323));
#106=EDGE_LOOP('',(#324,#325,#326,#327));
#107=EDGE_LOOP('',(#328,#329,#330,#331));
#108=EDGE_LOOP('',(#332,#333,#334,#335));
#109=EDGE_LOOP('',(#336,#337,#338,#339));
#110=EDGE_LOOP('',(#340));
#111=EDGE_LOOP('',(#341));
#112=EDGE_LOOP('',(#342,#343,#344,#345));
#113=EDGE_LOOP('',(#346,#347,#348,#349));
#114=EDGE_LOOP('',(#350,#351,#352,#353));
#115=EDGE_LOOP('',(#354,#355,#356,#357));
#116=EDGE_LOOP('',(#358,#359,#360,#361));
#117=EDGE_LOOP('',(#362,#363,#364,#365));
#118=EDGE_LOOP('',(#366));
#119=EDGE_LOOP('',(#367));
#120=EDGE_LOOP('',(#368,#369,#370,#371));
#121=EDGE_LOOP('',(#372));
#122=EDGE_LOOP('',(#373));
#123=EDGE_LOOP('',(#374,#375,#376,#377));
#124=EDGE_LOOP('',(#378,#379,#380,#381));
#125=EDGE_LOOP('',(#382,#383,#384,#385));
#126=EDGE_LOOP('',(#386));
#127=EDGE_LOOP('',(#387,#388,#389));
#128=EDGE_LOOP('',(#390,#391));
#129=EDGE_LOOP('',(#392,#393,#394,#395));
#130=ELLIPSE('',#451,6.,3.);
#131=ELLIPSE('',#452,6.,3.);
#132=ELLIPSE('',#454,6.,3.);
#133=ELLIPSE('',#455,6.,3.);
#134=ELLIPSE('',#456,6.,3.);
#135=ELLIPSE('',#457,6.,3.);
#136=LINE('',#634,#161);
#137=LINE('',#638,#162);
#138=LINE('',#667,#163);
#139=LINE('',#669,#164);
#140=LINE('',#672,#165);
#141=LINE('',#674,#166);
#142=LINE('',#677,#167);
#143=LINE('',#679,#168);
#144=LINE('',#683,#169);
#145=LINE('',#687,#170);
#146=LINE('',#696,#171);
#147=LINE('',#711,#172);
#148=LINE('',#743,#173);
#149=LINE('',#757,#174);
#150=LINE('',#763,#175);
#151=LINE('',#766,#176);
#152=LINE('',#769,#177);
#153=LINE('',#770,#178);
#154=LINE('',#830,#179);
#155=LINE('',#832,#180);
#156=LINE('',#835,#181);
#157=LINE('',#842,#182);
#158=LINE('',#848,#183);
#159=LINE('',#850,#184);
#160=LINE('',#858,#185);
#161=VECTOR('',#505,10.);
#162=VECTOR('',#508,10.);
#163=VECTOR('',#517,10.);
#164=VECTOR('',#518,10.);
#165=VECTOR('',#521,10.);
#166=VECTOR('',#522,10.);
#167=VECTOR('',#527,10.);
#168=VECTOR('',#530,10.);
#169=VECTOR('',#533,10.);
#170=VECTOR('',#536,10.);
#171=VECTOR('',#545,10.);
#172=VECTOR('',#546,10.);
#173=VECTOR('',#555,10.);
#174=VECTOR('',#556,10.);
#175=VECTOR('',#565,10.);
#176=VECTOR('',#568,10.);
#177=VECTOR('',#571,10.);
#178=VECTOR('',#572,10.);
#179=VECTOR('',#589,10.);
#180=VECTOR('',#592,10.);
#181=VECTOR('',#595,2.9);
#182=VECTOR('',#604,2.9);
#183=VECTOR('',#613,1.5);
#184=VECTOR('',#616,1.5);
#185=VECTOR('',#629,2.1);
#186=VERTEX_POINT('',#632);
#187=VERTEX_POINT('',#633);
#188=VERTEX_POINT('',#635);
#189=VERTEX_POINT('',#637);
#190=VERTEX_POINT('',#640);
#191=VERTEX_POINT('',#660);
#192=VERTEX_POINT('',#662);
#193=VERTEX_POINT('',#665);
#194=VERTEX_POINT('',#668);
#195=VERTEX_POINT('',#670);
#196=VERTEX_POINT('',#673);
#197=VERTEX_POINT('',#681);
#198=VERTEX_POINT('',#682);
#199=VERTEX_POINT('',#684);
#200=VERTEX_POINT('',#686);
#201=VERTEX_POINT('',#689);
#202=VERTEX_POINT('',#691);
#203=VERTEX_POINT('',#694);
#204=VERTEX_POINT('',#695);
#205=VERTEX_POINT('',#697);
#206=VERTEX_POINT('',#710);
#207=VERTEX_POINT('',#725);
#208=VERTEX_POINT('',#727);
#209=VERTEX_POINT('',#742);
#210=VERTEX_POINT('',#744);
#211=VERTEX_POINT('',#762);
#212=VERTEX_POINT('',#764);
#213=VERTEX_POINT('',#768);
#214=VERTEX_POINT('',#772);
#215=VERTEX_POINT('',#774);
#216=VERTEX_POINT('',#815);
#217=VERTEX_POINT('',#834);
#218=VERTEX_POINT('',#838);
#219=VERTEX_POINT('',#841);
#220=VERTEX_POINT('',#845);
#221=VERTEX_POINT('',#853);
#222=EDGE_CURVE('',#186,#187,#136,.T.);
#223=EDGE_CURVE('',#188,#187,#130,.T.);
#224=EDGE_CURVE('',#188,#189,#137,.T.);
#225=EDGE_CURVE('',#186,#189,#131,.T.);
#226=EDGE_CURVE('',#190,#190,#48,.T.);
#227=EDGE_CURVE('',#191,#191,#132,.T.);
#228=EDGE_CURVE('',#191,#192,#30,.T.);
#229=EDGE_CURVE('',#192,#193,#133,.T.);
#230=EDGE_CURVE('',#193,#188,#138,.T.);
#231=EDGE_CURVE('',#187,#194,#139,.T.);
#232=EDGE_CURVE('',#194,#195,#134,.T.);
#233=EDGE_CURVE('',#195,#186,#140,.T.);
#234=EDGE_CURVE('',#189,#196,#141,.T.);
#235=EDGE_CURVE('',#196,#192,#135,.T.);
#236=EDGE_CURVE('',#196,#193,#142,.T.);
#237=EDGE_CURVE('',#194,#195,#143,.T.);
#238=EDGE_CURVE('',#197,#198,#144,.T.);
#239=EDGE_CURVE('',#199,#197,#49,.T.);
#240=EDGE_CURVE('',#200,#199,#145,.T.);
#241=EDGE_CURVE('',#198,#200,#50,.T.);
#242=EDGE_CURVE('',#201,#201,#51,.T.);
#243=EDGE_CURVE('',#202,#202,#52,.T.);
#244=EDGE_CURVE('',#203,#204,#146,.T.);
#245=EDGE_CURVE('',#204,#205,#31,.T.);
#246=EDGE_CURVE('',#205,#206,#147,.T.);
#247=EDGE_CURVE('',#203,#206,#32,.T.);
#248=EDGE_CURVE('',#204,#207,#53,.T.);
#249=EDGE_CURVE('',#207,#208,#33,.T.);
#250=EDGE_CURVE('',#208,#205,#54,.T.);
#251=EDGE_CURVE('',#207,#209,#148,.T.);
#252=EDGE_CURVE('',#209,#210,#34,.T.);
#253=EDGE_CURVE('',#210,#208,#149,.T.);
#254=EDGE_CURVE('',#206,#210,#55,.T.);
#255=EDGE_CURVE('',#209,#203,#56,.T.);
#256=EDGE_CURVE('',#211,#206,#150,.T.);
#257=EDGE_CURVE('',#212,#211,#57,.T.);
#258=EDGE_CURVE('',#212,#210,#151,.T.);
#259=EDGE_CURVE('',#213,#205,#152,.T.);
#260=EDGE_CURVE('',#211,#213,#153,.T.);
#261=EDGE_CURVE('',#214,#214,#58,.T.);
#262=EDGE_CURVE('',#215,#215,#59,.T.);
#263=EDGE_CURVE('',#198,#211,#35,.T.);
#264=EDGE_CURVE('',#197,#213,#36,.T.);
#265=EDGE_CURVE('',#200,#212,#37,.T.);
#266=EDGE_CURVE('',#213,#216,#60,.T.);
#267=EDGE_CURVE('',#216,#199,#38,.T.);
#268=EDGE_CURVE('',#216,#212,#154,.T.);
#269=EDGE_CURVE('',#216,#208,#155,.T.);
#270=EDGE_CURVE('',#201,#217,#156,.T.);
#271=EDGE_CURVE('',#217,#217,#61,.T.);
#272=EDGE_CURVE('',#218,#218,#62,.T.);
#273=EDGE_CURVE('',#202,#219,#157,.T.);
#274=EDGE_CURVE('',#219,#219,#63,.T.);
#275=EDGE_CURVE('',#220,#220,#64,.T.);
#276=EDGE_CURVE('',#214,#220,#158,.T.);
#277=EDGE_CURVE('',#215,#218,#159,.T.);
#278=EDGE_CURVE('',#221,#221,#65,.T.);
#279=EDGE_CURVE('',#221,#190,#160,.T.);
#280=ORIENTED_EDGE('',*,*,#222,.T.);
#281=ORIENTED_EDGE('',*,*,#223,.F.);
#282=ORIENTED_EDGE('',*,*,#224,.T.);
#283=ORIENTED_EDGE('',*,*,#225,.F.);
#284=ORIENTED_EDGE('',*,*,#226,.F.);
#285=ORIENTED_EDGE('',*,*,#227,.F.);
#286=ORIENTED_EDGE('',*,*,#228,.T.);
#287=ORIENTED_EDGE('',*,*,#229,.T.);
#288=ORIENTED_EDGE('',*,*,#230,.T.);
#289=ORIENTED_EDGE('',*,*,#223,.T.);
#290=ORIENTED_EDGE('',*,*,#231,.T.);
#291=ORIENTED_EDGE('',*,*,#232,.T.);
#292=ORIENTED_EDGE('',*,*,#233,.T.);
#293=ORIENTED_EDGE('',*,*,#225,.T.);
#294=ORIENTED_EDGE('',*,*,#234,.T.);
#295=ORIENTED_EDGE('',*,*,#235,.T.);
#296=ORIENTED_EDGE('',*,*,#228,.F.);
#297=ORIENTED_EDGE('',*,*,#236,.F.);
#298=ORIENTED_EDGE('',*,*,#234,.F.);
#299=ORIENTED_EDGE('',*,*,#224,.F.);
#300=ORIENTED_EDGE('',*,*,#230,.F.);
#301=ORIENTED_EDGE('',*,*,#237,.F.);
#302=ORIENTED_EDGE('',*,*,#231,.F.);
#303=ORIENTED_EDGE('',*,*,#222,.F.);
#304=ORIENTED_EDGE('',*,*,#233,.F.);
#305=ORIENTED_EDGE('',*,*,#238,.F.);
#306=ORIENTED_EDGE('',*,*,#239,.F.);
#307=ORIENTED_EDGE('',*,*,#240,.F.);
#308=ORIENTED_EDGE('',*,*,#241,.F.);
#309=ORIENTED_EDGE('',*,*,#242,.T.);
#310=ORIENTED_EDGE('',*,*,#243,.T.);
#311=ORIENTED_EDGE('',*,*,#227,.T.);
#312=ORIENTED_EDGE('',*,*,#244,.T.);
#313=ORIENTED_EDGE('',*,*,#245,.T.);
#314=ORIENTED_EDGE('',*,*,#246,.T.);
#315=ORIENTED_EDGE('',*,*,#247,.F.);
#316=ORIENTED_EDGE('',*,*,#248,.T.);
#317=ORIENTED_EDGE('',*,*,#249,.T.);
#318=ORIENTED_EDGE('',*,*,#250,.T.);
#319=ORIENTED_EDGE('',*,*,#245,.F.);
#320=ORIENTED_EDGE('',*,*,#251,.T.);
#321=ORIENTED_EDGE('',*,*,#252,.T.);
#322=ORIENTED_EDGE('',*,*,#253,.T.);
#323=ORIENTED_EDGE('',*,*,#249,.F.);
#324=ORIENTED_EDGE('',*,*,#254,.T.);
#325=ORIENTED_EDGE('',*,*,#252,.F.);
#326=ORIENTED_EDGE('',*,*,#255,.T.);
#327=ORIENTED_EDGE('',*,*,#247,.T.);
#328=ORIENTED_EDGE('',*,*,#254,.F.);
#329=ORIENTED_EDGE('',*,*,#256,.F.);
#330=ORIENTED_EDGE('',*,*,#257,.F.);
#331=ORIENTED_EDGE('',*,*,#258,.T.);
#332=ORIENTED_EDGE('',*,*,#246,.F.);
#333=ORIENTED_EDGE('',*,*,#259,.F.);
#334=ORIENTED_EDGE('',*,*,#260,.F.);
#335=ORIENTED_EDGE('',*,*,#256,.T.);
#336=ORIENTED_EDGE('',*,*,#244,.F.);
#337=ORIENTED_EDGE('',*,*,#255,.F.);
#338=ORIENTED_EDGE('',*,*,#251,.F.);
#339=ORIENTED_EDGE('',*,*,#248,.F.);
#340=ORIENTED_EDGE('',*,*,#261,.T.);
#341=ORIENTED_EDGE('',*,*,#262,.T.);
#342=ORIENTED_EDGE('',*,*,#238,.T.);
#343=ORIENTED_EDGE('',*,*,#263,.T.);
#344=ORIENTED_EDGE('',*,*,#260,.T.);
#345=ORIENTED_EDGE('',*,*,#264,.F.);
#346=ORIENTED_EDGE('',*,*,#241,.T.);
#347=ORIENTED_EDGE('',*,*,#265,.T.);
#348=ORIENTED_EDGE('',*,*,#257,.T.);
#349=ORIENTED_EDGE('',*,*,#263,.F.);
#350=ORIENTED_EDGE('',*,*,#266,.T.);
#351=ORIENTED_EDGE('',*,*,#267,.T.);
#352=ORIENTED_EDGE('',*,*,#239,.T.);
#353=ORIENTED_EDGE('',*,*,#264,.T.);
#354=ORIENTED_EDGE('',*,*,#240,.T.);
#355=ORIENTED_EDGE('',*,*,#267,.F.);
#356=ORIENTED_EDGE('',*,*,#268,.T.);
#357=ORIENTED_EDGE('',*,*,#265,.F.);
#358=ORIENTED_EDGE('',*,*,#250,.F.);
#359=ORIENTED_EDGE('',*,*,#269,.F.);
#360=ORIENTED_EDGE('',*,*,#266,.F.);
#361=ORIENTED_EDGE('',*,*,#259,.T.);
#362=ORIENTED_EDGE('',*,*,#242,.F.);
#363=ORIENTED_EDGE('',*,*,#270,.T.);
#364=ORIENTED_EDGE('',*,*,#271,.T.);
#365=ORIENTED_EDGE('',*,*,#270,.F.);
#366=ORIENTED_EDGE('',*,*,#271,.F.);
#367=ORIENTED_EDGE('',*,*,#272,.F.);
#368=ORIENTED_EDGE('',*,*,#243,.F.);
#369=ORIENTED_EDGE('',*,*,#273,.T.);
#370=ORIENTED_EDGE('',*,*,#274,.T.);
#371=ORIENTED_EDGE('',*,*,#273,.F.);
#372=ORIENTED_EDGE('',*,*,#274,.F.);
#373=ORIENTED_EDGE('',*,*,#275,.F.);
#374=ORIENTED_EDGE('',*,*,#261,.F.);
#375=ORIENTED_EDGE('',*,*,#276,.T.);
#376=ORIENTED_EDGE('',*,*,#275,.T.);
#377=ORIENTED_EDGE('',*,*,#276,.F.);
#378=ORIENTED_EDGE('',*,*,#262,.F.);
#379=ORIENTED_EDGE('',*,*,#277,.T.);
#380=ORIENTED_EDGE('',*,*,#272,.T.);
#381=ORIENTED_EDGE('',*,*,#277,.F.);
#382=ORIENTED_EDGE('',*,*,#253,.F.);
#383=ORIENTED_EDGE('',*,*,#258,.F.);
#384=ORIENTED_EDGE('',*,*,#268,.F.);
#385=ORIENTED_EDGE('',*,*,#269,.T.);
#386=ORIENTED_EDGE('',*,*,#278,.T.);
#387=ORIENTED_EDGE('',*,*,#235,.F.);
#388=ORIENTED_EDGE('',*,*,#236,.T.);
#389=ORIENTED_EDGE('',*,*,#229,.F.);
#390=ORIENTED_EDGE('',*,*,#232,.F.);
#391=ORIENTED_EDGE('',*,*,#237,.T.);
#392=ORIENTED_EDGE('',*,*,#278,.F.);
#393=ORIENTED_EDGE('',*,*,#279,.T.);
#394=ORIENTED_EDGE('',*,*,#226,.T.);
#395=ORIENTED_EDGE('',*,*,#279,.F.);
#396=PLANE('',#450);
#397=PLANE('',#458);
#398=PLANE('',#459);
#399=PLANE('',#460);
#400=PLANE('',#475);
#401=PLANE('',#476);
#402=PLANE('',#487);
#403=PLANE('',#491);
#404=PLANE('',#495);
#405=PLANE('',#496);
#406=PLANE('',#498);
#407=PLANE('',#499);
#408=ADVANCED_FACE('',(#66,#40),#396,.F.);
#409=ADVANCED_FACE('',(#67),#39,.F.);
#410=ADVANCED_FACE('',(#68),#397,.F.);
#411=ADVANCED_FACE('',(#69),#398,.F.);
#412=ADVANCED_FACE('',(#70,#41,#42,#43),#399,.F.);
#413=ADVANCED_FACE('',(#71),#19,.T.);
#414=ADVANCED_FACE('',(#72),#15,.T.);
#415=ADVANCED_FACE('',(#73),#20,.T.);
#416=ADVANCED_FACE('',(#74),#16,.T.);
#417=ADVANCED_FACE('',(#75),#21,.T.);
#418=ADVANCED_FACE('',(#76),#400,.T.);
#419=ADVANCED_FACE('',(#77,#44,#45),#401,.T.);
#420=ADVANCED_FACE('',(#78),#22,.T.);
#421=ADVANCED_FACE('',(#79),#17,.T.);
#422=ADVANCED_FACE('',(#80),#18,.T.);
#423=ADVANCED_FACE('',(#81),#23,.T.);
#424=ADVANCED_FACE('',(#82),#24,.T.);
#425=ADVANCED_FACE('',(#83),#25,.F.);
#426=ADVANCED_FACE('',(#84,#46),#402,.T.);
#427=ADVANCED_FACE('',(#85),#26,.F.);
#428=ADVANCED_FACE('',(#86,#47),#403,.T.);
#429=ADVANCED_FACE('',(#87),#27,.F.);
#430=ADVANCED_FACE('',(#88),#28,.F.);
#431=ADVANCED_FACE('',(#89),#404,.T.);
#432=ADVANCED_FACE('',(#90),#405,.F.);
#433=ADVANCED_FACE('',(#91),#406,.F.);
#434=ADVANCED_FACE('',(#92),#407,.F.);
#435=ADVANCED_FACE('',(#93),#29,.F.);
#436=CLOSED_SHELL('',(#408,#409,#410,#411,#412,#413,#414,#415,#416,#417,
#418,#419,#420,#421,#422,#423,#424,#425,#426,#427,#428,#429,#430,#431,#432,
#433,#434,#435));
#437=DERIVED_UNIT_ELEMENT(#439,1.);
#438=DERIVED_UNIT_ELEMENT(#864,-3.);
#439=(
MASS_UNIT()
NAMED_UNIT(*)
SI_UNIT(.KILO.,.GRAM.)
);
#440=DERIVED_UNIT((#437,#438));
#441=MEASURE_REPRESENTATION_ITEM('density measure',
POSITIVE_RATIO_MEASURE(1100.),#440);
#442=PROPERTY_DEFINITION_REPRESENTATION(#447,#444);
#443=PROPERTY_DEFINITION_REPRESENTATION(#448,#445);
#444=REPRESENTATION('material name',(#446),#861);
#445=REPRESENTATION('density',(#441),#861);
#446=DESCRIPTIVE_REPRESENTATION_ITEM(
'PA 12 - Nylon - PA 603-CF (with EOS P 3D Printers)',
'PA 12 - Nylon - PA 603-CF (with EOS P 3D Printers)');
#447=PROPERTY_DEFINITION('material property','material name',#871);
#448=PROPERTY_DEFINITION('material property','density of part',#871);
#449=AXIS2_PLACEMENT_3D('',#630,#501,#502);
#450=AXIS2_PLACEMENT_3D('',#631,#503,#504);
#451=AXIS2_PLACEMENT_3D('',#636,#506,#507);
#452=AXIS2_PLACEMENT_3D('',#639,#509,#510);
#453=AXIS2_PLACEMENT_3D('',#641,#511,#512);
#454=AXIS2_PLACEMENT_3D('',#661,#513,#514);
#455=AXIS2_PLACEMENT_3D('',#666,#515,#516);
#456=AXIS2_PLACEMENT_3D('',#671,#519,#520);
#457=AXIS2_PLACEMENT_3D('',#675,#523,#524);
#458=AXIS2_PLACEMENT_3D('',#676,#525,#526);
#459=AXIS2_PLACEMENT_3D('',#678,#528,#529);
#460=AXIS2_PLACEMENT_3D('',#680,#531,#532);
#461=AXIS2_PLACEMENT_3D('',#685,#534,#535);
#462=AXIS2_PLACEMENT_3D('',#688,#537,#538);
#463=AXIS2_PLACEMENT_3D('',#690,#539,#540);
#464=AXIS2_PLACEMENT_3D('',#692,#541,#542);
#465=AXIS2_PLACEMENT_3D('',#693,#543,#544);
#466=AXIS2_PLACEMENT_3D('',#724,#547,#548);
#467=AXIS2_PLACEMENT_3D('',#726,#549,#550);
#468=AXIS2_PLACEMENT_3D('',#740,#551,#552);
#469=AXIS2_PLACEMENT_3D('',#741,#553,#554);
#470=AXIS2_PLACEMENT_3D('',#758,#557,#558);
#471=AXIS2_PLACEMENT_3D('',#759,#559,#560);
#472=AXIS2_PLACEMENT_3D('',#760,#561,#562);
#473=AXIS2_PLACEMENT_3D('',#761,#563,#564);
#474=AXIS2_PLACEMENT_3D('',#765,#566,#567);
#475=AXIS2_PLACEMENT_3D('',#767,#569,#570);
#476=AXIS2_PLACEMENT_3D('',#771,#573,#574);
#477=AXIS2_PLACEMENT_3D('',#773,#575,#576);
#478=AXIS2_PLACEMENT_3D('',#775,#577,#578);
#479=AXIS2_PLACEMENT_3D('',#776,#579,#580);
#480=AXIS2_PLACEMENT_3D('',#801,#581,#582);
#481=AXIS2_PLACEMENT_3D('',#814,#583,#584);
#482=AXIS2_PLACEMENT_3D('',#816,#585,#586);
#483=AXIS2_PLACEMENT_3D('',#829,#587,#588);
#484=AXIS2_PLACEMENT_3D('',#831,#590,#591);
#485=AXIS2_PLACEMENT_3D('',#833,#593,#594);
#486=AXIS2_PLACEMENT_3D('',#836,#596,#597);
#487=AXIS2_PLACEMENT_3D('',#837,#598,#599);
#488=AXIS2_PLACEMENT_3D('',#839,#600,#601);
#489=AXIS2_PLACEMENT_3D('',#840,#602,#603);
#490=AXIS2_PLACEMENT_3D('',#843,#605,#606);
#491=AXIS2_PLACEMENT_3D('',#844,#607,#608);
#492=AXIS2_PLACEMENT_3D('',#846,#609,#610);
#493=AXIS2_PLACEMENT_3D('',#847,#611,#612);
#494=AXIS2_PLACEMENT_3D('',#849,#614,#615);
#495=AXIS2_PLACEMENT_3D('',#851,#617,#618);
#496=AXIS2_PLACEMENT_3D('',#852,#619,#620);
#497=AXIS2_PLACEMENT_3D('',#854,#621,#622);
#498=AXIS2_PLACEMENT_3D('',#855,#623,#624);
#499=AXIS2_PLACEMENT_3D('',#856,#625,#626);
#500=AXIS2_PLACEMENT_3D('',#857,#627,#628);
#501=DIRECTION('axis',(0.,0.,1.));
#502=DIRECTION('refdir',(1.,0.,0.));
#503=DIRECTION('center_axis',(1.,5.55111512312578E-17,-3.08148791101949E-33));
#504=DIRECTION('ref_axis',(-5.55111512312578E-17,1.,1.23259516440783E-32));
#505=DIRECTION('',(3.08148791101949E-33,-1.23259516440783E-32,1.));
#506=DIRECTION('center_axis',(1.,5.55111512312578E-17,-3.08148791101949E-33));
#507=DIRECTION('ref_axis',(5.55111512312578E-17,-1.,6.12323399573676E-17));
#508=DIRECTION('',(-3.08148791101949E-33,1.23259516440783E-32,-1.));
#509=DIRECTION('center_axis',(1.,5.55111512312578E-17,-3.08148791101949E-33));
#510=DIRECTION('ref_axis',(5.55111512312578E-17,-1.,6.12323399573676E-17));
#511=DIRECTION('center_axis',(-1.,-5.55111512312578E-17,3.08148791101949E-33));
#512=DIRECTION('ref_axis',(-5.55111512312579E-17,1.,1.23259516440783E-32));
#513=DIRECTION('center_axis',(1.,5.55111512312578E-17,-3.08148791101949E-33));
#514=DIRECTION('ref_axis',(5.55111512312578E-17,-1.,6.12323399573676E-17));
#515=DIRECTION('center_axis',(1.,5.55111512312578E-17,-3.08148791101949E-33));
#516=DIRECTION('ref_axis',(5.55111512312578E-17,-1.,6.12323399573676E-17));
#517=DIRECTION('',(-1.,-5.55111512312578E-17,3.08148791101949E-33));
#518=DIRECTION('',(1.,5.55111512312578E-17,-3.08148791101949E-33));
#519=DIRECTION('center_axis',(1.,5.55111512312578E-17,-3.08148791101949E-33));
#520=DIRECTION('ref_axis',(5.55111512312578E-17,-1.,6.12323399573676E-17));
#521=DIRECTION('',(-1.,-5.55111512312578E-17,3.08148791101949E-33));
#522=DIRECTION('',(1.,5.55111512312578E-17,-3.08148791101949E-33));
#523=DIRECTION('center_axis',(1.,5.55111512312578E-17,-3.08148791101949E-33));
#524=DIRECTION('ref_axis',(5.55111512312578E-17,-1.,6.12323399573676E-17));
#525=DIRECTION('center_axis',(5.55111512312578E-17,-1.,-1.23259516440783E-32));
#526=DIRECTION('ref_axis',(-3.08148791101949E-33,1.23259516440783E-32,-1.));
#527=DIRECTION('',(3.08148791101949E-33,-1.23259516440783E-32,1.));
#528=DIRECTION('center_axis',(-5.55111512312578E-17,1.,1.23259516440783E-32));
#529=DIRECTION('ref_axis',(3.08148791101949E-33,-1.23259516440783E-32,1.));
#530=DIRECTION('',(-3.08148791101949E-33,1.23259516440783E-32,-1.));
#531=DIRECTION('center_axis',(1.,5.55111512312578E-17,-3.08148791101949E-33));
#532=DIRECTION('ref_axis',(-5.55111512312578E-17,1.,1.23259516440783E-32));
#533=DIRECTION('',(-5.55111512312578E-17,1.,-1.29896577854247E-16));
#534=DIRECTION('center_axis',(1.,5.55111512312578E-17,-3.08148791101949E-33));
#535=DIRECTION('ref_axis',(5.55111512312578E-17,-1.,4.68375338513738E-16));
#536=DIRECTION('',(5.55111512312578E-17,-1.,1.29896577854247E-16));
#537=DIRECTION('center_axis',(1.,5.55111512312578E-17,-3.08148791101949E-33));
#538=DIRECTION('ref_axis',(-5.55111512312578E-17,1.,-6.59194920871187E-16));
#539=DIRECTION('center_axis',(1.,5.55111512312578E-17,-3.08148791101949E-33));
#540=DIRECTION('ref_axis',(5.55111512312578E-17,-1.,-1.23259516440783E-32));
#541=DIRECTION('center_axis',(1.,5.55111512312578E-17,-3.08148791101949E-33));
#542=DIRECTION('ref_axis',(5.55111512312578E-17,-1.,-1.23259516440783E-32));
#543=DIRECTION('center_axis',(-5.55111512312578E-17,1.,-1.29896577854247E-16));
#544=DIRECTION('ref_axis',(0.70710678118654,3.9252311467094E-17,-0.707106781186555));
#545=DIRECTION('',(5.55111512312578E-17,-1.,1.29896577854247E-16));
#546=DIRECTION('',(-5.55111512312578E-17,1.,-1.29896577854247E-16));
#547=DIRECTION('center_axis',(1.,5.55111512312578E-17,-3.08148791101949E-33));
#548=DIRECTION('ref_axis',(0.,-1.,1.77635683940025E-15));
#549=DIRECTION('center_axis',(-1.,-5.55111512312578E-17,3.08148791101949E-33));
#550=DIRECTION('ref_axis',(5.55111512312578E-17,-1.,4.68375338513738E-16));
#551=DIRECTION('center_axis',(1.,5.55111512312578E-17,-3.08148791101949E-33));
#552=DIRECTION('ref_axis',(5.55111512312578E-17,-1.,4.68375338513738E-16));
#553=DIRECTION('center_axis',(5.55111512312578E-17,-1.,1.29896577854247E-16));
#554=DIRECTION('ref_axis',(0.70710678118654,3.92523114670939E-17,0.707106781186555));
#555=DIRECTION('',(-5.55111512312578E-17,1.,-1.29896577854247E-16));
#556=DIRECTION('',(5.55111512312578E-17,-1.,1.29896577854247E-16));
#557=DIRECTION('center_axis',(1.,5.55111512312578E-17,-3.08148791101949E-33));
#558=DIRECTION('ref_axis',(0.,1.,-3.5527136788005E-15));
#559=DIRECTION('center_axis',(1.,5.55111512312578E-17,-3.08148791101949E-33));
#560=DIRECTION('ref_axis',(-5.55111512312578E-17,1.,-6.59194920871187E-16));
#561=DIRECTION('center_axis',(-1.,-5.55111512312578E-17,3.08148791101949E-33));
#562=DIRECTION('ref_axis',(-5.55111512312578E-17,1.,-6.59194920871187E-16));
#563=DIRECTION('center_axis',(1.,5.55111512312578E-17,-3.08148791101949E-33));
#564=DIRECTION('ref_axis',(-5.55111512312578E-17,1.,-4.33680868994202E-16));
#565=DIRECTION('',(1.,5.55111512312578E-17,-3.08148791101949E-33));
#566=DIRECTION('center_axis',(-1.,-5.55111512312578E-17,3.08148791101949E-33));
#567=DIRECTION('ref_axis',(-5.55111512312578E-17,1.,-6.59194920871187E-16));
#568=DIRECTION('',(1.,5.55111512312578E-17,-3.08148791101949E-33));
#569=DIRECTION('center_axis',(4.12922066667048E-33,-1.29896577854247E-16,
-1.));
#570=DIRECTION('ref_axis',(-5.55111512312578E-17,1.,-1.29896577854247E-16));
#571=DIRECTION('',(1.,5.55111512312578E-17,-3.08148791101949E-33));
#572=DIRECTION('',(5.55111512312578E-17,-1.,1.29896577854247E-16));
#573=DIRECTION('center_axis',(1.,5.55111512312578E-17,-3.08148791101949E-33));
#574=DIRECTION('ref_axis',(-5.55111512312578E-17,1.,1.23259516440783E-32));
#575=DIRECTION('center_axis',(-1.,-5.55111512312578E-17,3.08148791101949E-33));
#576=DIRECTION('ref_axis',(-5.55111512312578E-17,1.,1.23259516440783E-32));
#577=DIRECTION('center_axis',(-1.,-5.55111512312578E-17,3.08148791101949E-33));
#578=DIRECTION('ref_axis',(-5.55111512312578E-17,1.,1.23259516440783E-32));
#579=DIRECTION('center_axis',(5.55111512312578E-17,-1.,1.29896577854247E-16));
#580=DIRECTION('ref_axis',(-0.707106781186553,-3.92523114670947E-17,-0.707106781186542));
#581=DIRECTION('center_axis',(1.,5.55111512312578E-17,-3.08148791101949E-33));
#582=DIRECTION('ref_axis',(0.,1.,2.66453525910038E-15));
#583=DIRECTION('center_axis',(1.,5.55111512312578E-17,-3.08148791101949E-33));
#584=DIRECTION('ref_axis',(0.,-1.,1.77635683940025E-15));
#585=DIRECTION('center_axis',(-1.,-5.55111512312578E-17,3.08148791101949E-33));
#586=DIRECTION('ref_axis',(5.55111512312578E-17,-1.,4.68375338513738E-16));
#587=DIRECTION('center_axis',(-5.55111512312578E-17,1.,-1.29896577854247E-16));
#588=DIRECTION('ref_axis',(-0.707106781186553,-3.92523114670947E-17,0.707106781186542));
#589=DIRECTION('',(-5.55111512312578E-17,1.,-1.29896577854247E-16));
#590=DIRECTION('center_axis',(1.,5.55111512312578E-17,-3.08148791101949E-33));
#591=DIRECTION('ref_axis',(5.55111512312578E-17,-1.,4.68375338513738E-16));
#592=DIRECTION('',(1.,5.55111512312578E-17,-3.08148791101949E-33));
#593=DIRECTION('center_axis',(1.,5.55111512312578E-17,-3.08148791101949E-33));
#594=DIRECTION('ref_axis',(5.55111512312578E-17,-1.,-1.23259516440783E-32));
#595=DIRECTION('',(1.,5.55111512312578E-17,-3.08148791101949E-33));
#596=DIRECTION('center_axis',(1.,5.55111512312578E-17,-3.08148791101949E-33));
#597=DIRECTION('ref_axis',(5.55111512312578E-17,-1.,-1.23259516440783E-32));
#598=DIRECTION('center_axis',(-1.,-5.55111512312578E-17,3.08148791101949E-33));
#599=DIRECTION('ref_axis',(5.55111512312578E-17,-1.,-1.23259516440783E-32));
#600=DIRECTION('center_axis',(-1.,-5.55111512312578E-17,3.08148791101949E-33));
#601=DIRECTION('ref_axis',(-5.55111512312578E-17,1.,1.23259516440783E-32));
#602=DIRECTION('center_axis',(1.,5.55111512312578E-17,-3.08148791101949E-33));
#603=DIRECTION('ref_axis',(5.55111512312578E-17,-1.,-1.23259516440783E-32));
#604=DIRECTION('',(1.,5.55111512312578E-17,-3.08148791101949E-33));
#605=DIRECTION('center_axis',(1.,5.55111512312578E-17,-3.08148791101949E-33));
#606=DIRECTION('ref_axis',(5.55111512312578E-17,-1.,-1.23259516440783E-32));
#607=DIRECTION('center_axis',(-1.,-5.55111512312578E-17,3.08148791101949E-33));
#608=DIRECTION('ref_axis',(5.55111512312578E-17,-1.,-1.23259516440783E-32));
#609=DIRECTION('center_axis',(-1.,-5.55111512312578E-17,3.08148791101949E-33));
#610=DIRECTION('ref_axis',(-5.55111512312578E-17,1.,1.23259516440783E-32));
#611=DIRECTION('center_axis',(1.,5.55111512312578E-17,-3.08148791101949E-33));
#612=DIRECTION('ref_axis',(-5.55111512312578E-17,1.,1.23259516440783E-32));
#613=DIRECTION('',(-1.,-5.55111512312578E-17,3.08148791101949E-33));
#614=DIRECTION('center_axis',(1.,5.55111512312578E-17,-3.08148791101949E-33));
#615=DIRECTION('ref_axis',(-5.55111512312578E-17,1.,1.23259516440783E-32));
#616=DIRECTION('',(-1.,-5.55111512312578E-17,3.08148791101949E-33));
#617=DIRECTION('center_axis',(-4.12922066667048E-33,1.29896577854247E-16,
1.));
#618=DIRECTION('ref_axis',(5.55111512312578E-17,-1.,1.29896577854247E-16));
#619=DIRECTION('center_axis',(1.,5.55111512312578E-17,-3.08148791101949E-33));
#620=DIRECTION('ref_axis',(-5.55111512312578E-17,1.,1.23259516440783E-32));
#621=DIRECTION('center_axis',(-1.,-5.55111512312578E-17,3.08148791101949E-33));
#622=DIRECTION('ref_axis',(-5.55111512312579E-17,1.,1.23259516440783E-32));
#623=DIRECTION('center_axis',(1.,5.55111512312578E-17,-3.08148791101949E-33));
#624=DIRECTION('ref_axis',(-5.55111512312578E-17,1.,1.23259516440783E-32));
#625=DIRECTION('center_axis',(1.,5.55111512312578E-17,-3.08148791101949E-33));
#626=DIRECTION('ref_axis',(-5.55111512312578E-17,1.,1.23259516440783E-32));
#627=DIRECTION('center_axis',(1.,5.55111512312578E-17,-3.08148791101949E-33));
#628=DIRECTION('ref_axis',(-5.55111512312579E-17,1.,1.23259516440783E-32));
#629=DIRECTION('',(-1.,-5.55111512312579E-17,3.08148791101949E-33));
#630=CARTESIAN_POINT('',(0.,0.,0.));
#631=CARTESIAN_POINT('Origin',(28.,9.00000000000001,30.));
#632=CARTESIAN_POINT('',(28.,6.10000000000001,27.3736908026662));
#633=CARTESIAN_POINT('',(28.,6.10000000000001,32.6263091973338));
#634=CARTESIAN_POINT('',(28.,6.10000000000001,31.2990381056767));
#635=CARTESIAN_POINT('',(28.,11.9,32.6263091973338));
#636=CARTESIAN_POINT('Origin',(28.,9.00000000000001,30.));
#637=CARTESIAN_POINT('',(28.,11.9,27.3736908026662));
#638=CARTESIAN_POINT('',(28.,11.9,28.7009618943233));
#639=CARTESIAN_POINT('Origin',(28.,9.00000000000001,30.));
#640=CARTESIAN_POINT('',(28.,6.90000000000001,30.));
#641=CARTESIAN_POINT('Origin',(28.,9.00000000000001,30.));
#642=CARTESIAN_POINT('Ctrl Pts',(28.,15.,30.));
#643=CARTESIAN_POINT('Ctrl Pts',(28.,15.,33.));
#644=CARTESIAN_POINT('Ctrl Pts',(28.,9.00000000000001,33.));
#645=CARTESIAN_POINT('Ctrl Pts',(28.,3.00000000000001,33.));
#646=CARTESIAN_POINT('Ctrl Pts',(28.,3.00000000000001,30.));
#647=CARTESIAN_POINT('Ctrl Pts',(28.,3.00000000000001,27.));
#648=CARTESIAN_POINT('Ctrl Pts',(28.,9.00000000000001,27.));
#649=CARTESIAN_POINT('Ctrl Pts',(28.,15.,27.));
#650=CARTESIAN_POINT('Ctrl Pts',(28.,15.,30.));
#651=CARTESIAN_POINT('Ctrl Pts',(96.,15.,30.));
#652=CARTESIAN_POINT('Ctrl Pts',(96.,15.,33.));
#653=CARTESIAN_POINT('Ctrl Pts',(96.,9.00000000000001,33.));
#654=CARTESIAN_POINT('Ctrl Pts',(96.,3.00000000000001,33.));
#655=CARTESIAN_POINT('Ctrl Pts',(96.,3.00000000000001,30.));
#656=CARTESIAN_POINT('Ctrl Pts',(96.,3.00000000000001,27.));
#657=CARTESIAN_POINT('Ctrl Pts',(96.,9.00000000000001,27.));
#658=CARTESIAN_POINT('Ctrl Pts',(96.,15.,27.));
#659=CARTESIAN_POINT('Ctrl Pts',(96.,15.,30.));
#660=CARTESIAN_POINT('',(96.,15.,30.));
#661=CARTESIAN_POINT('Origin',(96.,9.00000000000001,30.));
#662=CARTESIAN_POINT('',(30.,15.,30.));
#663=CARTESIAN_POINT('Ctrl Pts',(96.,15.,30.));
#664=CARTESIAN_POINT('Ctrl Pts',(30.,15.,30.));
#665=CARTESIAN_POINT('',(30.,11.9,32.6263091973338));
#666=CARTESIAN_POINT('Origin',(30.,9.00000000000001,30.));
#667=CARTESIAN_POINT('',(28.,11.9,32.6263091973338));
#668=CARTESIAN_POINT('',(30.,6.10000000000001,32.6263091973338));
#669=CARTESIAN_POINT('',(28.,6.10000000000001,32.6263091973338));
#670=CARTESIAN_POINT('',(30.,6.10000000000001,27.3736908026662));
#671=CARTESIAN_POINT('Origin',(30.,9.00000000000001,30.));
#672=CARTESIAN_POINT('',(28.,6.10000000000001,27.3736908026662));
#673=CARTESIAN_POINT('',(30.,11.9,27.3736908026662));
#674=CARTESIAN_POINT('',(28.,11.9,27.3736908026662));
#675=CARTESIAN_POINT('Origin',(30.,9.00000000000001,30.));
#676=CARTESIAN_POINT('Origin',(28.,11.9,27.4019237886467));
#677=CARTESIAN_POINT('',(30.,11.9,32.5980762113533));
#678=CARTESIAN_POINT('Origin',(28.,6.10000000000001,32.5980762113533));
#679=CARTESIAN_POINT('',(30.,6.10000000000001,27.4019237886467));
#680=CARTESIAN_POINT('Origin',(96.,9.00000000000001,30.));
#681=CARTESIAN_POINT('',(96.,0.423666789392842,26.5257365598496));
#682=CARTESIAN_POINT('',(96.,17.5763332106072,26.5257365598496));
#683=CARTESIAN_POINT('',(96.,4.72651164886384,26.5257365598496));
#684=CARTESIAN_POINT('',(96.,0.423666789392856,33.4742634401504));
#685=CARTESIAN_POINT('Origin',(96.,1.4210854715202E-14,30.));
#686=CARTESIAN_POINT('',(96.,17.5763332106072,33.4742634401504));
#687=CARTESIAN_POINT('',(96.,13.2734883511362,33.4742634401504));
#688=CARTESIAN_POINT('Origin',(96.,18.,30.));
#689=CARTESIAN_POINT('',(96.,2.90000000000001,30.));
#690=CARTESIAN_POINT('Origin',(96.,1.4210854715202E-14,30.));
#691=CARTESIAN_POINT('',(96.,20.9,30.));
#692=CARTESIAN_POINT('Origin',(96.,18.,30.));
#693=CARTESIAN_POINT('Origin',(99.8,4.72651164886384,26.2257365598496));
#694=CARTESIAN_POINT('',(100.,17.5584850123221,26.2257365598496));
#695=CARTESIAN_POINT('',(100.,0.441514987677875,26.2257365598496));
#696=CARTESIAN_POINT('',(100.,4.72651164886384,26.2257365598496));
#697=CARTESIAN_POINT('',(99.8,0.453023297727663,26.0257365598496));
#698=CARTESIAN_POINT('Ctrl Pts',(100.,0.441514987677875,26.2257365598496));
#699=CARTESIAN_POINT('Ctrl Pts',(100.,0.441557062920756,26.2250147520225));
#700=CARTESIAN_POINT('Ctrl Pts',(99.999996092451,0.441599131860487,26.2242929490614));
#701=CARTESIAN_POINT('Ctrl Pts',(99.9997038773394,0.443171863396096,26.1973047651236));
#702=CARTESIAN_POINT('Ctrl Pts',(99.9942474659044,0.444676364736392,26.1713462029685));
#703=CARTESIAN_POINT('Ctrl Pts',(99.9737018811704,0.447451877354424,26.1232405371224));
#704=CARTESIAN_POINT('Ctrl Pts',(99.9588963548004,0.448698727732441,26.1015169689349));
#705=CARTESIAN_POINT('Ctrl Pts',(99.9218080059233,0.450788912403951,26.0649911287358));
#706=CARTESIAN_POINT('Ctrl Pts',(99.8998918781513,0.451613129512146,26.0505262890469));
#707=CARTESIAN_POINT('Ctrl Pts',(99.8517564321877,0.452735444392108,26.0308079507063));
#708=CARTESIAN_POINT('Ctrl Pts',(99.8260036951576,0.453023297727658,26.0257365598496));
#709=CARTESIAN_POINT('Ctrl Pts',(99.8,0.453023297727658,26.0257365598496));
#710=CARTESIAN_POINT('',(99.8,17.5469767022724,26.0257365598496));
#711=CARTESIAN_POINT('',(99.8,4.72651164886384,26.0257365598496));
#712=CARTESIAN_POINT('Ctrl Pts',(100.,17.5584850123221,26.2257365598493));
#713=CARTESIAN_POINT('Ctrl Pts',(100.,17.5584429370793,26.2250147520231));
#714=CARTESIAN_POINT('Ctrl Pts',(99.999996092451,17.5584008681397,26.2242929490644));
#715=CARTESIAN_POINT('Ctrl Pts',(99.99970387734,17.5568281366039,26.1973047651254));
#716=CARTESIAN_POINT('Ctrl Pts',(99.9942474659049,17.5553236352635,26.1713462029696));
#717=CARTESIAN_POINT('Ctrl Pts',(99.9737018811704,17.5525481226455,26.1232405371225));
#718=CARTESIAN_POINT('Ctrl Pts',(99.9588963548004,17.5513012722675,26.1015169689349));
#719=CARTESIAN_POINT('Ctrl Pts',(99.9218080059233,17.5492110875961,26.0649911287358));
#720=CARTESIAN_POINT('Ctrl Pts',(99.8998918781513,17.5483868704879,26.0505262890469));
#721=CARTESIAN_POINT('Ctrl Pts',(99.8517564321877,17.5472645556079,26.0308079507063));
#722=CARTESIAN_POINT('Ctrl Pts',(99.8260036951576,17.5469767022723,26.0257365598496));
#723=CARTESIAN_POINT('Ctrl Pts',(99.8,17.5469767022723,26.0257365598496));
#724=CARTESIAN_POINT('Origin',(99.8,1.44217970898808E-14,30.));
#725=CARTESIAN_POINT('',(100.,0.441514987677886,33.7742634401504));
#726=CARTESIAN_POINT('Origin',(100.,1.4432899320127E-14,30.));
#727=CARTESIAN_POINT('',(99.8,0.453023297727665,33.9742634401504));
#728=CARTESIAN_POINT('Ctrl Pts',(100.,0.441514987677885,33.7742634401506));
#729=CARTESIAN_POINT('Ctrl Pts',(100.,0.441557062920716,33.7749852479769));
#730=CARTESIAN_POINT('Ctrl Pts',(99.999996092451,0.441599131860419,33.7757070509376));
#731=CARTESIAN_POINT('Ctrl Pts',(99.9997038773397,0.443171863396204,33.8026952348755));
#732=CARTESIAN_POINT('Ctrl Pts',(99.9942474659046,0.44467636473651,33.8286537970309));
#733=CARTESIAN_POINT('Ctrl Pts',(99.9737018811704,0.447451877354501,33.8767594628775));
#734=CARTESIAN_POINT('Ctrl Pts',(99.9588963548004,0.448698727732481,33.8984830310651));
#735=CARTESIAN_POINT('Ctrl Pts',(99.9218080059233,0.450788912403971,33.9350088712642));
#736=CARTESIAN_POINT('Ctrl Pts',(99.8998918781513,0.45161312951215,33.9494737109531));
#737=CARTESIAN_POINT('Ctrl Pts',(99.8517564321877,0.45273544439211,33.9691920492937));
#738=CARTESIAN_POINT('Ctrl Pts',(99.8260036951576,0.453023297727677,33.9742634401504));
#739=CARTESIAN_POINT('Ctrl Pts',(99.8,0.453023297727677,33.9742634401504));
#740=CARTESIAN_POINT('Origin',(99.8,1.44217970898808E-14,30.));
#741=CARTESIAN_POINT('Origin',(99.8,13.2734883511362,33.7742634401504));
#742=CARTESIAN_POINT('',(100.,17.5584850123222,33.7742634401504));
#743=CARTESIAN_POINT('',(100.,13.2734883511362,33.7742634401504));
#744=CARTESIAN_POINT('',(99.8,17.5469767022724,33.9742634401504));
#745=CARTESIAN_POINT('Ctrl Pts',(100.,17.5584850123222,33.7742634401504));
#746=CARTESIAN_POINT('Ctrl Pts',(100.,17.5584429370793,33.7749852479767));
#747=CARTESIAN_POINT('Ctrl Pts',(99.999996092451,17.5584008681396,33.7757070509375));
#748=CARTESIAN_POINT('Ctrl Pts',(99.9997038773397,17.556828136604,33.8026952348755));
#749=CARTESIAN_POINT('Ctrl Pts',(99.9942474659046,17.5553236352635,33.8286537970309));
#750=CARTESIAN_POINT('Ctrl Pts',(99.9737018811704,17.5525481226455,33.8767594628775));
#751=CARTESIAN_POINT('Ctrl Pts',(99.9588963548004,17.5513012722676,33.8984830310651));
#752=CARTESIAN_POINT('Ctrl Pts',(99.9218080059233,17.5492110875961,33.9350088712642));
#753=CARTESIAN_POINT('Ctrl Pts',(99.8998918781513,17.5483868704879,33.9494737109531));
#754=CARTESIAN_POINT('Ctrl Pts',(99.8517564321877,17.5472645556079,33.9691920492937));
#755=CARTESIAN_POINT('Ctrl Pts',(99.8260036951576,17.5469767022724,33.9742634401504));
#756=CARTESIAN_POINT('Ctrl Pts',(99.8,17.5469767022724,33.9742634401504));
#757=CARTESIAN_POINT('',(99.8,13.2734883511362,33.9742634401504));
#758=CARTESIAN_POINT('Origin',(99.8,18.,30.));
#759=CARTESIAN_POINT('Origin',(99.8,18.,30.));
#760=CARTESIAN_POINT('Origin',(100.,18.,30.));
#761=CARTESIAN_POINT('Origin',(96.,18.,30.));
#762=CARTESIAN_POINT('',(96.5,17.5469767022724,26.0257365598496));
#763=CARTESIAN_POINT('',(96.,17.5469767022724,26.0257365598496));
#764=CARTESIAN_POINT('',(96.5,17.5469767022724,33.9742634401504));
#765=CARTESIAN_POINT('Origin',(96.5,18.,30.));
#766=CARTESIAN_POINT('',(96.,17.5469767022724,33.9742634401504));
#767=CARTESIAN_POINT('Origin',(96.,0.453023297727662,26.0257365598496));
#768=CARTESIAN_POINT('',(96.5,0.453023297727662,26.0257365598496));
#769=CARTESIAN_POINT('',(96.,0.453023297727662,26.0257365598496));
#770=CARTESIAN_POINT('',(96.5,4.72651164886384,26.0257365598496));
#771=CARTESIAN_POINT('Origin',(100.,9.00000000000001,30.));
#772=CARTESIAN_POINT('',(100.,16.5,30.));
#773=CARTESIAN_POINT('Origin',(100.,18.,30.));
#774=CARTESIAN_POINT('',(100.,-1.49999999999999,30.));
#775=CARTESIAN_POINT('Origin',(100.,1.4432899320127E-14,30.));
#776=CARTESIAN_POINT('Origin',(96.5,4.72651164886384,26.5257365598496));
#777=CARTESIAN_POINT('Ctrl Pts',(96.,17.5763332106072,26.5257365598494));
#778=CARTESIAN_POINT('Ctrl Pts',(96.,17.5762480817127,26.5243351959683));
#779=CARTESIAN_POINT('Ctrl Pts',(96.0000058914622,17.5761629787503,26.5229338366391));
#780=CARTESIAN_POINT('Ctrl Pts',(96.0005732793822,17.5720662967937,26.4554549650785));
#781=CARTESIAN_POINT('Ctrl Pts',(96.014222693734,17.5681589194954,26.390126738591));
#782=CARTESIAN_POINT('Ctrl Pts',(96.0657514639755,17.5610284658496,26.2694873559985));
#783=CARTESIAN_POINT('Ctrl Pts',(96.1027638277066,17.5578622914381,26.2151819580518));
#784=CARTESIAN_POINT('Ctrl Pts',(96.1954826735255,17.5525787515948,26.1238713142442));
#785=CARTESIAN_POINT('Ctrl Pts',(96.2502716163172,17.5505090588806,26.0877103240554));
#786=CARTESIAN_POINT('Ctrl Pts',(96.3706089290843,17.5476953634948,26.038415054521));
#787=CARTESIAN_POINT('Ctrl Pts',(96.4349908460701,17.5469767022723,26.0257365598496));
#788=CARTESIAN_POINT('Ctrl Pts',(96.5,17.5469767022723,26.0257365598496));
#789=CARTESIAN_POINT('Ctrl Pts',(96.,0.423666789392842,26.5257365598496));
#790=CARTESIAN_POINT('Ctrl Pts',(96.,0.423751918287295,26.5243351959685));
#791=CARTESIAN_POINT('Ctrl Pts',(96.0000058914622,0.423837021249768,26.5229338366392));
#792=CARTESIAN_POINT('Ctrl Pts',(96.0005732793822,0.427933703206185,26.4554549650784));
#793=CARTESIAN_POINT('Ctrl Pts',(96.014222693734,0.431841080504496,26.390126738591));
#794=CARTESIAN_POINT('Ctrl Pts',(96.0657514639755,0.43897153415042,26.2694873559985));
#795=CARTESIAN_POINT('Ctrl Pts',(96.1027638277066,0.442137708561856,26.2151819580518));
#796=CARTESIAN_POINT('Ctrl Pts',(96.1954826735255,0.447421248405252,26.1238713142442));
#797=CARTESIAN_POINT('Ctrl Pts',(96.2502716163172,0.449490941119462,26.0877103240554));
#798=CARTESIAN_POINT('Ctrl Pts',(96.3706089290843,0.452304636505238,26.038415054521));
#799=CARTESIAN_POINT('Ctrl Pts',(96.4349908460701,0.45302329772764,26.0257365598496));
#800=CARTESIAN_POINT('Ctrl Pts',(96.5,0.45302329772764,26.0257365598496));
#801=CARTESIAN_POINT('Origin',(96.5,18.,30.));
#802=CARTESIAN_POINT('Ctrl Pts',(96.,17.5763332106072,33.4742634401504));
#803=CARTESIAN_POINT('Ctrl Pts',(96.,17.5762480817127,33.4756648040315));
#804=CARTESIAN_POINT('Ctrl Pts',(96.0000058914622,17.5761629787503,33.4770661633608));
#805=CARTESIAN_POINT('Ctrl Pts',(96.0005732793822,17.5720662967939,33.5445450349217));
#806=CARTESIAN_POINT('Ctrl Pts',(96.014222693734,17.5681589194955,33.609873261409));
#807=CARTESIAN_POINT('Ctrl Pts',(96.0657514639755,17.5610284658496,33.7305126440015));
#808=CARTESIAN_POINT('Ctrl Pts',(96.1027638277066,17.5578622914382,33.7848180419482));
#809=CARTESIAN_POINT('Ctrl Pts',(96.1954826735255,17.5525787515948,33.8761286857559));
#810=CARTESIAN_POINT('Ctrl Pts',(96.2502716163172,17.5505090588806,33.9122896759446));
#811=CARTESIAN_POINT('Ctrl Pts',(96.3706089290843,17.5476953634948,33.961584945479));
#812=CARTESIAN_POINT('Ctrl Pts',(96.4349908460701,17.5469767022724,33.9742634401504));
#813=CARTESIAN_POINT('Ctrl Pts',(96.5,17.5469767022724,33.9742634401504));
#814=CARTESIAN_POINT('Origin',(96.5,1.42386102908176E-14,30.));
#815=CARTESIAN_POINT('',(96.5,0.453023297727665,33.9742634401504));
#816=CARTESIAN_POINT('Origin',(96.5,1.42386102908176E-14,30.));
#817=CARTESIAN_POINT('Ctrl Pts',(96.5,0.453023297727704,33.9742634401504));
#818=CARTESIAN_POINT('Ctrl Pts',(96.4349908460701,0.453023297727705,33.9742634401504));
#819=CARTESIAN_POINT('Ctrl Pts',(96.3706089290843,0.452304636505236,33.961584945479));
#820=CARTESIAN_POINT('Ctrl Pts',(96.2502716163172,0.449490941119461,33.9122896759446));
#821=CARTESIAN_POINT('Ctrl Pts',(96.1954826735255,0.447421248405256,33.8761286857558));
#822=CARTESIAN_POINT('Ctrl Pts',(96.1027638277066,0.442137708561864,33.7848180419482));
#823=CARTESIAN_POINT('Ctrl Pts',(96.0657514639755,0.43897153415043,33.7305126440015));
#824=CARTESIAN_POINT('Ctrl Pts',(96.014222693734,0.431841080504521,33.609873261409));
#825=CARTESIAN_POINT('Ctrl Pts',(96.0005732793822,0.427933703206183,33.5445450349216));
#826=CARTESIAN_POINT('Ctrl Pts',(96.0000058914622,0.423837021249777,33.4770661633608));
#827=CARTESIAN_POINT('Ctrl Pts',(96.,0.423751918287308,33.4756648040315));
#828=CARTESIAN_POINT('Ctrl Pts',(96.,0.423666789392855,33.4742634401504));
#829=CARTESIAN_POINT('Origin',(96.5,13.2734883511362,33.4742634401504));
#830=CARTESIAN_POINT('',(96.5,13.2734883511362,33.9742634401504));
#831=CARTESIAN_POINT('Origin',(96.,1.4210854715202E-14,30.));
#832=CARTESIAN_POINT('',(96.,0.453023297727665,33.9742634401504));
#833=CARTESIAN_POINT('Origin',(96.,1.4210854715202E-14,30.));
#834=CARTESIAN_POINT('',(97.75,2.90000000000001,30.));
#835=CARTESIAN_POINT('',(96.,2.90000000000001,30.));
#836=CARTESIAN_POINT('Origin',(97.75,1.43079992298567E-14,30.));
#837=CARTESIAN_POINT('Origin',(97.75,1.43079992298567E-14,30.));
#838=CARTESIAN_POINT('',(97.75,-1.49999999999999,30.));
#839=CARTESIAN_POINT('Origin',(97.75,1.43079992298567E-14,30.));
#840=CARTESIAN_POINT('Origin',(96.,18.,30.));
#841=CARTESIAN_POINT('',(97.75,20.9,30.));
#842=CARTESIAN_POINT('',(96.,20.9,30.));
#843=CARTESIAN_POINT('Origin',(97.75,18.,30.));
#844=CARTESIAN_POINT('Origin',(97.75,18.,30.));
#845=CARTESIAN_POINT('',(97.75,16.5,30.));
#846=CARTESIAN_POINT('Origin',(97.75,18.,30.));
#847=CARTESIAN_POINT('Origin',(96.,18.,30.));
#848=CARTESIAN_POINT('',(96.,16.5,30.));
#849=CARTESIAN_POINT('Origin',(96.,1.4210854715202E-14,30.));
#850=CARTESIAN_POINT('',(96.,-1.49999999999999,30.));
#851=CARTESIAN_POINT('Origin',(96.,17.5469767022724,33.9742634401504));
#852=CARTESIAN_POINT('Origin',(36.,9.00000000000001,30.));
#853=CARTESIAN_POINT('',(36.,6.90000000000001,30.));
#854=CARTESIAN_POINT('Origin',(36.,9.00000000000001,30.));
#855=CARTESIAN_POINT('Origin',(30.,13.5,30.));
#856=CARTESIAN_POINT('Origin',(30.,4.50000000000001,30.));
#857=CARTESIAN_POINT('Origin',(28.,9.00000000000001,30.));
#858=CARTESIAN_POINT('',(28.,6.90000000000001,30.));
#859=UNCERTAINTY_MEASURE_WITH_UNIT(LENGTH_MEASURE(0.01),#863,
'DISTANCE_ACCURACY_VALUE',
'Maximum model space distance between geometric entities at asserted c
onnectivities');
#860=UNCERTAINTY_MEASURE_WITH_UNIT(LENGTH_MEASURE(0.01),#863,
'DISTANCE_ACCURACY_VALUE',
'Maximum model space distance between geometric entities at asserted c
onnectivities');
#861=(
GEOMETRIC_REPRESENTATION_CONTEXT(3)
GLOBAL_UNCERTAINTY_ASSIGNED_CONTEXT((#859))
GLOBAL_UNIT_ASSIGNED_CONTEXT((#863,#865,#866))
REPRESENTATION_CONTEXT('','3D')
);
#862=(
GEOMETRIC_REPRESENTATION_CONTEXT(3)
GLOBAL_UNCERTAINTY_ASSIGNED_CONTEXT((#860))
GLOBAL_UNIT_ASSIGNED_CONTEXT((#863,#865,#866))
REPRESENTATION_CONTEXT('','3D')
);
#863=(
LENGTH_UNIT()
NAMED_UNIT(*)
SI_UNIT(.MILLI.,.METRE.)
);
#864=(
LENGTH_UNIT()
NAMED_UNIT(*)
SI_UNIT($,.METRE.)
);
#865=(
NAMED_UNIT(*)
PLANE_ANGLE_UNIT()
SI_UNIT($,.RADIAN.)
);
#866=(
NAMED_UNIT(*)
SI_UNIT($,.STERADIAN.)
SOLID_ANGLE_UNIT()
);
#867=SHAPE_DEFINITION_REPRESENTATION(#868,#869);
#868=PRODUCT_DEFINITION_SHAPE('',$,#871);
#869=SHAPE_REPRESENTATION('',(#449),#861);
#870=PRODUCT_DEFINITION_CONTEXT('part definition',#875,'design');
#871=PRODUCT_DEFINITION('Long arm (1)','Long arm (1)',#872,#870);
#872=PRODUCT_DEFINITION_FORMATION('',$,#877);
#873=PRODUCT_RELATED_PRODUCT_CATEGORY('Long arm (1)','Long arm (1)',(#877));
#874=APPLICATION_PROTOCOL_DEFINITION('international standard',
'automotive_design',2009,#875);
#875=APPLICATION_CONTEXT(
'Core Data for Automotive Mechanical Design Process');
#876=PRODUCT_CONTEXT('part definition',#875,'mechanical');
#877=PRODUCT('Long arm (1)','Long arm (1)',$,(#876));
#878=PRESENTATION_STYLE_ASSIGNMENT((#880));
#879=PRESENTATION_STYLE_ASSIGNMENT((#881));
#880=SURFACE_STYLE_USAGE(.BOTH.,#882);
#881=SURFACE_STYLE_USAGE(.BOTH.,#883);
#882=SURFACE_SIDE_STYLE('',(#884));
#883=SURFACE_SIDE_STYLE('',(#885));
#884=SURFACE_STYLE_FILL_AREA(#886);
#885=SURFACE_STYLE_FILL_AREA(#887);
#886=FILL_AREA_STYLE(
'PA 12 - Nylon - PA 603-CF (with EOS P 3D Printers)',(#888));
#887=FILL_AREA_STYLE('ABS (White)',(#889));
#888=FILL_AREA_STYLE_COLOUR(
'PA 12 - Nylon - PA 603-CF (with EOS P 3D Printers)',#890);
#889=FILL_AREA_STYLE_COLOUR('ABS (White)',#891);
#890=COLOUR_RGB('PA 12 - Nylon - PA 603-CF (with EOS P 3D Printers)',0.247058823529412,
0.247058823529412,0.247058823529412);
#891=COLOUR_RGB('ABS (White)',0.996078431372549,0.313725490196078,0.);
ENDSEC;
END-ISO-10303-21;
