ISO-10303-21;
HEADER;
/* Generated by software containing ST-Developer
 * from STEP Tools, Inc. (www.steptools.com) 
 */

FILE_DESCRIPTION(
/* description */ (''),
/* implementation_level */ '2;1');

FILE_NAME(
/* name */ 'Cup.step',
/* time_stamp */ '2026-05-13T02:06:08+03:00',
/* author */ (''),
/* organization */ (''),
/* preprocessor_version */ 'ST-DEVELOPER v20.1',
/* originating_system */ 'Autodesk Translation Framework v15.8.0.0',
/* authorisation */ '');

FILE_SCHEMA (('AUTOMOTIVE_DESIGN { 1 0 10303 214 3 1 1 }'));
ENDSEC;

DATA;
#10=MECHANICAL_DESIGN_GEOMETRIC_PRESENTATION_REPRESENTATION('',(#13),#539);
#11=SHAPE_REPRESENTATION_RELATIONSHIP('SRR','None',#546,#12);
#12=ADVANCED_BREP_SHAPE_REPRESENTATION('',(#14),#538);
#13=STYLED_ITEM('',(#556),#14);
#14=MANIFOLD_SOLID_BREP('Body2',#252);
#15=(
BOUNDED_SURFACE()
B_SPLINE_SURFACE(1,2,((#517,#518,#519,#520,#521,#522,#523,#524,#525),(#526,
#527,#528,#529,#530,#531,#532,#533,#534)),.UNSPECIFIED.,.F.,.T.,.F.)
B_SPLINE_SURFACE_WITH_KNOTS((2,2),(3,2,2,2,3),(3.17708333333333,8.33333333333333),
(-3.14159265358979,-1.5707963267949,0.,1.5707963267949,3.14159265358979),
 .UNSPECIFIED.)
GEOMETRIC_REPRESENTATION_ITEM()
RATIONAL_B_SPLINE_SURFACE(((1.,0.707106781186548,1.,0.707106781186548,1.,
0.707106781186548,1.,0.707106781186548,1.),(1.,0.707106781186548,1.,0.707106781186548,
1.,0.707106781186548,1.,0.707106781186548,1.)))
REPRESENTATION_ITEM('')
SURFACE()
);
#16=ELLIPSE('',#290,6.,3.);
#17=ELLIPSE('',#291,6.,3.);
#18=ELLIPSE('',#293,6.,3.);
#19=ELLIPSE('',#294,6.,3.);
#20=ELLIPSE('',#296,6.,3.);
#21=CYLINDRICAL_SURFACE('',#283,2.9);
#22=CYLINDRICAL_SURFACE('',#284,1.5);
#23=(
BOUNDED_CURVE()
B_SPLINE_CURVE(2,(#477,#478,#479),.UNSPECIFIED.,.F.,.F.)
B_SPLINE_CURVE_WITH_KNOTS((3,3),(0.613094270208639,1.09360748650468),
 .UNSPECIFIED.)
CURVE()
GEOMETRIC_REPRESENTATION_ITEM()
RATIONAL_B_SPLINE_CURVE((1.02446994279978,1.02868326722483,1.02446994279978))
REPRESENTATION_ITEM('')
);
#24=B_SPLINE_CURVE_WITH_KNOTS('',3,(#391,#392,#393,#394,#395,#396,#397,
#398,#399,#400,#401,#402),.UNSPECIFIED.,.F.,.F.,(4,2,2,2,2,4),(0.,0.26703570031271,
0.534071400625419,0.626045895849136,0.672033143460994,0.718020391072853),
 .UNSPECIFIED.);
#25=B_SPLINE_CURVE_WITH_KNOTS('',3,(#403,#404,#405,#406,#407,#408,#409,
#410,#411,#412,#413,#414,#415,#416,#417,#418,#419,#420,#421,#422,#423,#424,
#425,#426,#427,#428,#429,#430,#431,#432,#433,#434,#435,#436,#437,#438),
 .UNSPECIFIED.,.F.,.F.,(4,2,2,2,2,2,2,2,2,2,2,2,2,2,2,2,2,4),(0.718020391072853,
0.764007638684711,0.80999488629657,0.901969381520287,1.169005081833,1.43604078214571,
2.1582197041711,2.3101511288466,2.46208255352211,2.52212438442139,2.55214529987104,
2.58216621532068,2.61218713077032,2.64220804621996,2.70224987711924,2.85418130179475,
3.00611272647026,3.72829164849565),.UNSPECIFIED.);
#26=B_SPLINE_CURVE_WITH_KNOTS('',3,(#450,#451,#452,#453,#454,#455,#456,
#457,#458,#459,#460,#461,#462,#463,#464,#465,#466,#467,#468,#469,#470,#471,
#472,#473,#474,#475,#476),.UNSPECIFIED.,.F.,.F.,(4,2,3,2,2,2,2,2,2,2,2,
2,4),(-0.309658900213111,-0.169389683848242,0.,0.143333225553273,0.286666451106545,
0.383820766823141,0.480975082539737,0.578129398256333,0.675283713972928,
0.818616939526201,0.961950165079474,1.13133984892772,1.27160906529258),
 .UNSPECIFIED.);
#27=LINE('',#387,#39);
#28=LINE('',#447,#40);
#29=LINE('',#488,#41);
#30=LINE('',#493,#42);
#31=LINE('',#495,#43);
#32=LINE('',#497,#44);
#33=LINE('',#498,#45);
#34=LINE('',#502,#46);
#35=LINE('',#504,#47);
#36=LINE('',#506,#48);
#37=LINE('',#507,#49);
#38=LINE('',#535,#50);
#39=VECTOR('',#315,18.);
#40=VECTOR('',#328,16.75);
#41=VECTOR('',#341,1.5);
#42=VECTOR('',#346,10.);
#43=VECTOR('',#347,10.);
#44=VECTOR('',#348,10.);
#45=VECTOR('',#349,10.);
#46=VECTOR('',#352,10.);
#47=VECTOR('',#353,10.);
#48=VECTOR('',#354,10.);
#49=VECTOR('',#355,10.);
#50=VECTOR('',#372,6.);
#51=CONICAL_SURFACE('',#273,18.,0.815691923316223);
#52=CONICAL_SURFACE('',#279,16.75,0.824138461060928);
#53=FACE_BOUND('',#83,.T.);
#54=FACE_BOUND('',#85,.T.);
#55=FACE_BOUND('',#88,.T.);
#56=FACE_BOUND('',#90,.T.);
#57=FACE_BOUND('',#97,.T.);
#58=PLANE('',#271);
#59=PLANE('',#280);
#60=PLANE('',#286);
#61=PLANE('',#287);
#62=PLANE('',#288);
#63=PLANE('',#289);
#64=PLANE('',#292);
#65=PLANE('',#295);
#66=FACE_OUTER_BOUND('',#81,.T.);
#67=FACE_OUTER_BOUND('',#82,.T.);
#68=FACE_OUTER_BOUND('',#84,.T.);
#69=FACE_OUTER_BOUND('',#86,.T.);
#70=FACE_OUTER_BOUND('',#87,.T.);
#71=FACE_OUTER_BOUND('',#89,.T.);
#72=FACE_OUTER_BOUND('',#91,.T.);
#73=FACE_OUTER_BOUND('',#92,.T.);
#74=FACE_OUTER_BOUND('',#93,.T.);
#75=FACE_OUTER_BOUND('',#94,.T.);
#76=FACE_OUTER_BOUND('',#95,.T.);
#77=FACE_OUTER_BOUND('',#96,.T.);
#78=FACE_OUTER_BOUND('',#98,.T.);
#79=FACE_OUTER_BOUND('',#99,.T.);
#80=FACE_OUTER_BOUND('',#100,.T.);
#81=EDGE_LOOP('',(#169,#170,#171,#172,#173));
#82=EDGE_LOOP('',(#174));
#83=EDGE_LOOP('',(#175));
#84=EDGE_LOOP('',(#176,#177,#178,#179,#180));
#85=EDGE_LOOP('',(#181,#182));
#86=EDGE_LOOP('',(#183,#184,#185,#186,#187));
#87=EDGE_LOOP('',(#188,#189,#190,#191));
#88=EDGE_LOOP('',(#192,#193));
#89=EDGE_LOOP('',(#194,#195));
#90=EDGE_LOOP('',(#196));
#91=EDGE_LOOP('',(#197,#198));
#92=EDGE_LOOP('',(#199,#200,#201,#202));
#93=EDGE_LOOP('',(#203));
#94=EDGE_LOOP('',(#204,#205,#206,#207));
#95=EDGE_LOOP('',(#208,#209,#210,#211));
#96=EDGE_LOOP('',(#212,#213,#214,#215));
#97=EDGE_LOOP('',(#216));
#98=EDGE_LOOP('',(#217,#218,#219));
#99=EDGE_LOOP('',(#220,#221));
#100=EDGE_LOOP('',(#222,#223,#224,#225,#226,#227,#228,#229,#230,#231,#232,
#233,#234));
#101=CIRCLE('',#267,34.8739211404379);
#102=CIRCLE('',#268,0.05);
#103=CIRCLE('',#269,34.9081893753882);
#104=CIRCLE('',#270,34.9081893753882);
#105=CIRCLE('',#272,33.5195848928689);
#106=CIRCLE('',#274,1.);
#107=CIRCLE('',#276,33.4856254151072);
#108=CIRCLE('',#277,33.4856254151072);
#109=CIRCLE('',#278,0.05);
#110=CIRCLE('',#281,2.9);
#111=CIRCLE('',#282,1.5);
#112=CIRCLE('',#285,1.5);
#113=VERTEX_POINT('',#375);
#114=VERTEX_POINT('',#377);
#115=VERTEX_POINT('',#379);
#116=VERTEX_POINT('',#383);
#117=VERTEX_POINT('',#386);
#118=VERTEX_POINT('',#389);
#119=VERTEX_POINT('',#390);
#120=VERTEX_POINT('',#440);
#121=VERTEX_POINT('',#441);
#122=VERTEX_POINT('',#446);
#123=VERTEX_POINT('',#448);
#124=VERTEX_POINT('',#449);
#125=VERTEX_POINT('',#482);
#126=VERTEX_POINT('',#486);
#127=VERTEX_POINT('',#491);
#128=VERTEX_POINT('',#492);
#129=VERTEX_POINT('',#494);
#130=VERTEX_POINT('',#496);
#131=VERTEX_POINT('',#500);
#132=VERTEX_POINT('',#501);
#133=VERTEX_POINT('',#503);
#134=VERTEX_POINT('',#505);
#135=VERTEX_POINT('',#512);
#136=EDGE_CURVE('',#113,#113,#101,.T.);
#137=EDGE_CURVE('',#113,#114,#102,.T.);
#138=EDGE_CURVE('',#114,#115,#103,.T.);
#139=EDGE_CURVE('',#115,#114,#104,.T.);
#140=EDGE_CURVE('',#116,#116,#105,.T.);
#141=EDGE_CURVE('',#115,#117,#27,.T.);
#142=EDGE_CURVE('',#117,#117,#106,.T.);
#143=EDGE_CURVE('',#118,#119,#24,.T.);
#144=EDGE_CURVE('',#119,#118,#25,.T.);
#145=EDGE_CURVE('',#120,#121,#107,.T.);
#146=EDGE_CURVE('',#121,#120,#108,.T.);
#147=EDGE_CURVE('',#120,#116,#109,.T.);
#148=EDGE_CURVE('',#121,#122,#28,.T.);
#149=EDGE_CURVE('',#123,#124,#26,.T.);
#150=EDGE_CURVE('',#124,#123,#23,.T.);
#151=EDGE_CURVE('',#123,#124,#110,.T.);
#152=EDGE_CURVE('',#125,#125,#111,.T.);
#153=EDGE_CURVE('',#126,#126,#112,.T.);
#154=EDGE_CURVE('',#126,#125,#29,.T.);
#155=EDGE_CURVE('',#127,#128,#30,.T.);
#156=EDGE_CURVE('',#129,#127,#31,.T.);
#157=EDGE_CURVE('',#129,#130,#32,.T.);
#158=EDGE_CURVE('',#128,#130,#33,.T.);
#159=EDGE_CURVE('',#131,#132,#34,.T.);
#160=EDGE_CURVE('',#133,#131,#35,.T.);
#161=EDGE_CURVE('',#133,#134,#36,.T.);
#162=EDGE_CURVE('',#132,#134,#37,.T.);
#163=EDGE_CURVE('',#130,#133,#16,.T.);
#164=EDGE_CURVE('',#134,#129,#17,.T.);
#165=EDGE_CURVE('',#132,#135,#18,.T.);
#166=EDGE_CURVE('',#135,#131,#19,.T.);
#167=EDGE_CURVE('',#128,#127,#20,.T.);
#168=EDGE_CURVE('',#135,#119,#38,.T.);
#169=ORIENTED_EDGE('',*,*,#136,.T.);
#170=ORIENTED_EDGE('',*,*,#137,.T.);
#171=ORIENTED_EDGE('',*,*,#138,.T.);
#172=ORIENTED_EDGE('',*,*,#139,.T.);
#173=ORIENTED_EDGE('',*,*,#137,.F.);
#174=ORIENTED_EDGE('',*,*,#136,.F.);
#175=ORIENTED_EDGE('',*,*,#140,.F.);
#176=ORIENTED_EDGE('',*,*,#139,.F.);
#177=ORIENTED_EDGE('',*,*,#141,.T.);
#178=ORIENTED_EDGE('',*,*,#142,.T.);
#179=ORIENTED_EDGE('',*,*,#141,.F.);
#180=ORIENTED_EDGE('',*,*,#138,.F.);
#181=ORIENTED_EDGE('',*,*,#143,.F.);
#182=ORIENTED_EDGE('',*,*,#144,.F.);
#183=ORIENTED_EDGE('',*,*,#145,.T.);
#184=ORIENTED_EDGE('',*,*,#146,.T.);
#185=ORIENTED_EDGE('',*,*,#147,.T.);
#186=ORIENTED_EDGE('',*,*,#140,.T.);
#187=ORIENTED_EDGE('',*,*,#147,.F.);
#188=ORIENTED_EDGE('',*,*,#145,.F.);
#189=ORIENTED_EDGE('',*,*,#146,.F.);
#190=ORIENTED_EDGE('',*,*,#148,.T.);
#191=ORIENTED_EDGE('',*,*,#148,.F.);
#192=ORIENTED_EDGE('',*,*,#149,.T.);
#193=ORIENTED_EDGE('',*,*,#150,.T.);
#194=ORIENTED_EDGE('',*,*,#150,.F.);
#195=ORIENTED_EDGE('',*,*,#151,.F.);
#196=ORIENTED_EDGE('',*,*,#152,.T.);
#197=ORIENTED_EDGE('',*,*,#149,.F.);
#198=ORIENTED_EDGE('',*,*,#151,.T.);
#199=ORIENTED_EDGE('',*,*,#153,.F.);
#200=ORIENTED_EDGE('',*,*,#154,.T.);
#201=ORIENTED_EDGE('',*,*,#152,.F.);
#202=ORIENTED_EDGE('',*,*,#154,.F.);
#203=ORIENTED_EDGE('',*,*,#142,.F.);
#204=ORIENTED_EDGE('',*,*,#155,.F.);
#205=ORIENTED_EDGE('',*,*,#156,.F.);
#206=ORIENTED_EDGE('',*,*,#157,.T.);
#207=ORIENTED_EDGE('',*,*,#158,.F.);
#208=ORIENTED_EDGE('',*,*,#159,.F.);
#209=ORIENTED_EDGE('',*,*,#160,.F.);
#210=ORIENTED_EDGE('',*,*,#161,.T.);
#211=ORIENTED_EDGE('',*,*,#162,.F.);
#212=ORIENTED_EDGE('',*,*,#163,.F.);
#213=ORIENTED_EDGE('',*,*,#157,.F.);
#214=ORIENTED_EDGE('',*,*,#164,.F.);
#215=ORIENTED_EDGE('',*,*,#161,.F.);
#216=ORIENTED_EDGE('',*,*,#153,.T.);
#217=ORIENTED_EDGE('',*,*,#159,.T.);
#218=ORIENTED_EDGE('',*,*,#165,.T.);
#219=ORIENTED_EDGE('',*,*,#166,.T.);
#220=ORIENTED_EDGE('',*,*,#155,.T.);
#221=ORIENTED_EDGE('',*,*,#167,.T.);
#222=ORIENTED_EDGE('',*,*,#156,.T.);
#223=ORIENTED_EDGE('',*,*,#167,.F.);
#224=ORIENTED_EDGE('',*,*,#158,.T.);
#225=ORIENTED_EDGE('',*,*,#163,.T.);
#226=ORIENTED_EDGE('',*,*,#160,.T.);
#227=ORIENTED_EDGE('',*,*,#166,.F.);
#228=ORIENTED_EDGE('',*,*,#168,.T.);
#229=ORIENTED_EDGE('',*,*,#144,.T.);
#230=ORIENTED_EDGE('',*,*,#143,.T.);
#231=ORIENTED_EDGE('',*,*,#168,.F.);
#232=ORIENTED_EDGE('',*,*,#165,.F.);
#233=ORIENTED_EDGE('',*,*,#162,.T.);
#234=ORIENTED_EDGE('',*,*,#164,.T.);
#235=TOROIDAL_SURFACE('',#266,34.8739211404379,0.05);
#236=TOROIDAL_SURFACE('',#275,33.5195848928689,0.05);
#237=ADVANCED_FACE('',(#66),#235,.T.);
#238=ADVANCED_FACE('',(#67,#53),#58,.T.);
#239=ADVANCED_FACE('',(#68,#54),#51,.T.);
#240=ADVANCED_FACE('',(#69),#236,.T.);
#241=ADVANCED_FACE('',(#70,#55),#52,.F.);
#242=ADVANCED_FACE('',(#71,#56),#59,.F.);
#243=ADVANCED_FACE('',(#72),#21,.F.);
#244=ADVANCED_FACE('',(#73),#22,.F.);
#245=ADVANCED_FACE('',(#74),#60,.T.);
#246=ADVANCED_FACE('',(#75),#61,.F.);
#247=ADVANCED_FACE('',(#76),#62,.F.);
#248=ADVANCED_FACE('',(#77,#57),#63,.T.);
#249=ADVANCED_FACE('',(#78),#64,.T.);
#250=ADVANCED_FACE('',(#79),#65,.T.);
#251=ADVANCED_FACE('',(#80),#15,.F.);
#252=CLOSED_SHELL('',(#237,#238,#239,#240,#241,#242,#243,#244,#245,#246,
#247,#248,#249,#250,#251));
#253=DERIVED_UNIT_ELEMENT(#255,1.);
#254=DERIVED_UNIT_ELEMENT(#541,-3.);
#255=(
MASS_UNIT()
NAMED_UNIT(*)
SI_UNIT(.KILO.,.GRAM.)
);
#256=DERIVED_UNIT((#253,#254));
#257=MEASURE_REPRESENTATION_ITEM('density measure',
POSITIVE_RATIO_MEASURE(1100.),#256);
#258=PROPERTY_DEFINITION_REPRESENTATION(#263,#260);
#259=PROPERTY_DEFINITION_REPRESENTATION(#264,#261);
#260=REPRESENTATION('material name',(#262),#538);
#261=REPRESENTATION('density',(#257),#538);
#262=DESCRIPTIVE_REPRESENTATION_ITEM(
'PA 12 - Nylon - PA 603-CF (with EOS P 3D Printers)',
'PA 12 - Nylon - PA 603-CF (with EOS P 3D Printers)');
#263=PROPERTY_DEFINITION('material property','material name',#548);
#264=PROPERTY_DEFINITION('material property','density of part',#548);
#265=AXIS2_PLACEMENT_3D('',#373,#297,#298);
#266=AXIS2_PLACEMENT_3D('',#374,#299,#300);
#267=AXIS2_PLACEMENT_3D('',#376,#301,#302);
#268=AXIS2_PLACEMENT_3D('',#378,#303,#304);
#269=AXIS2_PLACEMENT_3D('',#380,#305,#306);
#270=AXIS2_PLACEMENT_3D('',#381,#307,#308);
#271=AXIS2_PLACEMENT_3D('',#382,#309,#310);
#272=AXIS2_PLACEMENT_3D('',#384,#311,#312);
#273=AXIS2_PLACEMENT_3D('',#385,#313,#314);
#274=AXIS2_PLACEMENT_3D('',#388,#316,#317);
#275=AXIS2_PLACEMENT_3D('',#439,#318,#319);
#276=AXIS2_PLACEMENT_3D('',#442,#320,#321);
#277=AXIS2_PLACEMENT_3D('',#443,#322,#323);
#278=AXIS2_PLACEMENT_3D('',#444,#324,#325);
#279=AXIS2_PLACEMENT_3D('',#445,#326,#327);
#280=AXIS2_PLACEMENT_3D('',#480,#329,#330);
#281=AXIS2_PLACEMENT_3D('',#481,#331,#332);
#282=AXIS2_PLACEMENT_3D('',#483,#333,#334);
#283=AXIS2_PLACEMENT_3D('',#484,#335,#336);
#284=AXIS2_PLACEMENT_3D('',#485,#337,#338);
#285=AXIS2_PLACEMENT_3D('',#487,#339,#340);
#286=AXIS2_PLACEMENT_3D('',#489,#342,#343);
#287=AXIS2_PLACEMENT_3D('',#490,#344,#345);
#288=AXIS2_PLACEMENT_3D('',#499,#350,#351);
#289=AXIS2_PLACEMENT_3D('',#508,#356,#357);
#290=AXIS2_PLACEMENT_3D('',#509,#358,#359);
#291=AXIS2_PLACEMENT_3D('',#510,#360,#361);
#292=AXIS2_PLACEMENT_3D('',#511,#362,#363);
#293=AXIS2_PLACEMENT_3D('',#513,#364,#365);
#294=AXIS2_PLACEMENT_3D('',#514,#366,#367);
#295=AXIS2_PLACEMENT_3D('',#515,#368,#369);
#296=AXIS2_PLACEMENT_3D('',#516,#370,#371);
#297=DIRECTION('axis',(0.,0.,1.));
#298=DIRECTION('refdir',(1.,0.,0.));
#299=DIRECTION('center_axis',(-4.1086505480261E-33,-1.,0.));
#300=DIRECTION('ref_axis',(0.,0.,-1.));
#301=DIRECTION('center_axis',(4.1086505480261E-33,1.,0.));
#302=DIRECTION('ref_axis',(-1.,4.1086505480261E-33,1.22464679914735E-16));
#303=DIRECTION('center_axis',(-1.,4.1086505480261E-33,-1.22464679914735E-16));
#304=DIRECTION('ref_axis',(-1.22464679914735E-16,0.,1.));
#305=DIRECTION('center_axis',(0.,-1.,0.));
#306=DIRECTION('ref_axis',(-1.,0.,0.));
#307=DIRECTION('center_axis',(0.,-1.,0.));
#308=DIRECTION('ref_axis',(-1.,0.,0.));
#309=DIRECTION('center_axis',(-4.1086505480261E-33,-1.,0.));
#310=DIRECTION('ref_axis',(0.,0.,-1.));
#311=DIRECTION('center_axis',(-4.1086505480261E-33,-1.,0.));
#312=DIRECTION('ref_axis',(-1.,4.1086505480261E-33,1.22464679914735E-16));
#313=DIRECTION('center_axis',(-4.1086505480261E-33,-1.,0.));
#314=DIRECTION('ref_axis',(1.,0.,0.));
#315=DIRECTION('',(0.728199992692803,0.685364699004991,8.91787790190367E-17));
#316=DIRECTION('center_axis',(-4.1086505480261E-33,-1.,0.));
#317=DIRECTION('ref_axis',(1.,-4.1086505480261E-33,0.));
#318=DIRECTION('center_axis',(-4.1086505480261E-33,-1.,0.));
#319=DIRECTION('ref_axis',(0.,0.,-1.));
#320=DIRECTION('center_axis',(0.,1.,0.));
#321=DIRECTION('ref_axis',(-1.,0.,0.));
#322=DIRECTION('center_axis',(0.,1.,0.));
#323=DIRECTION('ref_axis',(-1.,0.,0.));
#324=DIRECTION('center_axis',(-1.,4.1086505480261E-33,-1.22464679914735E-16));
#325=DIRECTION('ref_axis',(-1.22464679914735E-16,0.,1.));
#326=DIRECTION('center_axis',(-4.1086505480261E-33,-1.,0.));
#327=DIRECTION('ref_axis',(1.,0.,0.));
#328=DIRECTION('',(0.733962906461847,0.679189555233351,8.98845324091389E-17));
#329=DIRECTION('center_axis',(1.,0.,0.));
#330=DIRECTION('ref_axis',(0.,1.,0.));
#331=DIRECTION('center_axis',(1.,0.,0.));
#332=DIRECTION('ref_axis',(0.,1.,0.));
#333=DIRECTION('center_axis',(1.,0.,0.));
#334=DIRECTION('ref_axis',(0.,1.,0.));
#335=DIRECTION('center_axis',(1.,0.,0.));
#336=DIRECTION('ref_axis',(0.,1.,0.));
#337=DIRECTION('center_axis',(-1.,0.,0.));
#338=DIRECTION('ref_axis',(0.,1.,0.));
#339=DIRECTION('center_axis',(-1.,0.,0.));
#340=DIRECTION('ref_axis',(0.,1.,0.));
#341=DIRECTION('',(-1.,0.,0.));
#342=DIRECTION('center_axis',(4.1086505480261E-33,1.,0.));
#343=DIRECTION('ref_axis',(0.,0.,1.));
#344=DIRECTION('center_axis',(0.,-1.,0.));
#345=DIRECTION('ref_axis',(0.,0.,1.));
#346=DIRECTION('',(0.,0.,1.));
#347=DIRECTION('',(1.,0.,0.));
#348=DIRECTION('',(0.,0.,1.));
#349=DIRECTION('',(-1.,0.,0.));
#350=DIRECTION('center_axis',(0.,1.,0.));
#351=DIRECTION('ref_axis',(0.,0.,-1.));
#352=DIRECTION('',(0.,0.,-1.));
#353=DIRECTION('',(1.,0.,0.));
#354=DIRECTION('',(0.,0.,-1.));
#355=DIRECTION('',(-1.,0.,0.));
#356=DIRECTION('center_axis',(1.,0.,0.));
#357=DIRECTION('ref_axis',(0.,1.,0.));
#358=DIRECTION('center_axis',(-1.,0.,0.));
#359=DIRECTION('ref_axis',(0.,-1.,6.12323399573677E-17));
#360=DIRECTION('center_axis',(-1.,0.,0.));
#361=DIRECTION('ref_axis',(0.,-1.,6.12323399573677E-17));
#362=DIRECTION('center_axis',(1.,0.,0.));
#363=DIRECTION('ref_axis',(0.,1.,0.));
#364=DIRECTION('center_axis',(1.,0.,0.));
#365=DIRECTION('ref_axis',(0.,-1.,6.12323399573677E-17));
#366=DIRECTION('center_axis',(1.,0.,0.));
#367=DIRECTION('ref_axis',(0.,-1.,6.12323399573677E-17));
#368=DIRECTION('center_axis',(1.,0.,0.));
#369=DIRECTION('ref_axis',(0.,1.,0.));
#370=DIRECTION('center_axis',(1.,0.,0.));
#371=DIRECTION('ref_axis',(0.,-1.,6.12323399573677E-17));
#372=DIRECTION('',(-1.,0.,0.));
#373=CARTESIAN_POINT('',(0.,0.,0.));
#374=CARTESIAN_POINT('Origin',(2.05432527401296E-34,0.0499999999999989,
0.));
#375=CARTESIAN_POINT('',(-4.27082358983546E-15,8.77366084145012E-48,34.8739211404379));
#376=CARTESIAN_POINT('Origin',(-4.54370000715673E-48,0.,0.));
#377=CARTESIAN_POINT('',(-4.27502023825988E-15,0.0864099996346424,34.9081893753882));
#378=CARTESIAN_POINT('Origin',(-4.27082358983546E-15,0.0499999999999989,
34.8739211404379));
#379=CARTESIAN_POINT('',(-34.9081893753882,0.0864099996346357,-4.27502023825988E-15));
#380=CARTESIAN_POINT('Origin',(0.,0.0864099996346424,-4.27502023825988E-15));
#381=CARTESIAN_POINT('Origin',(0.,0.0864099996346424,-4.27502023825988E-15));
#382=CARTESIAN_POINT('Origin',(33.5,4.00593428432545E-31,0.));
#383=CARTESIAN_POINT('',(-4.10496523477998E-15,8.43293383075344E-48,33.5195848928689));
#384=CARTESIAN_POINT('Origin',(-4.54370000715673E-48,0.,0.));
#385=CARTESIAN_POINT('Origin',(6.57384087684176E-32,16.,0.));
#386=CARTESIAN_POINT('',(-0.999999999999999,32.,-1.22464679914735E-16));
#387=CARTESIAN_POINT('',(-18.,16.,-2.20436423846524E-15));
#388=CARTESIAN_POINT('Origin',(1.31476817536835E-31,32.,0.));
#389=CARTESIAN_POINT('',(23.6622686979566,10.5036855036855,-2.90426108958914));
#390=CARTESIAN_POINT('',(19.0625,15.,-5.51091059616309E-16));
#391=CARTESIAN_POINT('Ctrl Pts',(23.6622686979566,10.5036855036855,-2.90426108958914));
#392=CARTESIAN_POINT('Ctrl Pts',(23.0189119003597,11.1137416449135,-2.82529672070998));
#393=CARTESIAN_POINT('Ctrl Pts',(22.3202600253188,11.78262455124,-2.68741470815018));
#394=CARTESIAN_POINT('Ctrl Pts',(20.9780614368221,13.0861381649537,-2.23244552230098));
#395=CARTESIAN_POINT('Ctrl Pts',(20.3322768269876,13.7234019502051,-1.92962262696785));
#396=CARTESIAN_POINT('Ctrl Pts',(19.6202752801298,14.4361033626682,-1.28371013758926));
#397=CARTESIAN_POINT('Ctrl Pts',(19.4339177914431,14.6237834254969,-1.07606363779142));
#398=CARTESIAN_POINT('Ctrl Pts',(19.2248019890322,14.835269496288,-0.70962628981582));
#399=CARTESIAN_POINT('Ctrl Pts',(19.1667352681937,14.8941534671107,-0.578370559784793));
#400=CARTESIAN_POINT('Ctrl Pts',(19.0856034169567,14.9765038602231,-0.300192844389432));
#401=CARTESIAN_POINT('Ctrl Pts',(19.0625,15.,-0.153290825372861));
#402=CARTESIAN_POINT('Ctrl Pts',(19.0625,15.,2.42861286636753E-16));
#403=CARTESIAN_POINT('Ctrl Pts',(19.0625,15.,-1.73472347597681E-16));
#404=CARTESIAN_POINT('Ctrl Pts',(19.0625,15.,0.153290825372861));
#405=CARTESIAN_POINT('Ctrl Pts',(19.0856034169567,14.9765038602231,0.300192844389432));
#406=CARTESIAN_POINT('Ctrl Pts',(19.1667352681937,14.8941534671107,0.578370559784793));
#407=CARTESIAN_POINT('Ctrl Pts',(19.2248019890322,14.835269496288,0.709626289815821));
#408=CARTESIAN_POINT('Ctrl Pts',(19.4339177914431,14.6237834254969,1.07606363779142));
#409=CARTESIAN_POINT('Ctrl Pts',(19.6202752801298,14.4361033626682,1.28371013758926));
#410=CARTESIAN_POINT('Ctrl Pts',(20.3322768269876,13.7234019502051,1.92962262696785));
#411=CARTESIAN_POINT('Ctrl Pts',(20.9780614368221,13.0861381649537,2.23244552230098));
#412=CARTESIAN_POINT('Ctrl Pts',(22.3202600253188,11.78262455124,2.68741470815019));
#413=CARTESIAN_POINT('Ctrl Pts',(23.0189119003597,11.1137416449135,2.82529672070998));
#414=CARTESIAN_POINT('Ctrl Pts',(25.4021810693068,8.85383237194657,3.11781456850148));
#415=CARTESIAN_POINT('Ctrl Pts',(27.5219434212465,6.8962396230718,2.97955203729362));
#416=CARTESIAN_POINT('Ctrl Pts',(29.6059354639223,4.9971917807045,2.2445357905244));
#417=CARTESIAN_POINT('Ctrl Pts',(29.998873846405,4.64009464451531,2.07897633455591));
#418=CARTESIAN_POINT('Ctrl Pts',(30.7469903785617,3.96194882204167,1.65192211606953));
#419=CARTESIAN_POINT('Ctrl Pts',(31.1035618029355,3.63961707749426,1.3949194624657));
#420=CARTESIAN_POINT('Ctrl Pts',(31.4956689503815,3.28567358202254,0.925635138519812));
#421=CARTESIAN_POINT('Ctrl Pts',(31.6061564656949,3.18601538523318,0.763858445212694));
#422=CARTESIAN_POINT('Ctrl Pts',(31.7254840490486,3.0784275604065,0.492205279120551));
#423=CARTESIAN_POINT('Ctrl Pts',(31.7576557468927,3.04942931084874,0.396741382795326));
#424=CARTESIAN_POINT('Ctrl Pts',(31.8011762276058,3.01020397776032,0.20067868865945));
#425=CARTESIAN_POINT('Ctrl Pts',(31.8125,3.,0.10006971816547));
#426=CARTESIAN_POINT('Ctrl Pts',(31.8125,3.,-0.100069718165469));
#427=CARTESIAN_POINT('Ctrl Pts',(31.8011762276058,3.01020397776032,-0.200678688659449));
#428=CARTESIAN_POINT('Ctrl Pts',(31.7576557468927,3.04942931084874,-0.396741382795325));
#429=CARTESIAN_POINT('Ctrl Pts',(31.7254840490486,3.0784275604065,-0.49220527912055));
#430=CARTESIAN_POINT('Ctrl Pts',(31.6061564656949,3.18601538523318,-0.763858445212693));
#431=CARTESIAN_POINT('Ctrl Pts',(31.4956689503815,3.28567358202254,-0.925635138519811));
#432=CARTESIAN_POINT('Ctrl Pts',(31.1035618029355,3.63961707749426,-1.3949194624657));
#433=CARTESIAN_POINT('Ctrl Pts',(30.7469903785617,3.96194882204167,-1.65192211606953));
#434=CARTESIAN_POINT('Ctrl Pts',(29.998873846405,4.64009464451532,-2.07897633455591));
#435=CARTESIAN_POINT('Ctrl Pts',(29.6059354639223,4.9971917807045,-2.2445357905244));
#436=CARTESIAN_POINT('Ctrl Pts',(27.5219434212465,6.8962396230718,-2.97955203729362));
#437=CARTESIAN_POINT('Ctrl Pts',(25.4021810693068,8.85383237194657,-3.11781456850148));
#438=CARTESIAN_POINT('Ctrl Pts',(23.6622686979566,10.5036855036855,-2.90426108958914));
#439=CARTESIAN_POINT('Origin',(2.05432527401296E-34,0.0499999999999989,
0.));
#440=CARTESIAN_POINT('',(-4.10080639820583E-15,0.0133018546769081,33.4856254151072));
#441=CARTESIAN_POINT('',(-33.4856254151072,0.0133018546769015,-4.10080639820583E-15));
#442=CARTESIAN_POINT('Origin',(0.,0.0133018546769081,-4.10080639820583E-15));
#443=CARTESIAN_POINT('Origin',(0.,0.0133018546769081,-4.10080639820583E-15));
#444=CARTESIAN_POINT('Origin',(-4.10496523477998E-15,0.0499999999999989,
33.5195848928689));
#445=CARTESIAN_POINT('Origin',(6.36840834944046E-32,15.5,0.));
#446=CARTESIAN_POINT('',(1.23259516440783E-31,31.,0.));
#447=CARTESIAN_POINT('',(-16.75,15.5,-2.05128338857182E-15));
#448=CARTESIAN_POINT('',(25.55,7.25947898805227,-2.31960914961302));
#449=CARTESIAN_POINT('',(25.55,7.25947898805227,2.31960914961302));
#450=CARTESIAN_POINT('Ctrl Pts',(25.55,7.25947898805227,-2.31960914961302));
#451=CARTESIAN_POINT('Ctrl Pts',(25.2259823766738,7.54044876296501,-2.53043509718244));
#452=CARTESIAN_POINT('Ctrl Pts',(24.8642576374476,7.85762361147254,-2.68745772852141));
#453=CARTESIAN_POINT('Ctrl Pts',(24.0503225945092,8.58382812912642,-2.89966938033757));
#454=CARTESIAN_POINT('Ctrl Pts',(23.5948147424627,8.99878038049271,-2.92569060416258));
#455=CARTESIAN_POINT('Ctrl Pts',(23.1835452295033,9.38227272727273,-2.87469434235772));
#456=CARTESIAN_POINT('Ctrl Pts',(22.8355394683201,9.70677415965169,-2.83154260767358));
#457=CARTESIAN_POINT('Ctrl Pts',(22.4643003692021,10.0600548679072,-2.72606609402033));
#458=CARTESIAN_POINT('Ctrl Pts',(21.7796173541255,10.7282071439837,-2.35975684362173));
#459=CARTESIAN_POINT('Ctrl Pts',(21.4662246276548,11.042992972819,-2.09867208785146));
#460=CARTESIAN_POINT('Ctrl Pts',(21.0551534663159,11.4640348445437,-1.55429436627562));
#461=CARTESIAN_POINT('Ctrl Pts',(20.9022200523471,11.6235413234321,-1.2780906028132));
#462=CARTESIAN_POINT('Ctrl Pts',(20.6946183832802,11.8419708316985,-0.66308864757025));
#463=CARTESIAN_POINT('Ctrl Pts',(20.6403225806452,11.9,-0.32384771905532));
#464=CARTESIAN_POINT('Ctrl Pts',(20.6403225806452,11.9,0.323847719055319));
#465=CARTESIAN_POINT('Ctrl Pts',(20.6946183832802,11.8419708316985,0.663088647570249));
#466=CARTESIAN_POINT('Ctrl Pts',(20.9022200523471,11.6235413234321,1.2780906028132));
#467=CARTESIAN_POINT('Ctrl Pts',(21.0551534663159,11.4640348445437,1.55429436627562));
#468=CARTESIAN_POINT('Ctrl Pts',(21.4662246276548,11.042992972819,2.09867208785146));
#469=CARTESIAN_POINT('Ctrl Pts',(21.7796173541255,10.7282071439837,2.35975684362173));
#470=CARTESIAN_POINT('Ctrl Pts',(22.4643003692021,10.0600548679072,2.72606609402033));
#471=CARTESIAN_POINT('Ctrl Pts',(22.8355394683201,9.70677415965169,2.83154260767358));
#472=CARTESIAN_POINT('Ctrl Pts',(23.5948147424627,8.99878038049271,2.92569060416257));
#473=CARTESIAN_POINT('Ctrl Pts',(24.0503225945092,8.58382812912642,2.89966938033757));
#474=CARTESIAN_POINT('Ctrl Pts',(24.8642576374476,7.85762361147254,2.68745772852141));
#475=CARTESIAN_POINT('Ctrl Pts',(25.2259823766738,7.54044876296501,2.53043509718244));
#476=CARTESIAN_POINT('Ctrl Pts',(25.55,7.25947898805227,2.31960914961302));
#477=CARTESIAN_POINT('Ctrl Pts',(25.55,7.25947898805227,2.31960914961302));
#478=CARTESIAN_POINT('Ctrl Pts',(25.55,7.45355557859161,-8.32667268468867E-16));
#479=CARTESIAN_POINT('Ctrl Pts',(25.55,7.25947898805227,-2.31960914961302));
#480=CARTESIAN_POINT('Origin',(25.55,9.,-5.55111512312578E-16));
#481=CARTESIAN_POINT('Origin',(25.55,9.,-5.51091059616309E-16));
#482=CARTESIAN_POINT('',(25.55,7.5,-7.34788079488412E-16));
#483=CARTESIAN_POINT('Origin',(25.55,9.,-5.51091059616309E-16));
#484=CARTESIAN_POINT('Origin',(12.25,9.,-5.51091059616309E-16));
#485=CARTESIAN_POINT('Origin',(48.,9.,-5.51091059616309E-16));
#486=CARTESIAN_POINT('',(48.,7.5,-7.34788079488412E-16));
#487=CARTESIAN_POINT('Origin',(48.,9.,-5.51091059616309E-16));
#488=CARTESIAN_POINT('',(48.,7.5,-3.67394039744206E-16));
#489=CARTESIAN_POINT('Origin',(1.,32.,0.));
#490=CARTESIAN_POINT('Origin',(50.,6.,-2.59807621135332));
#491=CARTESIAN_POINT('',(50.,6.,-2.59807621135332));
#492=CARTESIAN_POINT('',(50.,6.,2.59807621135332));
#493=CARTESIAN_POINT('',(50.,6.,-1.29903810567666));
#494=CARTESIAN_POINT('',(48.,6.,-2.59807621135332));
#495=CARTESIAN_POINT('',(0.,6.,-2.59807621135332));
#496=CARTESIAN_POINT('',(48.,6.,2.59807621135332));
#497=CARTESIAN_POINT('',(48.,6.,-3.));
#498=CARTESIAN_POINT('',(0.,6.,2.59807621135332));
#499=CARTESIAN_POINT('Origin',(50.,12.,2.59807621135332));
#500=CARTESIAN_POINT('',(50.,12.,2.59807621135332));
#501=CARTESIAN_POINT('',(50.,12.,-2.59807621135332));
#502=CARTESIAN_POINT('',(50.,12.,1.29903810567666));
#503=CARTESIAN_POINT('',(48.,12.,2.59807621135332));
#504=CARTESIAN_POINT('',(0.,12.,2.59807621135332));
#505=CARTESIAN_POINT('',(48.,12.,-2.59807621135332));
#506=CARTESIAN_POINT('',(48.,12.,3.));
#507=CARTESIAN_POINT('',(0.,12.,-2.59807621135332));
#508=CARTESIAN_POINT('Origin',(48.,9.,-5.55111512312578E-16));
#509=CARTESIAN_POINT('Origin',(48.,9.,-5.51091059616309E-16));
#510=CARTESIAN_POINT('Origin',(48.,9.,-5.51091059616309E-16));
#511=CARTESIAN_POINT('Origin',(50.,9.,-5.55111512312578E-16));
#512=CARTESIAN_POINT('',(50.,15.,-5.51091059616309E-16));
#513=CARTESIAN_POINT('Origin',(50.,9.,-5.51091059616309E-16));
#514=CARTESIAN_POINT('Origin',(50.,9.,-5.51091059616309E-16));
#515=CARTESIAN_POINT('Origin',(50.,9.,-5.55111512312578E-16));
#516=CARTESIAN_POINT('Origin',(50.,9.,-5.51091059616309E-16));
#517=CARTESIAN_POINT('Ctrl Pts',(19.0625,15.,-9.18485099360515E-16));
#518=CARTESIAN_POINT('Ctrl Pts',(19.0625,15.,3.));
#519=CARTESIAN_POINT('Ctrl Pts',(19.0625,9.,3.));
#520=CARTESIAN_POINT('Ctrl Pts',(19.0625,3.,3.));
#521=CARTESIAN_POINT('Ctrl Pts',(19.0625,3.,-1.83697019872103E-16));
#522=CARTESIAN_POINT('Ctrl Pts',(19.0625,3.,-3.));
#523=CARTESIAN_POINT('Ctrl Pts',(19.0625,9.,-3.));
#524=CARTESIAN_POINT('Ctrl Pts',(19.0625,15.,-3.));
#525=CARTESIAN_POINT('Ctrl Pts',(19.0625,15.,-9.18485099360515E-16));
#526=CARTESIAN_POINT('Ctrl Pts',(50.,15.,-9.18485099360515E-16));
#527=CARTESIAN_POINT('Ctrl Pts',(50.,15.,3.));
#528=CARTESIAN_POINT('Ctrl Pts',(50.,9.,3.));
#529=CARTESIAN_POINT('Ctrl Pts',(50.,3.,3.));
#530=CARTESIAN_POINT('Ctrl Pts',(50.,3.,-1.83697019872103E-16));
#531=CARTESIAN_POINT('Ctrl Pts',(50.,3.,-3.));
#532=CARTESIAN_POINT('Ctrl Pts',(50.,9.,-3.));
#533=CARTESIAN_POINT('Ctrl Pts',(50.,15.,-3.));
#534=CARTESIAN_POINT('Ctrl Pts',(50.,15.,-9.18485099360515E-16));
#535=CARTESIAN_POINT('',(0.,15.,-5.51091059616309E-16));
#536=UNCERTAINTY_MEASURE_WITH_UNIT(LENGTH_MEASURE(0.01),#540,
'DISTANCE_ACCURACY_VALUE',
'Maximum model space distance between geometric entities at asserted c
onnectivities');
#537=UNCERTAINTY_MEASURE_WITH_UNIT(LENGTH_MEASURE(0.01),#540,
'DISTANCE_ACCURACY_VALUE',
'Maximum model space distance between geometric entities at asserted c
onnectivities');
#538=(
GEOMETRIC_REPRESENTATION_CONTEXT(3)
GLOBAL_UNCERTAINTY_ASSIGNED_CONTEXT((#536))
GLOBAL_UNIT_ASSIGNED_CONTEXT((#540,#542,#543))
REPRESENTATION_CONTEXT('','3D')
);
#539=(
GEOMETRIC_REPRESENTATION_CONTEXT(3)
GLOBAL_UNCERTAINTY_ASSIGNED_CONTEXT((#537))
GLOBAL_UNIT_ASSIGNED_CONTEXT((#540,#542,#543))
REPRESENTATION_CONTEXT('','3D')
);
#540=(
LENGTH_UNIT()
NAMED_UNIT(*)
SI_UNIT(.MILLI.,.METRE.)
);
#541=(
LENGTH_UNIT()
NAMED_UNIT(*)
SI_UNIT($,.METRE.)
);
#542=(
NAMED_UNIT(*)
PLANE_ANGLE_UNIT()
SI_UNIT($,.RADIAN.)
);
#543=(
NAMED_UNIT(*)
SI_UNIT($,.STERADIAN.)
SOLID_ANGLE_UNIT()
);
#544=SHAPE_DEFINITION_REPRESENTATION(#545,#546);
#545=PRODUCT_DEFINITION_SHAPE('',$,#548);
#546=SHAPE_REPRESENTATION('',(#265),#538);
#547=PRODUCT_DEFINITION_CONTEXT('part definition',#552,'design');
#548=PRODUCT_DEFINITION('Bigger cup (1)','Bigger cup (1)',#549,#547);
#549=PRODUCT_DEFINITION_FORMATION('',$,#554);
#550=PRODUCT_RELATED_PRODUCT_CATEGORY('Bigger cup (1)','Bigger cup (1)',
(#554));
#551=APPLICATION_PROTOCOL_DEFINITION('international standard',
'automotive_design',2009,#552);
#552=APPLICATION_CONTEXT(
'Core Data for Automotive Mechanical Design Process');
#553=PRODUCT_CONTEXT('part definition',#552,'mechanical');
#554=PRODUCT('Bigger cup (1)','Bigger cup (1)',$,(#553));
#555=PRESENTATION_STYLE_ASSIGNMENT((#557));
#556=PRESENTATION_STYLE_ASSIGNMENT((#558));
#557=SURFACE_STYLE_USAGE(.BOTH.,#559);
#558=SURFACE_STYLE_USAGE(.BOTH.,#560);
#559=SURFACE_SIDE_STYLE('',(#561));
#560=SURFACE_SIDE_STYLE('',(#562));
#561=SURFACE_STYLE_FILL_AREA(#563);
#562=SURFACE_STYLE_FILL_AREA(#564);
#563=FILL_AREA_STYLE(
'PA 12 - Nylon - PA 603-CF (with EOS P 3D Printers)',(#565));
#564=FILL_AREA_STYLE('ABS (White)',(#566));
#565=FILL_AREA_STYLE_COLOUR(
'PA 12 - Nylon - PA 603-CF (with EOS P 3D Printers)',#567);
#566=FILL_AREA_STYLE_COLOUR('ABS (White)',#568);
#567=COLOUR_RGB('PA 12 - Nylon - PA 603-CF (with EOS P 3D Printers)',0.247058823529412,
0.247058823529412,0.247058823529412);
#568=COLOUR_RGB('ABS (White)',0.996078431372549,0.313725490196078,0.);
ENDSEC;
END-ISO-10303-21;
