ISO-10303-21;
HEADER;
/* Generated by software containing ST-Developer
 * from STEP Tools, Inc. (www.steptools.com) 
 */

FILE_DESCRIPTION(
/* description */ (''),
/* implementation_level */ '2;1');

FILE_NAME(
/* name */ 'rotor cap.step',
/* time_stamp */ '2026-05-13T02:05:05+03:00',
/* author */ (''),
/* organization */ (''),
/* preprocessor_version */ 'ST-DEVELOPER v20.1',
/* originating_system */ 'Autodesk Translation Framework v15.8.0.0',
/* authorisation */ '');

FILE_SCHEMA (('AUTOMOTIVE_DESIGN { 1 0 10303 214 3 1 1 }'));
ENDSEC;

DATA;
#10=MECHANICAL_DESIGN_GEOMETRIC_PRESENTATION_REPRESENTATION('',(#13),#890);
#11=SHAPE_REPRESENTATION_RELATIONSHIP('SRR','None',#897,#12);
#12=ADVANCED_BREP_SHAPE_REPRESENTATION('',(#14),#889);
#13=STYLED_ITEM('',(#907),#14);
#14=MANIFOLD_SOLID_BREP('Body1',#329);
#15=PLANE('',#352);
#16=PLANE('',#353);
#17=PLANE('',#356);
#18=PLANE('',#357);
#19=PLANE('',#358);
#20=PLANE('',#360);
#21=PLANE('',#361);
#22=PLANE('',#363);
#23=PLANE('',#365);
#24=PLANE('',#371);
#25=PLANE('',#372);
#26=PLANE('',#373);
#27=LINE('',#704,#53);
#28=LINE('',#708,#54);
#29=LINE('',#712,#55);
#30=LINE('',#716,#56);
#31=LINE('',#720,#57);
#32=LINE('',#724,#58);
#33=LINE('',#728,#59);
#34=LINE('',#732,#60);
#35=LINE('',#734,#61);
#36=LINE('',#735,#62);
#37=LINE('',#738,#63);
#38=LINE('',#744,#64);
#39=LINE('',#745,#65);
#40=LINE('',#748,#66);
#41=LINE('',#750,#67);
#42=LINE('',#751,#68);
#43=LINE('',#754,#69);
#44=LINE('',#758,#70);
#45=LINE('',#759,#71);
#46=LINE('',#762,#72);
#47=LINE('',#769,#73);
#48=LINE('',#775,#74);
#49=LINE('',#777,#75);
#50=LINE('',#780,#76);
#51=LINE('',#782,#77);
#52=LINE('',#783,#78);
#53=VECTOR('',#380,30.);
#54=VECTOR('',#383,10.);
#55=VECTOR('',#386,10.);
#56=VECTOR('',#389,10.);
#57=VECTOR('',#392,10.);
#58=VECTOR('',#395,10.);
#59=VECTOR('',#398,10.);
#60=VECTOR('',#403,10.);
#61=VECTOR('',#404,10.);
#62=VECTOR('',#405,10.);
#63=VECTOR('',#408,10.);
#64=VECTOR('',#415,10.);
#65=VECTOR('',#416,10.);
#66=VECTOR('',#419,10.);
#67=VECTOR('',#420,10.);
#68=VECTOR('',#421,10.);
#69=VECTOR('',#424,10.);
#70=VECTOR('',#429,10.);
#71=VECTOR('',#430,10.);
#72=VECTOR('',#433,10.);
#73=VECTOR('',#444,10.);
#74=VECTOR('',#451,27.9);
#75=VECTOR('',#452,10.);
#76=VECTOR('',#455,10.);
#77=VECTOR('',#458,10.);
#78=VECTOR('',#459,10.);
#79=CYLINDRICAL_SURFACE('',#344,30.);
#80=CYLINDRICAL_SURFACE('',#367,27.9);
#81=(
BOUNDED_CURVE()
B_SPLINE_CURVE(5,(#692,#693,#694,#695,#696,#697,#698,#699,#700,#701),
 .UNSPECIFIED.,.F.,.F.)
B_SPLINE_CURVE_WITH_KNOTS((6,1,1,1,1,6),(0.00982240498603132,0.1,0.2,0.3,
0.4,0.5),.UNSPECIFIED.)
CURVE()
GEOMETRIC_REPRESENTATION_ITEM()
RATIONAL_B_SPLINE_CURVE((1.,1.,1.,1.,1.,1.,1.,1.,1.,1.))
REPRESENTATION_ITEM('')
);
#82=(
BOUNDED_CURVE()
B_SPLINE_CURVE(5,(#877,#878,#879,#880,#881,#882,#883,#884,#885,#886),
 .UNSPECIFIED.,.F.,.F.)
B_SPLINE_CURVE_WITH_KNOTS((6,1,1,1,1,6),(0.,0.1,0.2,0.3,0.4,0.5),
 .UNSPECIFIED.)
CURVE()
GEOMETRIC_REPRESENTATION_ITEM()
RATIONAL_B_SPLINE_CURVE((1.,1.,1.,1.,1.,1.,1.,1.,1.,1.))
REPRESENTATION_ITEM('')
);
#83=(
BOUNDED_SURFACE()
B_SPLINE_SURFACE(5,2,((#601,#602,#603,#604,#605,#606,#607,#608,#609),(#610,
#611,#612,#613,#614,#615,#616,#617,#618),(#619,#620,#621,#622,#623,#624,
#625,#626,#627),(#628,#629,#630,#631,#632,#633,#634,#635,#636),(#637,#638,
#639,#640,#641,#642,#643,#644,#645),(#646,#647,#648,#649,#650,#651,#652,
#653,#654),(#655,#656,#657,#658,#659,#660,#661,#662,#663),(#664,#665,#666,
#667,#668,#669,#670,#671,#672),(#673,#674,#675,#676,#677,#678,#679,#680,
#681),(#682,#683,#684,#685,#686,#687,#688,#689,#690)),.UNSPECIFIED.,.F.,
 .T.,.F.)
B_SPLINE_SURFACE_WITH_KNOTS((6,1,1,1,1,6),(3,2,2,2,3),(0.,0.1,0.2,0.3,0.4,
0.5),(0.,1.5707963267949,3.14159265358979,4.71238898038469,6.28318530717959),
 .UNSPECIFIED.)
GEOMETRIC_REPRESENTATION_ITEM()
RATIONAL_B_SPLINE_SURFACE(((1.,0.707106781186548,1.,0.707106781186548,1.,
0.707106781186548,1.,0.707106781186548,1.),(1.,0.707106781186548,1.,0.707106781186548,
1.,0.707106781186548,1.,0.707106781186548,1.),(1.,0.707106781186548,1.,
0.707106781186548,1.,0.707106781186548,1.,0.707106781186548,1.),(1.,0.707106781186548,
1.,0.707106781186548,1.,0.707106781186548,1.,0.707106781186548,1.),(1.,
0.707106781186548,1.,0.707106781186548,1.,0.707106781186548,1.,0.707106781186548,
1.),(1.,0.707106781186548,1.,0.707106781186548,1.,0.707106781186548,1.,
0.707106781186548,1.),(1.,0.707106781186548,1.,0.707106781186548,1.,0.707106781186548,
1.,0.707106781186548,1.),(1.,0.707106781186548,1.,0.707106781186548,1.,
0.707106781186548,1.,0.707106781186548,1.),(1.,0.707106781186548,1.,0.707106781186548,
1.,0.707106781186548,1.,0.707106781186548,1.),(1.,0.707106781186548,1.,
0.707106781186548,1.,0.707106781186548,1.,0.707106781186548,1.)))
REPRESENTATION_ITEM('')
SURFACE()
);
#84=(
BOUNDED_SURFACE()
B_SPLINE_SURFACE(5,2,((#786,#787,#788,#789,#790,#791,#792,#793,#794),(#795,
#796,#797,#798,#799,#800,#801,#802,#803),(#804,#805,#806,#807,#808,#809,
#810,#811,#812),(#813,#814,#815,#816,#817,#818,#819,#820,#821),(#822,#823,
#824,#825,#826,#827,#828,#829,#830),(#831,#832,#833,#834,#835,#836,#837,
#838,#839),(#840,#841,#842,#843,#844,#845,#846,#847,#848),(#849,#850,#851,
#852,#853,#854,#855,#856,#857),(#858,#859,#860,#861,#862,#863,#864,#865,
#866),(#867,#868,#869,#870,#871,#872,#873,#874,#875)),.UNSPECIFIED.,.F.,
 .T.,.F.)
B_SPLINE_SURFACE_WITH_KNOTS((6,1,1,1,1,6),(3,2,2,2,3),(-0.5,-0.4,-0.3,-0.2,
-0.1,0.),(0.,1.5707963267949,3.14159265358979,4.71238898038469,6.28318530717959),
 .UNSPECIFIED.)
GEOMETRIC_REPRESENTATION_ITEM()
RATIONAL_B_SPLINE_SURFACE(((1.,0.707106781186548,1.,0.707106781186548,1.,
0.707106781186548,1.,0.707106781186548,1.),(1.,0.707106781186548,1.,0.707106781186548,
1.,0.707106781186548,1.,0.707106781186548,1.),(1.,0.707106781186548,1.,
0.707106781186548,1.,0.707106781186548,1.,0.707106781186548,1.),(1.,0.707106781186548,
1.,0.707106781186548,1.,0.707106781186548,1.,0.707106781186548,1.),(1.,
0.707106781186548,1.,0.707106781186548,1.,0.707106781186548,1.,0.707106781186548,
1.),(1.,0.707106781186548,1.,0.707106781186548,1.,0.707106781186548,1.,
0.707106781186548,1.),(1.,0.707106781186548,1.,0.707106781186548,1.,0.707106781186548,
1.,0.707106781186548,1.),(1.,0.707106781186548,1.,0.707106781186548,1.,
0.707106781186548,1.,0.707106781186548,1.),(1.,0.707106781186548,1.,0.707106781186548,
1.,0.707106781186548,1.,0.707106781186548,1.),(1.,0.707106781186548,1.,
0.707106781186548,1.,0.707106781186548,1.,0.707106781186548,1.)))
REPRESENTATION_ITEM('')
SURFACE()
);
#85=FACE_OUTER_BOUND('',#102,.T.);
#86=FACE_OUTER_BOUND('',#103,.T.);
#87=FACE_OUTER_BOUND('',#104,.T.);
#88=FACE_OUTER_BOUND('',#105,.T.);
#89=FACE_OUTER_BOUND('',#106,.T.);
#90=FACE_OUTER_BOUND('',#107,.T.);
#91=FACE_OUTER_BOUND('',#108,.T.);
#92=FACE_OUTER_BOUND('',#109,.T.);
#93=FACE_OUTER_BOUND('',#110,.T.);
#94=FACE_OUTER_BOUND('',#111,.T.);
#95=FACE_OUTER_BOUND('',#112,.T.);
#96=FACE_OUTER_BOUND('',#113,.T.);
#97=FACE_OUTER_BOUND('',#114,.T.);
#98=FACE_OUTER_BOUND('',#115,.T.);
#99=FACE_OUTER_BOUND('',#116,.T.);
#100=FACE_OUTER_BOUND('',#117,.T.);
#101=FACE_OUTER_BOUND('',#118,.T.);
#102=EDGE_LOOP('',(#217,#218,#219,#220));
#103=EDGE_LOOP('',(#221,#222,#223));
#104=EDGE_LOOP('',(#224,#225,#226,#227,#228,#229,#230,#231,#232,#233,#234,
#235,#236,#237,#238,#239));
#105=EDGE_LOOP('',(#240,#241,#242,#243));
#106=EDGE_LOOP('',(#244,#245,#246,#247,#248));
#107=EDGE_LOOP('',(#249,#250,#251,#252));
#108=EDGE_LOOP('',(#253,#254,#255,#256));
#109=EDGE_LOOP('',(#257,#258,#259,#260));
#110=EDGE_LOOP('',(#261,#262,#263,#264));
#111=EDGE_LOOP('',(#265,#266,#267,#268,#269));
#112=EDGE_LOOP('',(#270,#271,#272,#273));
#113=EDGE_LOOP('',(#274,#275,#276,#277));
#114=EDGE_LOOP('',(#278,#279,#280,#281,#282,#283,#284,#285,#286,#287,#288,
#289,#290,#291,#292,#293,#294));
#115=EDGE_LOOP('',(#295,#296,#297,#298));
#116=EDGE_LOOP('',(#299,#300,#301,#302));
#117=EDGE_LOOP('',(#303,#304,#305,#306));
#118=EDGE_LOOP('',(#307,#308,#309,#310));
#119=B_SPLINE_CURVE_WITH_KNOTS('',3,(#563,#564,#565,#566,#567,#568,#569,
#570,#571,#572,#573,#574,#575,#576,#577,#578,#579,#580,#581),
 .UNSPECIFIED.,.T.,.F.,(4,1,1,1,1,1,1,1,1,1,1,1,1,1,1,1,4),(-3.14159265358979,
-2.69279370307697,-2.24399475256414,-1.79519580205131,-1.34639685153848,
-1.0471975511966,-0.448798950512828,-0.299199300341885,-0.149599650170943,
0.448798950512828,0.747998250854713,1.0471975511966,1.34639685153848,1.64559615188037,
2.24399475256414,2.69279370307697,3.14159265358979),.UNSPECIFIED.);
#120=B_SPLINE_CURVE_WITH_KNOTS('',3,(#582,#583,#584,#585,#586,#587,#588,
#589,#590,#591,#592,#593,#594,#595,#596,#597,#598,#599,#600),
 .UNSPECIFIED.,.T.,.F.,(4,1,1,1,1,1,1,1,1,1,1,1,1,1,1,1,4),(-3.14159265358979,
-2.69279370307697,-2.24399475256414,-1.64559615188037,-1.34639685153848,
-1.0471975511966,-0.747998250854713,-0.448798950512828,0.149599650170943,
0.299199300341885,0.448798950512828,1.0471975511966,1.34639685153848,1.79519580205131,
2.24399475256414,2.69279370307697,3.14159265358979),.UNSPECIFIED.);
#121=CIRCLE('',#343,0.999999999999998);
#122=CIRCLE('',#345,30.);
#123=CIRCLE('',#346,30.);
#124=CIRCLE('',#347,30.);
#125=CIRCLE('',#348,30.);
#126=CIRCLE('',#349,30.);
#127=CIRCLE('',#350,30.);
#128=CIRCLE('',#351,30.);
#129=CIRCLE('',#354,27.9);
#130=CIRCLE('',#355,27.9);
#131=CIRCLE('',#359,27.9);
#132=CIRCLE('',#362,27.9);
#133=CIRCLE('',#364,27.9);
#134=CIRCLE('',#366,27.9);
#135=CIRCLE('',#368,27.9);
#136=CIRCLE('',#369,27.9);
#137=CIRCLE('',#370,27.9);
#138=VERTEX_POINT('',#560);
#139=VERTEX_POINT('',#561);
#140=VERTEX_POINT('',#691);
#141=VERTEX_POINT('',#703);
#142=VERTEX_POINT('',#705);
#143=VERTEX_POINT('',#707);
#144=VERTEX_POINT('',#709);
#145=VERTEX_POINT('',#711);
#146=VERTEX_POINT('',#713);
#147=VERTEX_POINT('',#715);
#148=VERTEX_POINT('',#717);
#149=VERTEX_POINT('',#719);
#150=VERTEX_POINT('',#721);
#151=VERTEX_POINT('',#723);
#152=VERTEX_POINT('',#725);
#153=VERTEX_POINT('',#727);
#154=VERTEX_POINT('',#731);
#155=VERTEX_POINT('',#733);
#156=VERTEX_POINT('',#737);
#157=VERTEX_POINT('',#739);
#158=VERTEX_POINT('',#743);
#159=VERTEX_POINT('',#747);
#160=VERTEX_POINT('',#749);
#161=VERTEX_POINT('',#753);
#162=VERTEX_POINT('',#757);
#163=VERTEX_POINT('',#761);
#164=VERTEX_POINT('',#767);
#165=VERTEX_POINT('',#771);
#166=VERTEX_POINT('',#772);
#167=VERTEX_POINT('',#776);
#168=VERTEX_POINT('',#778);
#169=VERTEX_POINT('',#876);
#170=EDGE_CURVE('',#138,#139,#121,.T.);
#171=EDGE_CURVE('',#139,#139,#119,.T.);
#172=EDGE_CURVE('',#138,#138,#120,.T.);
#173=EDGE_CURVE('',#138,#140,#81,.T.);
#174=EDGE_CURVE('',#139,#141,#27,.T.);
#175=EDGE_CURVE('',#141,#142,#122,.T.);
#176=EDGE_CURVE('',#142,#143,#28,.T.);
#177=EDGE_CURVE('',#143,#144,#123,.T.);
#178=EDGE_CURVE('',#144,#145,#29,.T.);
#179=EDGE_CURVE('',#145,#146,#124,.T.);
#180=EDGE_CURVE('',#146,#147,#30,.T.);
#181=EDGE_CURVE('',#147,#148,#125,.T.);
#182=EDGE_CURVE('',#148,#149,#31,.T.);
#183=EDGE_CURVE('',#149,#150,#126,.T.);
#184=EDGE_CURVE('',#150,#151,#32,.T.);
#185=EDGE_CURVE('',#151,#152,#127,.T.);
#186=EDGE_CURVE('',#152,#153,#33,.T.);
#187=EDGE_CURVE('',#153,#141,#128,.T.);
#188=EDGE_CURVE('',#148,#154,#34,.T.);
#189=EDGE_CURVE('',#155,#154,#35,.T.);
#190=EDGE_CURVE('',#149,#155,#36,.T.);
#191=EDGE_CURVE('',#156,#147,#37,.T.);
#192=EDGE_CURVE('',#157,#156,#129,.T.);
#193=EDGE_CURVE('',#154,#157,#130,.T.);
#194=EDGE_CURVE('',#158,#146,#38,.T.);
#195=EDGE_CURVE('',#156,#158,#39,.T.);
#196=EDGE_CURVE('',#144,#159,#40,.T.);
#197=EDGE_CURVE('',#160,#159,#41,.T.);
#198=EDGE_CURVE('',#145,#160,#42,.T.);
#199=EDGE_CURVE('',#161,#143,#43,.T.);
#200=EDGE_CURVE('',#159,#161,#131,.T.);
#201=EDGE_CURVE('',#162,#142,#44,.T.);
#202=EDGE_CURVE('',#161,#162,#45,.T.);
#203=EDGE_CURVE('',#153,#163,#46,.T.);
#204=EDGE_CURVE('',#162,#163,#132,.T.);
#205=EDGE_CURVE('',#158,#160,#133,.T.);
#206=EDGE_CURVE('',#164,#155,#134,.T.);
#207=EDGE_CURVE('',#164,#150,#47,.T.);
#208=EDGE_CURVE('',#165,#166,#135,.T.);
#209=EDGE_CURVE('',#166,#165,#136,.T.);
#210=EDGE_CURVE('',#166,#157,#48,.T.);
#211=EDGE_CURVE('',#163,#167,#49,.T.);
#212=EDGE_CURVE('',#167,#168,#137,.T.);
#213=EDGE_CURVE('',#168,#164,#50,.T.);
#214=EDGE_CURVE('',#152,#167,#51,.T.);
#215=EDGE_CURVE('',#168,#151,#52,.T.);
#216=EDGE_CURVE('',#165,#169,#82,.T.);
#217=ORIENTED_EDGE('',*,*,#170,.T.);
#218=ORIENTED_EDGE('',*,*,#171,.T.);
#219=ORIENTED_EDGE('',*,*,#170,.F.);
#220=ORIENTED_EDGE('',*,*,#172,.T.);
#221=ORIENTED_EDGE('',*,*,#172,.F.);
#222=ORIENTED_EDGE('',*,*,#173,.T.);
#223=ORIENTED_EDGE('',*,*,#173,.F.);
#224=ORIENTED_EDGE('',*,*,#171,.F.);
#225=ORIENTED_EDGE('',*,*,#174,.T.);
#226=ORIENTED_EDGE('',*,*,#175,.T.);
#227=ORIENTED_EDGE('',*,*,#176,.T.);
#228=ORIENTED_EDGE('',*,*,#177,.T.);
#229=ORIENTED_EDGE('',*,*,#178,.T.);
#230=ORIENTED_EDGE('',*,*,#179,.T.);
#231=ORIENTED_EDGE('',*,*,#180,.T.);
#232=ORIENTED_EDGE('',*,*,#181,.T.);
#233=ORIENTED_EDGE('',*,*,#182,.T.);
#234=ORIENTED_EDGE('',*,*,#183,.T.);
#235=ORIENTED_EDGE('',*,*,#184,.T.);
#236=ORIENTED_EDGE('',*,*,#185,.T.);
#237=ORIENTED_EDGE('',*,*,#186,.T.);
#238=ORIENTED_EDGE('',*,*,#187,.T.);
#239=ORIENTED_EDGE('',*,*,#174,.F.);
#240=ORIENTED_EDGE('',*,*,#182,.F.);
#241=ORIENTED_EDGE('',*,*,#188,.T.);
#242=ORIENTED_EDGE('',*,*,#189,.F.);
#243=ORIENTED_EDGE('',*,*,#190,.F.);
#244=ORIENTED_EDGE('',*,*,#181,.F.);
#245=ORIENTED_EDGE('',*,*,#191,.F.);
#246=ORIENTED_EDGE('',*,*,#192,.F.);
#247=ORIENTED_EDGE('',*,*,#193,.F.);
#248=ORIENTED_EDGE('',*,*,#188,.F.);
#249=ORIENTED_EDGE('',*,*,#180,.F.);
#250=ORIENTED_EDGE('',*,*,#194,.F.);
#251=ORIENTED_EDGE('',*,*,#195,.F.);
#252=ORIENTED_EDGE('',*,*,#191,.T.);
#253=ORIENTED_EDGE('',*,*,#178,.F.);
#254=ORIENTED_EDGE('',*,*,#196,.T.);
#255=ORIENTED_EDGE('',*,*,#197,.F.);
#256=ORIENTED_EDGE('',*,*,#198,.F.);
#257=ORIENTED_EDGE('',*,*,#177,.F.);
#258=ORIENTED_EDGE('',*,*,#199,.F.);
#259=ORIENTED_EDGE('',*,*,#200,.F.);
#260=ORIENTED_EDGE('',*,*,#196,.F.);
#261=ORIENTED_EDGE('',*,*,#176,.F.);
#262=ORIENTED_EDGE('',*,*,#201,.F.);
#263=ORIENTED_EDGE('',*,*,#202,.F.);
#264=ORIENTED_EDGE('',*,*,#199,.T.);
#265=ORIENTED_EDGE('',*,*,#201,.T.);
#266=ORIENTED_EDGE('',*,*,#175,.F.);
#267=ORIENTED_EDGE('',*,*,#187,.F.);
#268=ORIENTED_EDGE('',*,*,#203,.T.);
#269=ORIENTED_EDGE('',*,*,#204,.F.);
#270=ORIENTED_EDGE('',*,*,#194,.T.);
#271=ORIENTED_EDGE('',*,*,#179,.F.);
#272=ORIENTED_EDGE('',*,*,#198,.T.);
#273=ORIENTED_EDGE('',*,*,#205,.F.);
#274=ORIENTED_EDGE('',*,*,#190,.T.);
#275=ORIENTED_EDGE('',*,*,#206,.F.);
#276=ORIENTED_EDGE('',*,*,#207,.T.);
#277=ORIENTED_EDGE('',*,*,#183,.F.);
#278=ORIENTED_EDGE('',*,*,#208,.F.);
#279=ORIENTED_EDGE('',*,*,#209,.F.);
#280=ORIENTED_EDGE('',*,*,#210,.T.);
#281=ORIENTED_EDGE('',*,*,#192,.T.);
#282=ORIENTED_EDGE('',*,*,#195,.T.);
#283=ORIENTED_EDGE('',*,*,#205,.T.);
#284=ORIENTED_EDGE('',*,*,#197,.T.);
#285=ORIENTED_EDGE('',*,*,#200,.T.);
#286=ORIENTED_EDGE('',*,*,#202,.T.);
#287=ORIENTED_EDGE('',*,*,#204,.T.);
#288=ORIENTED_EDGE('',*,*,#211,.T.);
#289=ORIENTED_EDGE('',*,*,#212,.T.);
#290=ORIENTED_EDGE('',*,*,#213,.T.);
#291=ORIENTED_EDGE('',*,*,#206,.T.);
#292=ORIENTED_EDGE('',*,*,#189,.T.);
#293=ORIENTED_EDGE('',*,*,#193,.T.);
#294=ORIENTED_EDGE('',*,*,#210,.F.);
#295=ORIENTED_EDGE('',*,*,#212,.F.);
#296=ORIENTED_EDGE('',*,*,#214,.F.);
#297=ORIENTED_EDGE('',*,*,#185,.F.);
#298=ORIENTED_EDGE('',*,*,#215,.F.);
#299=ORIENTED_EDGE('',*,*,#213,.F.);
#300=ORIENTED_EDGE('',*,*,#215,.T.);
#301=ORIENTED_EDGE('',*,*,#184,.F.);
#302=ORIENTED_EDGE('',*,*,#207,.F.);
#303=ORIENTED_EDGE('',*,*,#211,.F.);
#304=ORIENTED_EDGE('',*,*,#203,.F.);
#305=ORIENTED_EDGE('',*,*,#186,.F.);
#306=ORIENTED_EDGE('',*,*,#214,.T.);
#307=ORIENTED_EDGE('',*,*,#216,.F.);
#308=ORIENTED_EDGE('',*,*,#208,.T.);
#309=ORIENTED_EDGE('',*,*,#209,.T.);
#310=ORIENTED_EDGE('',*,*,#216,.T.);
#311=B_SPLINE_SURFACE_WITH_KNOTS('',3,3,((#465,#466,#467,#468,#469,#470,
#471,#472,#473,#474,#475,#476,#477,#478,#479,#480,#481,#482,#483),(#484,
#485,#486,#487,#488,#489,#490,#491,#492,#493,#494,#495,#496,#497,#498,#499,
#500,#501,#502),(#503,#504,#505,#506,#507,#508,#509,#510,#511,#512,#513,
#514,#515,#516,#517,#518,#519,#520,#521),(#522,#523,#524,#525,#526,#527,
#528,#529,#530,#531,#532,#533,#534,#535,#536,#537,#538,#539,#540),(#541,
#542,#543,#544,#545,#546,#547,#548,#549,#550,#551,#552,#553,#554,#555,#556,
#557,#558,#559)),.UNSPECIFIED.,.F.,.T.,.F.,(4,1,4),(4,1,1,1,1,1,1,1,1,1,
1,1,1,1,1,1,4),(0.,0.5,1.),(-3.14159265358979,-2.69279370307697,-2.24399475256414,
-1.79519580205131,-1.34639685153848,-1.0471975511966,-0.448798950512828,
-0.299199300341885,-0.149599650170943,0.448798950512828,0.747998250854713,
1.0471975511966,1.34639685153848,1.64559615188037,2.24399475256414,2.69279370307697,
3.14159265358979),.UNSPECIFIED.);
#312=ADVANCED_FACE('',(#85),#311,.F.);
#313=ADVANCED_FACE('',(#86),#83,.T.);
#314=ADVANCED_FACE('',(#87),#79,.T.);
#315=ADVANCED_FACE('',(#88),#15,.F.);
#316=ADVANCED_FACE('',(#89),#16,.F.);
#317=ADVANCED_FACE('',(#90),#17,.F.);
#318=ADVANCED_FACE('',(#91),#18,.F.);
#319=ADVANCED_FACE('',(#92),#19,.F.);
#320=ADVANCED_FACE('',(#93),#20,.F.);
#321=ADVANCED_FACE('',(#94),#21,.F.);
#322=ADVANCED_FACE('',(#95),#22,.F.);
#323=ADVANCED_FACE('',(#96),#23,.F.);
#324=ADVANCED_FACE('',(#97),#80,.F.);
#325=ADVANCED_FACE('',(#98),#24,.F.);
#326=ADVANCED_FACE('',(#99),#25,.F.);
#327=ADVANCED_FACE('',(#100),#26,.F.);
#328=ADVANCED_FACE('',(#101),#84,.T.);
#329=CLOSED_SHELL('',(#312,#313,#314,#315,#316,#317,#318,#319,#320,#321,
#322,#323,#324,#325,#326,#327,#328));
#330=DERIVED_UNIT_ELEMENT(#332,1.);
#331=DERIVED_UNIT_ELEMENT(#892,-3.);
#332=(
MASS_UNIT()
NAMED_UNIT(*)
SI_UNIT(.KILO.,.GRAM.)
);
#333=DERIVED_UNIT((#330,#331));
#334=MEASURE_REPRESENTATION_ITEM('density measure',
POSITIVE_RATIO_MEASURE(1100.),#333);
#335=PROPERTY_DEFINITION_REPRESENTATION(#340,#337);
#336=PROPERTY_DEFINITION_REPRESENTATION(#341,#338);
#337=REPRESENTATION('material name',(#339),#889);
#338=REPRESENTATION('density',(#334),#889);
#339=DESCRIPTIVE_REPRESENTATION_ITEM(
'PA 12 - Nylon - PA 603-CF (with EOS P 3D Printers)',
'PA 12 - Nylon - PA 603-CF (with EOS P 3D Printers)');
#340=PROPERTY_DEFINITION('material property','material name',#899);
#341=PROPERTY_DEFINITION('material property','density of part',#899);
#342=AXIS2_PLACEMENT_3D('',#464,#374,#375);
#343=AXIS2_PLACEMENT_3D('',#562,#376,#377);
#344=AXIS2_PLACEMENT_3D('',#702,#378,#379);
#345=AXIS2_PLACEMENT_3D('',#706,#381,#382);
#346=AXIS2_PLACEMENT_3D('',#710,#384,#385);
#347=AXIS2_PLACEMENT_3D('',#714,#387,#388);
#348=AXIS2_PLACEMENT_3D('',#718,#390,#391);
#349=AXIS2_PLACEMENT_3D('',#722,#393,#394);
#350=AXIS2_PLACEMENT_3D('',#726,#396,#397);
#351=AXIS2_PLACEMENT_3D('',#729,#399,#400);
#352=AXIS2_PLACEMENT_3D('',#730,#401,#402);
#353=AXIS2_PLACEMENT_3D('',#736,#406,#407);
#354=AXIS2_PLACEMENT_3D('',#740,#409,#410);
#355=AXIS2_PLACEMENT_3D('',#741,#411,#412);
#356=AXIS2_PLACEMENT_3D('',#742,#413,#414);
#357=AXIS2_PLACEMENT_3D('',#746,#417,#418);
#358=AXIS2_PLACEMENT_3D('',#752,#422,#423);
#359=AXIS2_PLACEMENT_3D('',#755,#425,#426);
#360=AXIS2_PLACEMENT_3D('',#756,#427,#428);
#361=AXIS2_PLACEMENT_3D('',#760,#431,#432);
#362=AXIS2_PLACEMENT_3D('',#763,#434,#435);
#363=AXIS2_PLACEMENT_3D('',#764,#436,#437);
#364=AXIS2_PLACEMENT_3D('',#765,#438,#439);
#365=AXIS2_PLACEMENT_3D('',#766,#440,#441);
#366=AXIS2_PLACEMENT_3D('',#768,#442,#443);
#367=AXIS2_PLACEMENT_3D('',#770,#445,#446);
#368=AXIS2_PLACEMENT_3D('',#773,#447,#448);
#369=AXIS2_PLACEMENT_3D('',#774,#449,#450);
#370=AXIS2_PLACEMENT_3D('',#779,#453,#454);
#371=AXIS2_PLACEMENT_3D('',#781,#456,#457);
#372=AXIS2_PLACEMENT_3D('',#784,#460,#461);
#373=AXIS2_PLACEMENT_3D('',#785,#462,#463);
#374=DIRECTION('axis',(0.,0.,1.));
#375=DIRECTION('refdir',(1.,0.,0.));
#376=DIRECTION('center_axis',(2.22044604925031E-15,-1.,6.95645633732377E-16));
#377=DIRECTION('ref_axis',(-0.41065570083954,-2.7755575615629E-16,0.911790488746174));
#378=DIRECTION('center_axis',(0.,0.,1.));
#379=DIRECTION('ref_axis',(1.,0.,0.));
#380=DIRECTION('',(0.,0.,-1.));
#381=DIRECTION('center_axis',(0.,0.,1.));
#382=DIRECTION('ref_axis',(1.,0.,0.));
#383=DIRECTION('',(0.,0.,1.));
#384=DIRECTION('center_axis',(0.,0.,1.));
#385=DIRECTION('ref_axis',(1.,0.,0.));
#386=DIRECTION('',(0.,0.,-1.));
#387=DIRECTION('center_axis',(0.,0.,1.));
#388=DIRECTION('ref_axis',(1.,0.,0.));
#389=DIRECTION('',(0.,0.,1.));
#390=DIRECTION('center_axis',(0.,0.,1.));
#391=DIRECTION('ref_axis',(1.,0.,0.));
#392=DIRECTION('',(0.,0.,-1.));
#393=DIRECTION('center_axis',(0.,0.,1.));
#394=DIRECTION('ref_axis',(1.,0.,0.));
#395=DIRECTION('',(0.,0.,1.));
#396=DIRECTION('center_axis',(0.,0.,1.));
#397=DIRECTION('ref_axis',(1.,0.,0.));
#398=DIRECTION('',(0.,0.,-1.));
#399=DIRECTION('center_axis',(0.,0.,1.));
#400=DIRECTION('ref_axis',(1.,0.,0.));
#401=DIRECTION('center_axis',(8.32667268468867E-16,1.,0.));
#402=DIRECTION('ref_axis',(-1.,8.32667268468867E-16,0.));
#403=DIRECTION('',(-1.,8.32667268468867E-16,0.));
#404=DIRECTION('',(0.,0.,1.));
#405=DIRECTION('',(-1.,8.32667268468867E-16,0.));
#406=DIRECTION('center_axis',(0.,0.,1.));
#407=DIRECTION('ref_axis',(-0.5,-0.866025403784438,0.));
#408=DIRECTION('',(1.,-1.77635683940025E-15,0.));
#409=DIRECTION('center_axis',(0.,0.,-1.));
#410=DIRECTION('ref_axis',(-1.,0.,0.));
#411=DIRECTION('center_axis',(0.,0.,-1.));
#412=DIRECTION('ref_axis',(-1.,0.,0.));
#413=DIRECTION('center_axis',(-1.77635683940025E-15,-1.,0.));
#414=DIRECTION('ref_axis',(1.,-1.77635683940025E-15,0.));
#415=DIRECTION('',(1.,-1.77635683940025E-15,0.));
#416=DIRECTION('',(0.,0.,-1.));
#417=DIRECTION('center_axis',(0.866025403784438,-0.500000000000001,0.));
#418=DIRECTION('ref_axis',(0.500000000000001,0.866025403784438,0.));
#419=DIRECTION('',(0.500000000000001,0.866025403784438,0.));
#420=DIRECTION('',(0.,0.,1.));
#421=DIRECTION('',(0.500000000000001,0.866025403784438,0.));
#422=DIRECTION('center_axis',(0.,0.,1.));
#423=DIRECTION('ref_axis',(-0.5,0.866025403784439,0.));
#424=DIRECTION('',(-0.500000000000001,-0.866025403784438,0.));
#425=DIRECTION('center_axis',(0.,0.,-1.));
#426=DIRECTION('ref_axis',(-1.,0.,0.));
#427=DIRECTION('center_axis',(-0.866025403784438,0.500000000000001,0.));
#428=DIRECTION('ref_axis',(-0.500000000000001,-0.866025403784438,0.));
#429=DIRECTION('',(-0.500000000000001,-0.866025403784438,0.));
#430=DIRECTION('',(0.,0.,-1.));
#431=DIRECTION('center_axis',(0.,0.,1.));
#432=DIRECTION('ref_axis',(1.,0.,0.));
#433=DIRECTION('',(0.5,-0.866025403784439,0.));
#434=DIRECTION('center_axis',(0.,0.,-1.));
#435=DIRECTION('ref_axis',(-1.,0.,0.));
#436=DIRECTION('center_axis',(0.,0.,1.));
#437=DIRECTION('ref_axis',(1.,0.,0.));
#438=DIRECTION('center_axis',(0.,0.,-1.));
#439=DIRECTION('ref_axis',(-1.,0.,0.));
#440=DIRECTION('center_axis',(0.,0.,1.));
#441=DIRECTION('ref_axis',(1.,0.,0.));
#442=DIRECTION('center_axis',(0.,0.,-1.));
#443=DIRECTION('ref_axis',(-1.,0.,0.));
#444=DIRECTION('',(-0.499999999999999,0.866025403784439,0.));
#445=DIRECTION('center_axis',(0.,0.,1.));
#446=DIRECTION('ref_axis',(-1.,0.,0.));
#447=DIRECTION('center_axis',(0.,0.,-1.));
#448=DIRECTION('ref_axis',(-1.,0.,0.));
#449=DIRECTION('center_axis',(0.,0.,-1.));
#450=DIRECTION('ref_axis',(-1.,0.,0.));
#451=DIRECTION('',(0.,0.,-1.));
#452=DIRECTION('',(0.,0.,1.));
#453=DIRECTION('center_axis',(0.,0.,-1.));
#454=DIRECTION('ref_axis',(-1.,0.,0.));
#455=DIRECTION('',(0.,0.,-1.));
#456=DIRECTION('center_axis',(0.,0.,1.));
#457=DIRECTION('ref_axis',(1.,0.,0.));
#458=DIRECTION('',(0.5,-0.866025403784439,0.));
#459=DIRECTION('',(-0.499999999999999,0.866025403784439,0.));
#460=DIRECTION('center_axis',(0.866025403784439,0.499999999999999,0.));
#461=DIRECTION('ref_axis',(-0.499999999999999,0.866025403784439,0.));
#462=DIRECTION('center_axis',(-0.866025403784439,-0.5,0.));
#463=DIRECTION('ref_axis',(0.5,-0.866025403784439,0.));
#464=CARTESIAN_POINT('',(0.,0.,0.));
#465=CARTESIAN_POINT('Ctrl Pts',(-30.,-6.66133814775094E-15,10.6059575001474));
#466=CARTESIAN_POINT('Ctrl Pts',(-30.,-4.48778894424313,10.6059575001474));
#467=CARTESIAN_POINT('Ctrl Pts',(-27.9530373953814,-13.4623889706067,10.6059575001474));
#468=CARTESIAN_POINT('Ctrl Pts',(-19.3455767791961,-24.2550397994728,10.6059575001474));
#469=CARTESIAN_POINT('Ctrl Pts',(-6.90076085370845,-30.2511681457783,10.6059575001474));
#470=CARTESIAN_POINT('Ctrl Pts',(5.36449958724479,-30.2411669151282,10.6059575001474));
#471=CARTESIAN_POINT('Ctrl Pts',(18.0508228565528,-25.2726242191956,10.6059575001474));
#472=CARTESIAN_POINT('Ctrl Pts',(25.5035766409136,-17.267638822708,10.6059575001474));
#473=CARTESIAN_POINT('Ctrl Pts',(28.7699850000251,-8.87434381688567,10.6059575001474));
#474=CARTESIAN_POINT('Ctrl Pts',(30.7980871743726,-0.0999057803789197,10.6059575001474));
#475=CARTESIAN_POINT('Ctrl Pts',(29.1556458169903,10.7169697140318,10.6059575001474));
#476=CARTESIAN_POINT('Ctrl Pts',(22.317784818661,20.7101852027768,10.6059575001474));
#477=CARTESIAN_POINT('Ctrl Pts',(15.2266260532447,26.3750565117625,10.6059575001474));
#478=CARTESIAN_POINT('Ctrl Pts',(6.77699817959782,29.6802032711019,10.6059575001474));
#479=CARTESIAN_POINT('Ctrl Pts',(-5.30001155116125,30.6133910540277,10.6059575001474));
#480=CARTESIAN_POINT('Ctrl Pts',(-18.3929170347085,25.4738733125037,10.6059575001474));
#481=CARTESIAN_POINT('Ctrl Pts',(-27.9514372796424,13.4515316007842,10.6059575001474));
#482=CARTESIAN_POINT('Ctrl Pts',(-30.,4.4877889442431,10.6059575001474));
#483=CARTESIAN_POINT('Ctrl Pts',(-30.,-1.33226762955019E-14,10.6059575001474));
#484=CARTESIAN_POINT('Ctrl Pts',(-30.,-6.65243056826279E-15,10.7972280410714));
#485=CARTESIAN_POINT('Ctrl Pts',(-30.,-4.48787712542737,10.7972280410714));
#486=CARTESIAN_POINT('Ctrl Pts',(-27.9530535582251,-13.4623455888147,10.7972280410714));
#487=CARTESIAN_POINT('Ctrl Pts',(-19.3455962449023,-24.2550860393942,10.7972280410714));
#488=CARTESIAN_POINT('Ctrl Pts',(-6.90076610863066,-30.2511520119366,10.7972280410714));
#489=CARTESIAN_POINT('Ctrl Pts',(5.36447681607127,-30.2412187239435,10.7972280410714));
#490=CARTESIAN_POINT('Ctrl Pts',(18.0508635457879,-25.2725877607031,10.7972280410714));
#491=CARTESIAN_POINT('Ctrl Pts',(25.5035760793173,-17.2677043262685,10.7972280410714));
#492=CARTESIAN_POINT('Ctrl Pts',(28.7699932976388,-8.87435505088791,10.7972280410714));
#493=CARTESIAN_POINT('Ctrl Pts',(30.7981097675774,-0.0998642600263645,10.7972280410714));
#494=CARTESIAN_POINT('Ctrl Pts',(29.1556666731334,10.716944057147,10.7972280410714));
#495=CARTESIAN_POINT('Ctrl Pts',(22.3178050446618,20.7101959367005,10.7972280410714));
#496=CARTESIAN_POINT('Ctrl Pts',(15.2266144234274,26.3750776146878,10.7972280410714));
#497=CARTESIAN_POINT('Ctrl Pts',(6.77699832794197,29.680225128203,10.7972280410714));
#498=CARTESIAN_POINT('Ctrl Pts',(-5.30001039743446,30.6134023540667,10.7972280410714));
#499=CARTESIAN_POINT('Ctrl Pts',(-18.3929423637102,25.4738953491227,10.7972280410714));
#500=CARTESIAN_POINT('Ctrl Pts',(-27.9514558044729,13.4515001654826,10.7972280410714));
#501=CARTESIAN_POINT('Ctrl Pts',(-30.,4.48787712542736,10.7972280410714));
#502=CARTESIAN_POINT('Ctrl Pts',(-30.,-1.32915918888564E-14,10.7972280410714));
#503=CARTESIAN_POINT('Ctrl Pts',(-29.8870904878502,-6.38392606622389E-15,
11.1793367230135));
#504=CARTESIAN_POINT('Ctrl Pts',(-29.8870904878502,-4.47085042661794,11.1793367230135));
#505=CARTESIAN_POINT('Ctrl Pts',(-27.8478231279136,-13.4117448831618,11.1793367230135));
#506=CARTESIAN_POINT('Ctrl Pts',(-19.2727561846692,-24.1637271134889,11.1793367230135));
#507=CARTESIAN_POINT('Ctrl Pts',(-6.8747859389779,-30.137322115686,11.1793367230135));
#508=CARTESIAN_POINT('Ctrl Pts',(5.34432189396017,-30.1273215049727,11.1793367230135));
#509=CARTESIAN_POINT('Ctrl Pts',(17.9828636986861,-25.1775267626453,11.1793367230135));
#510=CARTESIAN_POINT('Ctrl Pts',(25.4075904003678,-17.2026137746973,11.1793367230135));
#511=CARTESIAN_POINT('Ctrl Pts',(28.6617003130506,-8.84093776790217,11.1793367230135));
#512=CARTESIAN_POINT('Ctrl Pts',(30.6821616303194,-0.0995523939269859,11.1793367230135));
#513=CARTESIAN_POINT('Ctrl Pts',(29.0459027945227,10.6766487667788,11.1793367230135));
#514=CARTESIAN_POINT('Ctrl Pts',(22.2337774578665,20.6322334570551,11.1793367230135));
#515=CARTESIAN_POINT('Ctrl Pts',(15.1693246928909,26.2757785208906,11.1793367230135));
#516=CARTESIAN_POINT('Ctrl Pts',(6.75149184682346,29.5684854523488,11.1793367230135));
#517=CARTESIAN_POINT('Ctrl Pts',(-5.28006478919318,30.4981667951232,11.1793367230135));
#518=CARTESIAN_POINT('Ctrl Pts',(-18.3236787235701,25.3779865513856,11.1793367230135));
#519=CARTESIAN_POINT('Ctrl Pts',(-27.8462277474303,13.4009218671737,11.1793367230135));
#520=CARTESIAN_POINT('Ctrl Pts',(-29.8870904878502,4.47085042661789,11.1793367230135));
#521=CARTESIAN_POINT('Ctrl Pts',(-29.8870904878502,-1.27280743868533E-14,
11.1793367230135));
#522=CARTESIAN_POINT('Ctrl Pts',(-29.5850543608314,-5.70116908157568E-15,
11.4392016508604));
#523=CARTESIAN_POINT('Ctrl Pts',(-29.5850543608314,-4.42576482926828,11.4392016508604));
#524=CARTESIAN_POINT('Ctrl Pts',(-27.5664133138318,-13.2761596265468,11.4392016508604));
#525=CARTESIAN_POINT('Ctrl Pts',(-19.0780088016225,-23.9195813066955,11.4392016508604));
#526=CARTESIAN_POINT('Ctrl Pts',(-6.8053157430328,-29.8327395343695,11.4392016508604));
#527=CARTESIAN_POINT('Ctrl Pts',(5.29028778657408,-29.8229142615827,11.4392016508605));
#528=CARTESIAN_POINT('Ctrl Pts',(17.801175048719,-24.9230451886903,11.4392016508604));
#529=CARTESIAN_POINT('Ctrl Pts',(25.1508230662317,-17.0288373833273,11.4392016508604));
#530=CARTESIAN_POINT('Ctrl Pts',(28.3720569346294,-8.75160436253164,11.4392016508604));
#531=CARTESIAN_POINT('Ctrl Pts',(30.3721152872272,-0.0985009380980354,11.4392016508604));
#532=CARTESIAN_POINT('Ctrl Pts',(28.752390430514,10.568723510701,11.4392016508604));
#533=CARTESIAN_POINT('Ctrl Pts',(22.0091071033045,20.4237377791879,11.4392016508604));
#534=CARTESIAN_POINT('Ctrl Pts',(15.0160122101574,26.0102610421679,11.4392016508604));
#535=CARTESIAN_POINT('Ctrl Pts',(6.68326206703934,29.2696930113386,11.4392016508604));
#536=CARTESIAN_POINT('Ctrl Pts',(-5.22670368955467,30.1899675412194,11.4392016508605));
#537=CARTESIAN_POINT('Ctrl Pts',(-18.1385290376931,25.1215430945956,11.4392016508604));
#538=CARTESIAN_POINT('Ctrl Pts',(-27.5648366381607,13.2654590464543,11.4392016508605));
#539=CARTESIAN_POINT('Ctrl Pts',(-29.5850543608314,4.42576482926827,11.4392016508604));
#540=CARTESIAN_POINT('Ctrl Pts',(-29.5850543608314,-1.13445324866926E-14,
11.4392016508604));
#541=CARTESIAN_POINT('Ctrl Pts',(-29.4106557008395,-5.31026831770477E-15,
11.5177479888935));
#542=CARTESIAN_POINT('Ctrl Pts',(-29.4106557008395,-4.39962718323896,11.5177479888935));
#543=CARTESIAN_POINT('Ctrl Pts',(-27.4039052876085,-13.1979228975097,11.5177479888935));
#544=CARTESIAN_POINT('Ctrl Pts',(-18.9655365995698,-23.7785541517485,11.5177479888936));
#545=CARTESIAN_POINT('Ctrl Pts',(-6.76519671807502,-29.656889696123,11.5177479888935));
#546=CARTESIAN_POINT('Ctrl Pts',(5.25911501225842,-29.6470849377485,11.5177479888936));
#547=CARTESIAN_POINT('Ctrl Pts',(17.6962178716973,-24.7761483189153,11.5177479888935));
#548=CARTESIAN_POINT('Ctrl Pts',(25.0025637241961,-16.9284193393705,11.5177479888935));
#549=CARTESIAN_POINT('Ctrl Pts',(28.2048041118019,-8.70000901897662,11.5177479888935));
#550=CARTESIAN_POINT('Ctrl Pts',(30.1930646043305,-0.0979431503082727,11.5177479888936));
#551=CARTESIAN_POINT('Ctrl Pts',(28.5828886953042,10.5064368805238,11.5177479888936));
#552=CARTESIAN_POINT('Ctrl Pts',(21.8793561769021,20.303337549983,11.5177479888935));
#553=CARTESIAN_POINT('Ctrl Pts',(14.9275018779137,25.8569235385877,11.5177479888936));
#554=CARTESIAN_POINT('Ctrl Pts',(6.64386533817892,29.0971413179103,11.5177479888935));
#555=CARTESIAN_POINT('Ctrl Pts',(-5.1958938313892,30.0119968041723,11.5177479888936));
#556=CARTESIAN_POINT('Ctrl Pts',(-18.0315916747306,24.9734439120284,11.5177479888936));
#557=CARTESIAN_POINT('Ctrl Pts',(-27.4023366058391,13.1872788186542,11.5177479888936));
#558=CARTESIAN_POINT('Ctrl Pts',(-29.4106557008395,4.39962718323893,11.5177479888935));
#559=CARTESIAN_POINT('Ctrl Pts',(-29.4106557008395,-1.05572818667495E-14,
11.5177479888936));
#560=CARTESIAN_POINT('',(-29.4106557008395,-4.71844785465692E-15,11.5177479888935));
#561=CARTESIAN_POINT('',(-30.,-6.66133814775094E-15,10.6059575001474));
#562=CARTESIAN_POINT('Origin',(-29.,-4.44089209850063E-15,10.6059575001474));
#563=CARTESIAN_POINT('Ctrl Pts',(-30.,-6.66133814775094E-15,10.6059575001474));
#564=CARTESIAN_POINT('Ctrl Pts',(-30.,-4.48778894424313,10.6059575001474));
#565=CARTESIAN_POINT('Ctrl Pts',(-27.9530373953814,-13.4623889706067,10.6059575001474));
#566=CARTESIAN_POINT('Ctrl Pts',(-19.3455767791961,-24.2550397994728,10.6059575001474));
#567=CARTESIAN_POINT('Ctrl Pts',(-6.90076085370845,-30.2511681457783,10.6059575001474));
#568=CARTESIAN_POINT('Ctrl Pts',(5.36449958724479,-30.2411669151282,10.6059575001474));
#569=CARTESIAN_POINT('Ctrl Pts',(18.0508228565528,-25.2726242191956,10.6059575001474));
#570=CARTESIAN_POINT('Ctrl Pts',(25.5035766409136,-17.267638822708,10.6059575001474));
#571=CARTESIAN_POINT('Ctrl Pts',(28.7699850000251,-8.87434381688567,10.6059575001474));
#572=CARTESIAN_POINT('Ctrl Pts',(30.7980871743726,-0.0999057803789197,10.6059575001474));
#573=CARTESIAN_POINT('Ctrl Pts',(29.1556458169903,10.7169697140318,10.6059575001474));
#574=CARTESIAN_POINT('Ctrl Pts',(22.317784818661,20.7101852027768,10.6059575001474));
#575=CARTESIAN_POINT('Ctrl Pts',(15.2266260532447,26.3750565117625,10.6059575001474));
#576=CARTESIAN_POINT('Ctrl Pts',(6.77699817959782,29.6802032711019,10.6059575001474));
#577=CARTESIAN_POINT('Ctrl Pts',(-5.30001155116125,30.6133910540277,10.6059575001474));
#578=CARTESIAN_POINT('Ctrl Pts',(-18.3929170347085,25.4738733125037,10.6059575001474));
#579=CARTESIAN_POINT('Ctrl Pts',(-27.9514372796424,13.4515316007842,10.6059575001474));
#580=CARTESIAN_POINT('Ctrl Pts',(-30.,4.4877889442431,10.6059575001474));
#581=CARTESIAN_POINT('Ctrl Pts',(-30.,-1.33226762955019E-14,10.6059575001474));
#582=CARTESIAN_POINT('Ctrl Pts',(-29.4106557008395,-1.05572818667495E-14,
11.5177479888936));
#583=CARTESIAN_POINT('Ctrl Pts',(-29.4106557008395,4.39962718323893,11.5177479888935));
#584=CARTESIAN_POINT('Ctrl Pts',(-27.4023366058391,13.1872788186542,11.5177479888936));
#585=CARTESIAN_POINT('Ctrl Pts',(-18.0315916747306,24.9734439120284,11.5177479888936));
#586=CARTESIAN_POINT('Ctrl Pts',(-5.1958938313892,30.0119968041723,11.5177479888936));
#587=CARTESIAN_POINT('Ctrl Pts',(6.64386533817892,29.0971413179103,11.5177479888935));
#588=CARTESIAN_POINT('Ctrl Pts',(14.9275018779137,25.8569235385877,11.5177479888936));
#589=CARTESIAN_POINT('Ctrl Pts',(21.8793561769021,20.303337549983,11.5177479888935));
#590=CARTESIAN_POINT('Ctrl Pts',(28.5828886953042,10.5064368805238,11.5177479888936));
#591=CARTESIAN_POINT('Ctrl Pts',(30.1930646043305,-0.0979431503082727,11.5177479888936));
#592=CARTESIAN_POINT('Ctrl Pts',(28.2048041118019,-8.70000901897662,11.5177479888935));
#593=CARTESIAN_POINT('Ctrl Pts',(25.0025637241961,-16.9284193393705,11.5177479888935));
#594=CARTESIAN_POINT('Ctrl Pts',(17.6962178716973,-24.7761483189153,11.5177479888935));
#595=CARTESIAN_POINT('Ctrl Pts',(5.25911501225842,-29.6470849377485,11.5177479888936));
#596=CARTESIAN_POINT('Ctrl Pts',(-6.76519671807502,-29.656889696123,11.5177479888935));
#597=CARTESIAN_POINT('Ctrl Pts',(-18.9655365995698,-23.7785541517485,11.5177479888936));
#598=CARTESIAN_POINT('Ctrl Pts',(-27.4039052876085,-13.1979228975097,11.5177479888935));
#599=CARTESIAN_POINT('Ctrl Pts',(-29.4106557008395,-4.39962718323896,11.5177479888935));
#600=CARTESIAN_POINT('Ctrl Pts',(-29.4106557008395,-5.31026831770477E-15,
11.5177479888935));
#601=CARTESIAN_POINT('Ctrl Pts',(-30.,0.,11.25));
#602=CARTESIAN_POINT('Ctrl Pts',(-30.,30.,11.25));
#603=CARTESIAN_POINT('Ctrl Pts',(0.,30.,11.25));
#604=CARTESIAN_POINT('Ctrl Pts',(30.,30.,11.25));
#605=CARTESIAN_POINT('Ctrl Pts',(30.,0.,11.25));
#606=CARTESIAN_POINT('Ctrl Pts',(30.,-30.,11.25));
#607=CARTESIAN_POINT('Ctrl Pts',(0.,-30.,11.25));
#608=CARTESIAN_POINT('Ctrl Pts',(-30.,-30.,11.25));
#609=CARTESIAN_POINT('Ctrl Pts',(-30.,0.,11.25));
#610=CARTESIAN_POINT('Ctrl Pts',(-28.800000000003,0.,11.799895166659));
#611=CARTESIAN_POINT('Ctrl Pts',(-28.800000000003,28.800000000003,11.799895166659));
#612=CARTESIAN_POINT('Ctrl Pts',(0.,28.800000000003,11.799895166659));
#613=CARTESIAN_POINT('Ctrl Pts',(28.800000000003,28.800000000003,11.799895166659));
#614=CARTESIAN_POINT('Ctrl Pts',(28.800000000003,0.,11.799895166659));
#615=CARTESIAN_POINT('Ctrl Pts',(28.800000000003,-28.800000000003,11.799895166659));
#616=CARTESIAN_POINT('Ctrl Pts',(0.,-28.800000000003,11.799895166659));
#617=CARTESIAN_POINT('Ctrl Pts',(-28.800000000003,-28.800000000003,11.799895166659));
#618=CARTESIAN_POINT('Ctrl Pts',(-28.800000000003,0.,11.799895166659));
#619=CARTESIAN_POINT('Ctrl Pts',(-26.4000000000081,0.,12.851663417116));
#620=CARTESIAN_POINT('Ctrl Pts',(-26.4000000000081,26.4000000000081,12.851663417116));
#621=CARTESIAN_POINT('Ctrl Pts',(0.,26.4000000000081,12.851663417116));
#622=CARTESIAN_POINT('Ctrl Pts',(26.4000000000081,26.4000000000081,12.851663417116));
#623=CARTESIAN_POINT('Ctrl Pts',(26.4000000000081,0.,12.851663417116));
#624=CARTESIAN_POINT('Ctrl Pts',(26.4000000000081,-26.4000000000081,12.851663417116));
#625=CARTESIAN_POINT('Ctrl Pts',(0.,-26.4000000000081,12.851663417116));
#626=CARTESIAN_POINT('Ctrl Pts',(-26.4000000000081,-26.4000000000081,12.851663417116));
#627=CARTESIAN_POINT('Ctrl Pts',(-26.4000000000081,0.,12.851663417116));
#628=CARTESIAN_POINT('Ctrl Pts',(-22.8000000000134,0.,14.2852539592825));
#629=CARTESIAN_POINT('Ctrl Pts',(-22.8000000000134,22.8000000000134,14.2852539592825));
#630=CARTESIAN_POINT('Ctrl Pts',(0.,22.8000000000134,14.2852539592825));
#631=CARTESIAN_POINT('Ctrl Pts',(22.8000000000134,22.8000000000134,14.2852539592825));
#632=CARTESIAN_POINT('Ctrl Pts',(22.8000000000134,0.,14.2852539592825));
#633=CARTESIAN_POINT('Ctrl Pts',(22.8000000000134,-22.8000000000134,14.2852539592825));
#634=CARTESIAN_POINT('Ctrl Pts',(0.,-22.8000000000134,14.2852539592825));
#635=CARTESIAN_POINT('Ctrl Pts',(-22.8000000000134,-22.8000000000134,14.2852539592825));
#636=CARTESIAN_POINT('Ctrl Pts',(-22.8000000000134,0.,14.2852539592825));
#637=CARTESIAN_POINT('Ctrl Pts',(-18.0000000000161,0.,15.9038060025933));
#638=CARTESIAN_POINT('Ctrl Pts',(-18.0000000000161,18.0000000000161,15.9038060025933));
#639=CARTESIAN_POINT('Ctrl Pts',(0.,18.0000000000161,15.9038060025933));
#640=CARTESIAN_POINT('Ctrl Pts',(18.0000000000161,18.0000000000161,15.9038060025933));
#641=CARTESIAN_POINT('Ctrl Pts',(18.0000000000161,0.,15.9038060025933));
#642=CARTESIAN_POINT('Ctrl Pts',(18.0000000000161,-18.0000000000161,15.9038060025933));
#643=CARTESIAN_POINT('Ctrl Pts',(0.,-18.0000000000161,15.9038060025933));
#644=CARTESIAN_POINT('Ctrl Pts',(-18.0000000000161,-18.0000000000161,15.9038060025933));
#645=CARTESIAN_POINT('Ctrl Pts',(-18.0000000000161,0.,15.9038060025933));
#646=CARTESIAN_POINT('Ctrl Pts',(-12.0000000000136,0.,17.4056950734973));
#647=CARTESIAN_POINT('Ctrl Pts',(-12.0000000000136,12.0000000000136,17.4056950734973));
#648=CARTESIAN_POINT('Ctrl Pts',(0.,12.0000000000136,17.4056950734973));
#649=CARTESIAN_POINT('Ctrl Pts',(12.0000000000136,12.0000000000136,17.4056950734973));
#650=CARTESIAN_POINT('Ctrl Pts',(12.0000000000136,0.,17.4056950734973));
#651=CARTESIAN_POINT('Ctrl Pts',(12.0000000000136,-12.0000000000136,17.4056950734973));
#652=CARTESIAN_POINT('Ctrl Pts',(0.,-12.0000000000136,17.4056950734973));
#653=CARTESIAN_POINT('Ctrl Pts',(-12.0000000000136,-12.0000000000136,17.4056950734973));
#654=CARTESIAN_POINT('Ctrl Pts',(-12.0000000000136,0.,17.4056950734973));
#655=CARTESIAN_POINT('Ctrl Pts',(-7.20000000000865,0.,18.1528950055451));
#656=CARTESIAN_POINT('Ctrl Pts',(-7.20000000000865,7.20000000000865,18.1528950055451));
#657=CARTESIAN_POINT('Ctrl Pts',(0.,7.20000000000865,18.1528950055451));
#658=CARTESIAN_POINT('Ctrl Pts',(7.20000000000865,7.20000000000865,18.1528950055451));
#659=CARTESIAN_POINT('Ctrl Pts',(7.20000000000865,0.,18.1528950055451));
#660=CARTESIAN_POINT('Ctrl Pts',(7.20000000000865,-7.20000000000865,18.1528950055451));
#661=CARTESIAN_POINT('Ctrl Pts',(0.,-7.20000000000865,18.1528950055451));
#662=CARTESIAN_POINT('Ctrl Pts',(-7.20000000000865,-7.20000000000865,18.1528950055451));
#663=CARTESIAN_POINT('Ctrl Pts',(-7.20000000000865,0.,18.1528950055451));
#664=CARTESIAN_POINT('Ctrl Pts',(-3.60000000000431,0.,18.4368900010057));
#665=CARTESIAN_POINT('Ctrl Pts',(-3.60000000000431,3.60000000000431,18.4368900010057));
#666=CARTESIAN_POINT('Ctrl Pts',(0.,3.60000000000431,18.4368900010057));
#667=CARTESIAN_POINT('Ctrl Pts',(3.60000000000431,3.60000000000431,18.4368900010057));
#668=CARTESIAN_POINT('Ctrl Pts',(3.60000000000431,0.,18.4368900010057));
#669=CARTESIAN_POINT('Ctrl Pts',(3.60000000000431,-3.60000000000431,18.4368900010057));
#670=CARTESIAN_POINT('Ctrl Pts',(0.,-3.60000000000431,18.4368900010057));
#671=CARTESIAN_POINT('Ctrl Pts',(-3.60000000000431,-3.60000000000431,18.4368900010057));
#672=CARTESIAN_POINT('Ctrl Pts',(-3.60000000000431,0.,18.4368900010057));
#673=CARTESIAN_POINT('Ctrl Pts',(-1.20000000000141,0.,18.4999999999987));
#674=CARTESIAN_POINT('Ctrl Pts',(-1.20000000000141,1.20000000000141,18.4999999999987));
#675=CARTESIAN_POINT('Ctrl Pts',(0.,1.20000000000141,18.4999999999987));
#676=CARTESIAN_POINT('Ctrl Pts',(1.20000000000141,1.20000000000141,18.4999999999987));
#677=CARTESIAN_POINT('Ctrl Pts',(1.20000000000141,0.,18.4999999999987));
#678=CARTESIAN_POINT('Ctrl Pts',(1.20000000000141,-1.20000000000141,18.4999999999987));
#679=CARTESIAN_POINT('Ctrl Pts',(0.,-1.20000000000141,18.4999999999987));
#680=CARTESIAN_POINT('Ctrl Pts',(-1.20000000000141,-1.20000000000141,18.4999999999987));
#681=CARTESIAN_POINT('Ctrl Pts',(-1.20000000000141,0.,18.4999999999987));
#682=CARTESIAN_POINT('Ctrl Pts',(3.46944695195361E-16,0.,18.5));
#683=CARTESIAN_POINT('Ctrl Pts',(3.46944695195361E-16,-3.46944695195361E-16,
18.5));
#684=CARTESIAN_POINT('Ctrl Pts',(0.,-3.46944695195361E-16,18.5));
#685=CARTESIAN_POINT('Ctrl Pts',(-3.46944695195361E-16,-3.46944695195361E-16,
18.5));
#686=CARTESIAN_POINT('Ctrl Pts',(-3.46944695195361E-16,0.,18.5));
#687=CARTESIAN_POINT('Ctrl Pts',(-3.46944695195361E-16,3.46944695195361E-16,
18.5));
#688=CARTESIAN_POINT('Ctrl Pts',(0.,3.46944695195361E-16,18.5));
#689=CARTESIAN_POINT('Ctrl Pts',(3.46944695195361E-16,3.46944695195361E-16,
18.5));
#690=CARTESIAN_POINT('Ctrl Pts',(3.46944695195361E-16,0.,18.5));
#691=CARTESIAN_POINT('',(3.46944695195361E-16,0.,18.5));
#692=CARTESIAN_POINT('Ctrl Pts',(-29.4106557008395,0.,11.5177479888935));
#693=CARTESIAN_POINT('Ctrl Pts',(-28.3285245606744,0.,12.0051223662857));
#694=CARTESIAN_POINT('Ctrl Pts',(-26.0463934205115,0.,12.9917694857095));
#695=CARTESIAN_POINT('Ctrl Pts',(-22.5642622803488,0.,14.3644928529291));
#696=CARTESIAN_POINT('Ctrl Pts',(-17.8821311401837,0.,15.9333103279903));
#697=CARTESIAN_POINT('Ctrl Pts',(-12.0000000000136,0.,17.4056950734973));
#698=CARTESIAN_POINT('Ctrl Pts',(-7.20000000000865,0.,18.1528950055451));
#699=CARTESIAN_POINT('Ctrl Pts',(-3.60000000000431,0.,18.4368900010057));
#700=CARTESIAN_POINT('Ctrl Pts',(-1.20000000000141,0.,18.4999999999987));
#701=CARTESIAN_POINT('Ctrl Pts',(1.11022302462516E-16,0.,18.5));
#702=CARTESIAN_POINT('Origin',(0.,0.,9.));
#703=CARTESIAN_POINT('',(-30.,-3.67394039744206E-15,9.));
#704=CARTESIAN_POINT('',(-30.,-3.67394039744206E-15,9.));
#705=CARTESIAN_POINT('',(-17.7263019467299,-24.2028556020433,9.));
#706=CARTESIAN_POINT('Origin',(0.,0.,9.));
#707=CARTESIAN_POINT('',(-17.7263019467299,-24.2028556020433,10.5));
#708=CARTESIAN_POINT('',(-17.7263019467299,-24.2028556020433,9.));
#709=CARTESIAN_POINT('',(-12.0971368221311,-27.4528556020433,10.5));
#710=CARTESIAN_POINT('Origin',(0.,0.,10.5));
#711=CARTESIAN_POINT('',(-12.0971368221311,-27.4528556020433,9.));
#712=CARTESIAN_POINT('',(-12.0971368221311,-27.4528556020433,9.));
#713=CARTESIAN_POINT('',(29.823438768861,-3.25000000000003,9.));
#714=CARTESIAN_POINT('Origin',(0.,0.,9.));
#715=CARTESIAN_POINT('',(29.823438768861,-3.25000000000003,10.5));
#716=CARTESIAN_POINT('',(29.823438768861,-3.25000000000003,9.));
#717=CARTESIAN_POINT('',(29.823438768861,3.24999999999998,10.5));
#718=CARTESIAN_POINT('Origin',(0.,0.,10.5));
#719=CARTESIAN_POINT('',(29.823438768861,3.24999999999998,9.));
#720=CARTESIAN_POINT('',(29.823438768861,3.24999999999998,9.));
#721=CARTESIAN_POINT('',(-12.0971368221311,27.4528556020433,9.));
#722=CARTESIAN_POINT('Origin',(0.,0.,9.));
#723=CARTESIAN_POINT('',(-12.0971368221311,27.4528556020433,10.5));
#724=CARTESIAN_POINT('',(-12.0971368221311,27.4528556020433,9.));
#725=CARTESIAN_POINT('',(-17.7263019467299,24.2028556020433,10.5));
#726=CARTESIAN_POINT('Origin',(0.,0.,10.5));
#727=CARTESIAN_POINT('',(-17.7263019467299,24.2028556020433,9.));
#728=CARTESIAN_POINT('',(-17.7263019467299,24.2028556020433,9.));
#729=CARTESIAN_POINT('Origin',(0.,0.,9.));
#730=CARTESIAN_POINT('Origin',(30.,3.24999999999998,9.));
#731=CARTESIAN_POINT('',(27.7100613496253,3.24999999999998,10.5));
#732=CARTESIAN_POINT('',(30.,3.24999999999998,10.5));
#733=CARTESIAN_POINT('',(27.7100613496253,3.24999999999998,9.));
#734=CARTESIAN_POINT('',(27.7100613496253,3.24999999999998,9.));
#735=CARTESIAN_POINT('',(15.,3.25,9.));
#736=CARTESIAN_POINT('Origin',(28.75,-2.44249065417534E-14,10.5));
#737=CARTESIAN_POINT('',(27.7100613496253,-3.25000000000002,10.5));
#738=CARTESIAN_POINT('',(27.5,-3.25000000000002,10.5));
#739=CARTESIAN_POINT('',(27.9,3.41676456962112E-15,10.5));
#740=CARTESIAN_POINT('Origin',(0.,0.,10.5));
#741=CARTESIAN_POINT('Origin',(0.,0.,10.5));
#742=CARTESIAN_POINT('Origin',(27.5,-3.25000000000002,9.));
#743=CARTESIAN_POINT('',(27.7100613496253,-3.25000000000002,9.));
#744=CARTESIAN_POINT('',(13.75,-3.25,9.));
#745=CARTESIAN_POINT('',(27.7100613496253,-3.25000000000002,9.));
#746=CARTESIAN_POINT('Origin',(-12.1854174377006,-27.6057621135331,9.));
#747=CARTESIAN_POINT('',(-11.0404481125133,-25.6226170692008,10.5));
#748=CARTESIAN_POINT('',(-12.1854174377006,-27.6057621135331,10.5));
#749=CARTESIAN_POINT('',(-11.0404481125133,-25.6226170692008,9.));
#750=CARTESIAN_POINT('',(-11.0404481125133,-25.6226170692008,9.));
#751=CARTESIAN_POINT('',(-4.68541743770058,-14.6153810567666,9.));
#752=CARTESIAN_POINT('Origin',(-14.375,-24.8982303588026,10.5));
#753=CARTESIAN_POINT('',(-16.6696132371121,-22.3726170692008,10.5));
#754=CARTESIAN_POINT('',(-16.5645825622994,-22.190698604072,10.5));
#755=CARTESIAN_POINT('Origin',(0.,0.,10.5));
#756=CARTESIAN_POINT('Origin',(-16.5645825622994,-22.190698604072,9.));
#757=CARTESIAN_POINT('',(-16.6696132371121,-22.3726170692008,9.));
#758=CARTESIAN_POINT('',(-9.68958256229942,-10.282849302036,9.));
#759=CARTESIAN_POINT('',(-16.6696132371121,-22.3726170692008,9.));
#760=CARTESIAN_POINT('Origin',(0.,0.,9.));
#761=CARTESIAN_POINT('',(-16.6696132371121,22.3726170692009,9.));
#762=CARTESIAN_POINT('',(-10.3145825622994,11.3653810567666,9.));
#763=CARTESIAN_POINT('Origin',(0.,0.,9.));
#764=CARTESIAN_POINT('Origin',(0.,0.,9.));
#765=CARTESIAN_POINT('Origin',(0.,0.,9.));
#766=CARTESIAN_POINT('Origin',(0.,0.,9.));
#767=CARTESIAN_POINT('',(-11.0404481125132,25.6226170692008,9.));
#768=CARTESIAN_POINT('Origin',(0.,0.,9.));
#769=CARTESIAN_POINT('',(-4.06041743770058,13.532849302036,9.));
#770=CARTESIAN_POINT('Origin',(0.,0.,9.));
#771=CARTESIAN_POINT('',(-27.9,0.,11.25));
#772=CARTESIAN_POINT('',(27.9,3.41676456962112E-15,11.25));
#773=CARTESIAN_POINT('Origin',(0.,0.,11.25));
#774=CARTESIAN_POINT('Origin',(0.,0.,11.25));
#775=CARTESIAN_POINT('',(27.9,3.41676456962112E-15,9.));
#776=CARTESIAN_POINT('',(-16.6696132371121,22.3726170692009,10.5));
#777=CARTESIAN_POINT('',(-16.6696132371121,22.3726170692008,9.));
#778=CARTESIAN_POINT('',(-11.0404481125132,25.6226170692008,10.5));
#779=CARTESIAN_POINT('Origin',(0.,0.,10.5));
#780=CARTESIAN_POINT('',(-11.0404481125132,25.6226170692008,9.));
#781=CARTESIAN_POINT('Origin',(-14.375,24.8982303588026,10.5));
#782=CARTESIAN_POINT('',(-17.8145825622994,24.3557621135332,10.5));
#783=CARTESIAN_POINT('',(-10.9354174377006,25.4406986040721,10.5));
#784=CARTESIAN_POINT('Origin',(-10.9354174377006,25.4406986040721,9.));
#785=CARTESIAN_POINT('Origin',(-17.8145825622994,24.3557621135332,9.));
#786=CARTESIAN_POINT('Ctrl Pts',(3.46944695195361E-16,0.,17.));
#787=CARTESIAN_POINT('Ctrl Pts',(3.46944695195361E-16,-3.46944695195361E-16,
17.));
#788=CARTESIAN_POINT('Ctrl Pts',(0.,-3.46944695195361E-16,17.));
#789=CARTESIAN_POINT('Ctrl Pts',(-3.46944695195361E-16,-3.46944695195361E-16,
17.));
#790=CARTESIAN_POINT('Ctrl Pts',(-3.46944695195361E-16,0.,17.));
#791=CARTESIAN_POINT('Ctrl Pts',(-3.46944695195361E-16,3.46944695195361E-16,
17.));
#792=CARTESIAN_POINT('Ctrl Pts',(0.,3.46944695195361E-16,17.));
#793=CARTESIAN_POINT('Ctrl Pts',(3.46944695195361E-16,3.46944695195361E-16,
17.));
#794=CARTESIAN_POINT('Ctrl Pts',(3.46944695195361E-16,0.,17.));
#795=CARTESIAN_POINT('Ctrl Pts',(-1.11600000000149,0.,16.9999999999993));
#796=CARTESIAN_POINT('Ctrl Pts',(-1.11600000000149,1.11600000000149,16.9999999999993));
#797=CARTESIAN_POINT('Ctrl Pts',(0.,1.11600000000149,16.9999999999993));
#798=CARTESIAN_POINT('Ctrl Pts',(1.11600000000149,1.11600000000149,16.9999999999993));
#799=CARTESIAN_POINT('Ctrl Pts',(1.11600000000149,0.,16.9999999999993));
#800=CARTESIAN_POINT('Ctrl Pts',(1.11600000000149,-1.11600000000149,16.9999999999993));
#801=CARTESIAN_POINT('Ctrl Pts',(0.,-1.11600000000149,16.9999999999993));
#802=CARTESIAN_POINT('Ctrl Pts',(-1.11600000000149,-1.11600000000149,16.9999999999993));
#803=CARTESIAN_POINT('Ctrl Pts',(-1.11600000000149,0.,16.9999999999993));
#804=CARTESIAN_POINT('Ctrl Pts',(-3.34800000000449,0.,16.9499472421779));
#805=CARTESIAN_POINT('Ctrl Pts',(-3.34800000000449,3.34800000000449,16.9499472421779));
#806=CARTESIAN_POINT('Ctrl Pts',(0.,3.34800000000449,16.9499472421779));
#807=CARTESIAN_POINT('Ctrl Pts',(3.34800000000449,3.34800000000449,16.9499472421779));
#808=CARTESIAN_POINT('Ctrl Pts',(3.34800000000449,0.,16.9499472421779));
#809=CARTESIAN_POINT('Ctrl Pts',(3.34800000000449,-3.34800000000449,16.9499472421779));
#810=CARTESIAN_POINT('Ctrl Pts',(0.,-3.34800000000449,16.9499472421779));
#811=CARTESIAN_POINT('Ctrl Pts',(-3.34800000000449,-3.34800000000449,16.9499472421779));
#812=CARTESIAN_POINT('Ctrl Pts',(-3.34800000000449,0.,16.9499472421779));
#813=CARTESIAN_POINT('Ctrl Pts',(-6.69600000000893,0.,16.7247098319859));
#814=CARTESIAN_POINT('Ctrl Pts',(-6.69600000000892,6.69600000000892,16.7247098319859));
#815=CARTESIAN_POINT('Ctrl Pts',(0.,6.69600000000893,16.7247098319859));
#816=CARTESIAN_POINT('Ctrl Pts',(6.69600000000892,6.69600000000892,16.7247098319859));
#817=CARTESIAN_POINT('Ctrl Pts',(6.69600000000893,0.,16.7247098319859));
#818=CARTESIAN_POINT('Ctrl Pts',(6.69600000000892,-6.69600000000892,16.7247098319859));
#819=CARTESIAN_POINT('Ctrl Pts',(0.,-6.69600000000893,16.7247098319859));
#820=CARTESIAN_POINT('Ctrl Pts',(-6.69600000000892,-6.69600000000892,16.7247098319859));
#821=CARTESIAN_POINT('Ctrl Pts',(-6.69600000000893,0.,16.7247098319859));
#822=CARTESIAN_POINT('Ctrl Pts',(-11.1600000000139,0.,16.1321029893283));
#823=CARTESIAN_POINT('Ctrl Pts',(-11.1600000000139,11.1600000000139,16.1321029893283));
#824=CARTESIAN_POINT('Ctrl Pts',(0.,11.1600000000139,16.1321029893283));
#825=CARTESIAN_POINT('Ctrl Pts',(11.1600000000139,11.1600000000139,16.1321029893283));
#826=CARTESIAN_POINT('Ctrl Pts',(11.1600000000139,0.,16.1321029893283));
#827=CARTESIAN_POINT('Ctrl Pts',(11.1600000000139,-11.1600000000139,16.1321029893283));
#828=CARTESIAN_POINT('Ctrl Pts',(0.,-11.1600000000139,16.1321029893283));
#829=CARTESIAN_POINT('Ctrl Pts',(-11.1600000000139,-11.1600000000139,16.1321029893283));
#830=CARTESIAN_POINT('Ctrl Pts',(-11.1600000000139,0.,16.1321029893283));
#831=CARTESIAN_POINT('Ctrl Pts',(-16.7400000000162,0.,14.940949588267));
#832=CARTESIAN_POINT('Ctrl Pts',(-16.7400000000162,16.7400000000162,14.940949588267));
#833=CARTESIAN_POINT('Ctrl Pts',(0.,16.7400000000162,14.940949588267));
#834=CARTESIAN_POINT('Ctrl Pts',(16.7400000000162,16.7400000000162,14.940949588267));
#835=CARTESIAN_POINT('Ctrl Pts',(16.7400000000162,0.,14.940949588267));
#836=CARTESIAN_POINT('Ctrl Pts',(16.7400000000162,-16.7400000000162,14.940949588267));
#837=CARTESIAN_POINT('Ctrl Pts',(0.,-16.7400000000162,14.940949588267));
#838=CARTESIAN_POINT('Ctrl Pts',(-16.7400000000162,-16.7400000000162,14.940949588267));
#839=CARTESIAN_POINT('Ctrl Pts',(-16.7400000000162,0.,14.940949588267));
#840=CARTESIAN_POINT('Ctrl Pts',(-21.2040000000135,0.,13.6572703815028));
#841=CARTESIAN_POINT('Ctrl Pts',(-21.2040000000135,21.2040000000135,13.6572703815028));
#842=CARTESIAN_POINT('Ctrl Pts',(0.,21.2040000000135,13.6572703815028));
#843=CARTESIAN_POINT('Ctrl Pts',(21.2040000000135,21.2040000000135,13.6572703815028));
#844=CARTESIAN_POINT('Ctrl Pts',(21.2040000000135,0.,13.6572703815028));
#845=CARTESIAN_POINT('Ctrl Pts',(21.2040000000135,-21.2040000000135,13.6572703815028));
#846=CARTESIAN_POINT('Ctrl Pts',(0.,-21.2040000000135,13.6572703815028));
#847=CARTESIAN_POINT('Ctrl Pts',(-21.2040000000135,-21.2040000000135,13.6572703815028));
#848=CARTESIAN_POINT('Ctrl Pts',(-21.2040000000135,0.,13.6572703815028));
#849=CARTESIAN_POINT('Ctrl Pts',(-24.5520000000082,0.,12.5202847790938));
#850=CARTESIAN_POINT('Ctrl Pts',(-24.5520000000082,24.5520000000082,12.5202847790938));
#851=CARTESIAN_POINT('Ctrl Pts',(0.,24.5520000000082,12.5202847790938));
#852=CARTESIAN_POINT('Ctrl Pts',(24.5520000000082,24.5520000000082,12.5202847790938));
#853=CARTESIAN_POINT('Ctrl Pts',(24.5520000000082,0.,12.5202847790938));
#854=CARTESIAN_POINT('Ctrl Pts',(24.5520000000082,-24.5520000000082,12.5202847790938));
#855=CARTESIAN_POINT('Ctrl Pts',(0.,-24.5520000000082,12.5202847790938));
#856=CARTESIAN_POINT('Ctrl Pts',(-24.5520000000082,-24.5520000000082,12.5202847790938));
#857=CARTESIAN_POINT('Ctrl Pts',(-24.5520000000082,0.,12.5202847790938));
#858=CARTESIAN_POINT('Ctrl Pts',(-26.784000000003,0.,11.6861237528682));
#859=CARTESIAN_POINT('Ctrl Pts',(-26.784000000003,26.784000000003,11.6861237528682));
#860=CARTESIAN_POINT('Ctrl Pts',(0.,26.784000000003,11.6861237528682));
#861=CARTESIAN_POINT('Ctrl Pts',(26.784000000003,26.784000000003,11.6861237528682));
#862=CARTESIAN_POINT('Ctrl Pts',(26.784000000003,0.,11.6861237528682));
#863=CARTESIAN_POINT('Ctrl Pts',(26.784000000003,-26.784000000003,11.6861237528682));
#864=CARTESIAN_POINT('Ctrl Pts',(0.,-26.784000000003,11.6861237528682));
#865=CARTESIAN_POINT('Ctrl Pts',(-26.784000000003,-26.784000000003,11.6861237528682));
#866=CARTESIAN_POINT('Ctrl Pts',(-26.784000000003,0.,11.6861237528682));
#867=CARTESIAN_POINT('Ctrl Pts',(-27.9,0.,11.25));
#868=CARTESIAN_POINT('Ctrl Pts',(-27.9,27.9,11.25));
#869=CARTESIAN_POINT('Ctrl Pts',(0.,27.9,11.25));
#870=CARTESIAN_POINT('Ctrl Pts',(27.9,27.9,11.25));
#871=CARTESIAN_POINT('Ctrl Pts',(27.9,0.,11.25));
#872=CARTESIAN_POINT('Ctrl Pts',(27.9,-27.9,11.25));
#873=CARTESIAN_POINT('Ctrl Pts',(0.,-27.9,11.25));
#874=CARTESIAN_POINT('Ctrl Pts',(-27.9,-27.9,11.25));
#875=CARTESIAN_POINT('Ctrl Pts',(-27.9,0.,11.25));
#876=CARTESIAN_POINT('',(0.,0.,17.));
#877=CARTESIAN_POINT('Ctrl Pts',(-27.9,0.,11.25));
#878=CARTESIAN_POINT('Ctrl Pts',(-26.784000000003,0.,11.6861237528682));
#879=CARTESIAN_POINT('Ctrl Pts',(-24.5520000000082,0.,12.5202847790938));
#880=CARTESIAN_POINT('Ctrl Pts',(-21.2040000000135,0.,13.6572703815028));
#881=CARTESIAN_POINT('Ctrl Pts',(-16.7400000000162,0.,14.940949588267));
#882=CARTESIAN_POINT('Ctrl Pts',(-11.1600000000139,0.,16.1321029893283));
#883=CARTESIAN_POINT('Ctrl Pts',(-6.69600000000892,0.,16.7247098319859));
#884=CARTESIAN_POINT('Ctrl Pts',(-3.34800000000449,0.,16.9499472421779));
#885=CARTESIAN_POINT('Ctrl Pts',(-1.11600000000149,0.,16.9999999999993));
#886=CARTESIAN_POINT('Ctrl Pts',(5.55111512312578E-16,0.,17.));
#887=UNCERTAINTY_MEASURE_WITH_UNIT(LENGTH_MEASURE(0.01),#891,
'DISTANCE_ACCURACY_VALUE',
'Maximum model space distance between geometric entities at asserted c
onnectivities');
#888=UNCERTAINTY_MEASURE_WITH_UNIT(LENGTH_MEASURE(0.01),#891,
'DISTANCE_ACCURACY_VALUE',
'Maximum model space distance between geometric entities at asserted c
onnectivities');
#889=(
GEOMETRIC_REPRESENTATION_CONTEXT(3)
GLOBAL_UNCERTAINTY_ASSIGNED_CONTEXT((#887))
GLOBAL_UNIT_ASSIGNED_CONTEXT((#891,#893,#894))
REPRESENTATION_CONTEXT('','3D')
);
#890=(
GEOMETRIC_REPRESENTATION_CONTEXT(3)
GLOBAL_UNCERTAINTY_ASSIGNED_CONTEXT((#888))
GLOBAL_UNIT_ASSIGNED_CONTEXT((#891,#893,#894))
REPRESENTATION_CONTEXT('','3D')
);
#891=(
LENGTH_UNIT()
NAMED_UNIT(*)
SI_UNIT(.MILLI.,.METRE.)
);
#892=(
LENGTH_UNIT()
NAMED_UNIT(*)
SI_UNIT($,.METRE.)
);
#893=(
NAMED_UNIT(*)
PLANE_ANGLE_UNIT()
SI_UNIT($,.RADIAN.)
);
#894=(
NAMED_UNIT(*)
SI_UNIT($,.STERADIAN.)
SOLID_ANGLE_UNIT()
);
#895=SHAPE_DEFINITION_REPRESENTATION(#896,#897);
#896=PRODUCT_DEFINITION_SHAPE('',$,#899);
#897=SHAPE_REPRESENTATION('',(#342),#889);
#898=PRODUCT_DEFINITION_CONTEXT('part definition',#903,'design');
#899=PRODUCT_DEFINITION('rotor cap','rotor cap',#900,#898);
#900=PRODUCT_DEFINITION_FORMATION('',$,#905);
#901=PRODUCT_RELATED_PRODUCT_CATEGORY('rotor cap','rotor cap',(#905));
#902=APPLICATION_PROTOCOL_DEFINITION('international standard',
'automotive_design',2009,#903);
#903=APPLICATION_CONTEXT(
'Core Data for Automotive Mechanical Design Process');
#904=PRODUCT_CONTEXT('part definition',#903,'mechanical');
#905=PRODUCT('rotor cap','rotor cap',$,(#904));
#906=PRESENTATION_STYLE_ASSIGNMENT((#908));
#907=PRESENTATION_STYLE_ASSIGNMENT((#909));
#908=SURFACE_STYLE_USAGE(.BOTH.,#910);
#909=SURFACE_STYLE_USAGE(.BOTH.,#911);
#910=SURFACE_SIDE_STYLE('',(#912));
#911=SURFACE_SIDE_STYLE('',(#913));
#912=SURFACE_STYLE_FILL_AREA(#914);
#913=SURFACE_STYLE_FILL_AREA(#915);
#914=FILL_AREA_STYLE(
'PA 12 - Nylon - PA 603-CF (with EOS P 3D Printers)',(#916));
#915=FILL_AREA_STYLE('ABS (White)',(#917));
#916=FILL_AREA_STYLE_COLOUR(
'PA 12 - Nylon - PA 603-CF (with EOS P 3D Printers)',#918);
#917=FILL_AREA_STYLE_COLOUR('ABS (White)',#919);
#918=COLOUR_RGB('PA 12 - Nylon - PA 603-CF (with EOS P 3D Printers)',0.247058823529412,
0.247058823529412,0.247058823529412);
#919=COLOUR_RGB('ABS (White)',0.964705882352941,0.964705882352941,0.952941176470588);
ENDSEC;
END-ISO-10303-21;
