ISO-10303-21;
HEADER;
/* Generated by software containing ST-Developer
 * from STEP Tools, Inc. (www.steptools.com) 
 */

FILE_DESCRIPTION(
/* description */ (''),
/* implementation_level */ '2;1');

FILE_NAME(
/* name */ 'Side handle.step',
/* time_stamp */ '2026-05-13T02:05:18+03:00',
/* author */ (''),
/* organization */ (''),
/* preprocessor_version */ 'ST-DEVELOPER v20.1',
/* originating_system */ 'Autodesk Translation Framework v15.8.0.0',
/* authorisation */ '');

FILE_SCHEMA (('AUTOMOTIVE_DESIGN { 1 0 10303 214 3 1 1 }'));
ENDSEC;

DATA;
#10=MECHANICAL_DESIGN_GEOMETRIC_PRESENTATION_REPRESENTATION('',(#13),#1263);
#11=SHAPE_REPRESENTATION_RELATIONSHIP('SRR','None',#1270,#12);
#12=ADVANCED_BREP_SHAPE_REPRESENTATION('',(#14),#1262);
#13=STYLED_ITEM('',(#1280),#14);
#14=MANIFOLD_SOLID_BREP('Body3',#634);
#15=FACE_BOUND('',#126,.T.);
#16=FACE_BOUND('',#128,.T.);
#17=SPHERICAL_SURFACE('',#667,4.);
#18=SPHERICAL_SURFACE('',#678,4.);
#19=SPHERICAL_SURFACE('',#682,4.);
#20=SPHERICAL_SURFACE('',#689,4.);
#21=SPHERICAL_SURFACE('',#695,4.);
#22=SPHERICAL_SURFACE('',#699,4.);
#23=PLANE('',#663);
#24=PLANE('',#712);
#25=PLANE('',#713);
#26=PLANE('',#714);
#27=PLANE('',#715);
#28=PLANE('',#716);
#29=PLANE('',#717);
#30=PLANE('',#718);
#31=PLANE('',#719);
#32=PLANE('',#720);
#33=PLANE('',#724);
#34=PLANE('',#725);
#35=ELLIPSE('',#662,5.65685424949238,4.);
#36=ELLIPSE('',#666,5.65685424949238,4.);
#37=ELLIPSE('',#672,5.65685424949238,4.);
#38=ELLIPSE('',#674,5.65685424949238,4.);
#39=ELLIPSE('',#677,5.65685424949238,4.);
#40=ELLIPSE('',#709,5.65685424949238,4.);
#41=B_SPLINE_SURFACE_WITH_KNOTS('',3,3,((#968,#969,#970,#971,#972,#973,
#974,#975),(#976,#977,#978,#979,#980,#981,#982,#983),(#984,#985,#986,#987,
#988,#989,#990,#991),(#992,#993,#994,#995,#996,#997,#998,#999),(#1000,#1001,
#1002,#1003,#1004,#1005,#1006,#1007),(#1008,#1009,#1010,#1011,#1012,#1013,
#1014,#1015),(#1016,#1017,#1018,#1019,#1020,#1021,#1022,#1023)),
 .UNSPECIFIED.,.F.,.F.,.F.,(4,1,1,1,4),(4,1,1,1,1,4),(0.,0.285714285714286,
0.571428571428571,0.785714285714286,1.),(0.,0.333877878339096,0.500816817508644,
0.667755756678192,0.83469469584774,1.16857257418684),.UNSPECIFIED.);
#42=B_SPLINE_SURFACE_WITH_KNOTS('',3,3,((#1038,#1039,#1040,#1041,#1042,
#1043,#1044,#1045,#1046),(#1047,#1048,#1049,#1050,#1051,#1052,#1053,#1054,
#1055),(#1056,#1057,#1058,#1059,#1060,#1061,#1062,#1063,#1064),(#1065,#1066,
#1067,#1068,#1069,#1070,#1071,#1072,#1073),(#1074,#1075,#1076,#1077,#1078,
#1079,#1080,#1081,#1082),(#1083,#1084,#1085,#1086,#1087,#1088,#1089,#1090,
#1091),(#1092,#1093,#1094,#1095,#1096,#1097,#1098,#1099,#1100)),
 .UNSPECIFIED.,.F.,.F.,.F.,(4,1,1,1,4),(4,1,1,1,1,1,4),(0.,0.285714285714286,
0.571428571428571,0.785714285714286,1.),(0.,0.166938939169521,0.500816817508563,
0.667755756678083,0.834694695847604,1.00163363501713,1.16857257418665),
 .UNSPECIFIED.);
#43=TOROIDAL_SURFACE('',#652,8.,1.);
#44=TOROIDAL_SURFACE('',#657,8.,1.);
#45=FACE_OUTER_BOUND('',#86,.T.);
#46=FACE_OUTER_BOUND('',#87,.T.);
#47=FACE_OUTER_BOUND('',#88,.T.);
#48=FACE_OUTER_BOUND('',#89,.T.);
#49=FACE_OUTER_BOUND('',#90,.T.);
#50=FACE_OUTER_BOUND('',#91,.T.);
#51=FACE_OUTER_BOUND('',#92,.T.);
#52=FACE_OUTER_BOUND('',#93,.T.);
#53=FACE_OUTER_BOUND('',#94,.T.);
#54=FACE_OUTER_BOUND('',#95,.T.);
#55=FACE_OUTER_BOUND('',#96,.T.);
#56=FACE_OUTER_BOUND('',#97,.T.);
#57=FACE_OUTER_BOUND('',#98,.T.);
#58=FACE_OUTER_BOUND('',#99,.T.);
#59=FACE_OUTER_BOUND('',#100,.T.);
#60=FACE_OUTER_BOUND('',#101,.T.);
#61=FACE_OUTER_BOUND('',#102,.T.);
#62=FACE_OUTER_BOUND('',#103,.T.);
#63=FACE_OUTER_BOUND('',#104,.T.);
#64=FACE_OUTER_BOUND('',#105,.T.);
#65=FACE_OUTER_BOUND('',#106,.T.);
#66=FACE_OUTER_BOUND('',#107,.T.);
#67=FACE_OUTER_BOUND('',#108,.T.);
#68=FACE_OUTER_BOUND('',#109,.T.);
#69=FACE_OUTER_BOUND('',#110,.T.);
#70=FACE_OUTER_BOUND('',#111,.T.);
#71=FACE_OUTER_BOUND('',#112,.T.);
#72=FACE_OUTER_BOUND('',#113,.T.);
#73=FACE_OUTER_BOUND('',#114,.T.);
#74=FACE_OUTER_BOUND('',#115,.T.);
#75=FACE_OUTER_BOUND('',#116,.T.);
#76=FACE_OUTER_BOUND('',#117,.T.);
#77=FACE_OUTER_BOUND('',#118,.T.);
#78=FACE_OUTER_BOUND('',#119,.T.);
#79=FACE_OUTER_BOUND('',#120,.T.);
#80=FACE_OUTER_BOUND('',#121,.T.);
#81=FACE_OUTER_BOUND('',#122,.T.);
#82=FACE_OUTER_BOUND('',#123,.T.);
#83=FACE_OUTER_BOUND('',#124,.T.);
#84=FACE_OUTER_BOUND('',#125,.T.);
#85=FACE_OUTER_BOUND('',#127,.T.);
#86=EDGE_LOOP('',(#396,#397,#398,#399,#400,#401,#402,#403));
#87=EDGE_LOOP('',(#404,#405,#406,#407));
#88=EDGE_LOOP('',(#408,#409,#410,#411));
#89=EDGE_LOOP('',(#412,#413,#414,#415));
#90=EDGE_LOOP('',(#416,#417,#418,#419,#420));
#91=EDGE_LOOP('',(#421,#422,#423,#424,#425,#426));
#92=EDGE_LOOP('',(#427,#428,#429,#430));
#93=EDGE_LOOP('',(#431,#432,#433,#434));
#94=EDGE_LOOP('',(#435,#436,#437));
#95=EDGE_LOOP('',(#438,#439,#440,#441));
#96=EDGE_LOOP('',(#442,#443,#444,#445));
#97=EDGE_LOOP('',(#446,#447,#448,#449));
#98=EDGE_LOOP('',(#450,#451,#452));
#99=EDGE_LOOP('',(#453,#454,#455));
#100=EDGE_LOOP('',(#456,#457,#458,#459));
#101=EDGE_LOOP('',(#460,#461,#462,#463));
#102=EDGE_LOOP('',(#464,#465,#466));
#103=EDGE_LOOP('',(#467,#468,#469,#470,#471,#472));
#104=EDGE_LOOP('',(#473,#474,#475,#476));
#105=EDGE_LOOP('',(#477,#478,#479));
#106=EDGE_LOOP('',(#480,#481,#482));
#107=EDGE_LOOP('',(#483,#484,#485,#486));
#108=EDGE_LOOP('',(#487,#488,#489,#490));
#109=EDGE_LOOP('',(#491,#492,#493,#494));
#110=EDGE_LOOP('',(#495,#496,#497,#498));
#111=EDGE_LOOP('',(#499,#500,#501,#502));
#112=EDGE_LOOP('',(#503,#504,#505,#506));
#113=EDGE_LOOP('',(#507,#508,#509,#510));
#114=EDGE_LOOP('',(#511,#512,#513,#514));
#115=EDGE_LOOP('',(#515,#516,#517,#518,#519,#520,#521,#522));
#116=EDGE_LOOP('',(#523,#524,#525,#526));
#117=EDGE_LOOP('',(#527,#528,#529,#530));
#118=EDGE_LOOP('',(#531,#532,#533,#534));
#119=EDGE_LOOP('',(#535,#536,#537,#538));
#120=EDGE_LOOP('',(#539,#540,#541,#542));
#121=EDGE_LOOP('',(#543,#544,#545,#546));
#122=EDGE_LOOP('',(#547,#548,#549,#550));
#123=EDGE_LOOP('',(#551,#552,#553,#554,#555,#556,#557,#558));
#124=EDGE_LOOP('',(#559,#560,#561,#562));
#125=EDGE_LOOP('',(#563));
#126=EDGE_LOOP('',(#564));
#127=EDGE_LOOP('',(#565,#566,#567,#568,#569,#570,#571,#572));
#128=EDGE_LOOP('',(#573));
#129=LINE('',#943,#174);
#130=LINE('',#1112,#175);
#131=LINE('',#1116,#176);
#132=LINE('',#1119,#177);
#133=LINE('',#1122,#178);
#134=LINE('',#1123,#179);
#135=LINE('',#1127,#180);
#136=LINE('',#1131,#181);
#137=LINE('',#1142,#182);
#138=LINE('',#1144,#183);
#139=LINE('',#1148,#184);
#140=LINE('',#1151,#185);
#141=LINE('',#1155,#186);
#142=LINE('',#1159,#187);
#143=LINE('',#1176,#188);
#144=LINE('',#1177,#189);
#145=LINE('',#1180,#190);
#146=LINE('',#1183,#191);
#147=LINE('',#1191,#192);
#148=LINE('',#1192,#193);
#149=LINE('',#1194,#194);
#150=LINE('',#1195,#195);
#151=LINE('',#1208,#196);
#152=LINE('',#1210,#197);
#153=LINE('',#1211,#198);
#154=LINE('',#1213,#199);
#155=LINE('',#1214,#200);
#156=LINE('',#1216,#201);
#157=LINE('',#1217,#202);
#158=LINE('',#1219,#203);
#159=LINE('',#1220,#204);
#160=LINE('',#1222,#205);
#161=LINE('',#1223,#206);
#162=LINE('',#1226,#207);
#163=LINE('',#1228,#208);
#164=LINE('',#1232,#209);
#165=LINE('',#1235,#210);
#166=LINE('',#1237,#211);
#167=LINE('',#1239,#212);
#168=LINE('',#1240,#213);
#169=LINE('',#1242,#214);
#170=LINE('',#1244,#215);
#171=LINE('',#1248,#216);
#172=LINE('',#1251,#217);
#173=LINE('',#1256,#218);
#174=VECTOR('',#732,7.);
#175=VECTOR('',#755,10.);
#176=VECTOR('',#758,10.);
#177=VECTOR('',#761,10.);
#178=VECTOR('',#764,10.);
#179=VECTOR('',#765,10.);
#180=VECTOR('',#768,10.);
#181=VECTOR('',#771,10.);
#182=VECTOR('',#784,10.);
#183=VECTOR('',#785,10.);
#184=VECTOR('',#790,10.);
#185=VECTOR('',#793,10.);
#186=VECTOR('',#796,10.);
#187=VECTOR('',#799,10.);
#188=VECTOR('',#820,10.);
#189=VECTOR('',#821,10.);
#190=VECTOR('',#824,10.);
#191=VECTOR('',#827,10.);
#192=VECTOR('',#838,10.);
#193=VECTOR('',#839,10.);
#194=VECTOR('',#842,10.);
#195=VECTOR('',#843,10.);
#196=VECTOR('',#860,10.);
#197=VECTOR('',#863,10.);
#198=VECTOR('',#864,10.);
#199=VECTOR('',#867,10.);
#200=VECTOR('',#868,10.);
#201=VECTOR('',#871,10.);
#202=VECTOR('',#872,10.);
#203=VECTOR('',#875,10.);
#204=VECTOR('',#876,10.);
#205=VECTOR('',#879,10.);
#206=VECTOR('',#880,10.);
#207=VECTOR('',#883,10.);
#208=VECTOR('',#884,10.);
#209=VECTOR('',#889,10.);
#210=VECTOR('',#892,10.);
#211=VECTOR('',#895,10.);
#212=VECTOR('',#898,10.);
#213=VECTOR('',#899,10.);
#214=VECTOR('',#902,10.);
#215=VECTOR('',#905,10.);
#216=VECTOR('',#912,10.);
#217=VECTOR('',#917,10.);
#218=VECTOR('',#922,3.);
#219=B_SPLINE_CURVE_WITH_KNOTS('',3,(#935,#936,#937,#938,#939,#940,#941),
 .UNSPECIFIED.,.F.,.F.,(4,1,1,1,4),(0.584283888598809,0.667755756678083,
0.834694695847604,1.00163363501713,1.16857257418665),.UNSPECIFIED.);
#220=B_SPLINE_CURVE_WITH_KNOTS('',3,(#946,#947,#948,#949,#950,#951),
 .UNSPECIFIED.,.F.,.F.,(4,1,1,4),(0.,0.166938939169521,0.500816817508563,
0.584283888598809),.UNSPECIFIED.);
#221=B_SPLINE_CURVE_WITH_KNOTS('',3,(#954,#955,#956,#957,#958,#959,#960,
#961),.UNSPECIFIED.,.F.,.F.,(4,1,1,1,1,4),(0.,0.333877878339096,0.500816817508644,
0.667755756678192,0.83469469584774,1.16857257418684),.UNSPECIFIED.);
#222=B_SPLINE_CURVE_WITH_KNOTS('',3,(#1026,#1027,#1028,#1029,#1030,#1031,
#1032,#1033),.UNSPECIFIED.,.F.,.F.,(4,1,1,1,1,4),(-1.16857257418684,-0.83469469584774,
-0.667755756678192,-0.500816817508644,-0.333877878339096,0.),
 .UNSPECIFIED.);
#223=B_SPLINE_CURVE_WITH_KNOTS('',3,(#1101,#1102,#1103,#1104,#1105,#1106,
#1107,#1108,#1109),.UNSPECIFIED.,.F.,.F.,(4,1,1,1,1,1,4),(-1.16857257418665,
-1.00163363501713,-0.834694695847604,-0.667755756678083,-0.500816817508563,
-0.166938939169521,0.),.UNSPECIFIED.);
#224=CIRCLE('',#649,7.);
#225=CIRCLE('',#650,7.);
#226=CIRCLE('',#651,7.);
#227=CIRCLE('',#653,0.999999999999996);
#228=CIRCLE('',#654,1.);
#229=CIRCLE('',#655,8.);
#230=CIRCLE('',#656,1.);
#231=CIRCLE('',#658,1.);
#232=CIRCLE('',#659,8.);
#233=CIRCLE('',#661,4.);
#234=CIRCLE('',#665,4.);
#235=CIRCLE('',#668,4.);
#236=CIRCLE('',#669,4.);
#237=CIRCLE('',#670,4.);
#238=CIRCLE('',#676,4.);
#239=CIRCLE('',#679,4.);
#240=CIRCLE('',#680,4.);
#241=CIRCLE('',#681,4.);
#242=CIRCLE('',#683,4.);
#243=CIRCLE('',#684,4.);
#244=CIRCLE('',#685,4.);
#245=CIRCLE('',#688,4.);
#246=CIRCLE('',#690,4.);
#247=CIRCLE('',#691,4.);
#248=CIRCLE('',#692,3.99999999999999);
#249=CIRCLE('',#696,4.);
#250=CIRCLE('',#697,4.);
#251=CIRCLE('',#698,4.);
#252=CIRCLE('',#700,4.);
#253=CIRCLE('',#701,3.99999999999999);
#254=CIRCLE('',#711,4.);
#255=CIRCLE('',#722,3.);
#256=CIRCLE('',#723,3.);
#257=VERTEX_POINT('',#931);
#258=VERTEX_POINT('',#932);
#259=VERTEX_POINT('',#934);
#260=VERTEX_POINT('',#942);
#261=VERTEX_POINT('',#945);
#262=VERTEX_POINT('',#952);
#263=VERTEX_POINT('',#963);
#264=VERTEX_POINT('',#965);
#265=VERTEX_POINT('',#1024);
#266=VERTEX_POINT('',#1035);
#267=VERTEX_POINT('',#1111);
#268=VERTEX_POINT('',#1113);
#269=VERTEX_POINT('',#1115);
#270=VERTEX_POINT('',#1117);
#271=VERTEX_POINT('',#1121);
#272=VERTEX_POINT('',#1125);
#273=VERTEX_POINT('',#1126);
#274=VERTEX_POINT('',#1128);
#275=VERTEX_POINT('',#1130);
#276=VERTEX_POINT('',#1134);
#277=VERTEX_POINT('',#1135);
#278=VERTEX_POINT('',#1137);
#279=VERTEX_POINT('',#1141);
#280=VERTEX_POINT('',#1143);
#281=VERTEX_POINT('',#1147);
#282=VERTEX_POINT('',#1149);
#283=VERTEX_POINT('',#1153);
#284=VERTEX_POINT('',#1154);
#285=VERTEX_POINT('',#1156);
#286=VERTEX_POINT('',#1158);
#287=VERTEX_POINT('',#1162);
#288=VERTEX_POINT('',#1163);
#289=VERTEX_POINT('',#1165);
#290=VERTEX_POINT('',#1169);
#291=VERTEX_POINT('',#1170);
#292=VERTEX_POINT('',#1172);
#293=VERTEX_POINT('',#1179);
#294=VERTEX_POINT('',#1181);
#295=VERTEX_POINT('',#1185);
#296=VERTEX_POINT('',#1187);
#297=VERTEX_POINT('',#1197);
#298=VERTEX_POINT('',#1198);
#299=VERTEX_POINT('',#1200);
#300=VERTEX_POINT('',#1204);
#301=VERTEX_POINT('',#1225);
#302=VERTEX_POINT('',#1227);
#303=VERTEX_POINT('',#1231);
#304=VERTEX_POINT('',#1233);
#305=VERTEX_POINT('',#1253);
#306=VERTEX_POINT('',#1255);
#307=EDGE_CURVE('',#257,#258,#224,.T.);
#308=EDGE_CURVE('',#259,#257,#219,.T.);
#309=EDGE_CURVE('',#259,#260,#129,.T.);
#310=EDGE_CURVE('',#260,#260,#225,.T.);
#311=EDGE_CURVE('',#261,#259,#220,.T.);
#312=EDGE_CURVE('',#262,#261,#226,.T.);
#313=EDGE_CURVE('',#258,#262,#221,.T.);
#314=EDGE_CURVE('',#263,#257,#227,.T.);
#315=EDGE_CURVE('',#258,#264,#228,.T.);
#316=EDGE_CURVE('',#264,#263,#229,.T.);
#317=EDGE_CURVE('',#262,#265,#230,.T.);
#318=EDGE_CURVE('',#265,#264,#222,.T.);
#319=EDGE_CURVE('',#261,#266,#231,.T.);
#320=EDGE_CURVE('',#266,#265,#232,.T.);
#321=EDGE_CURVE('',#263,#266,#223,.T.);
#322=EDGE_CURVE('',#263,#267,#130,.T.);
#323=EDGE_CURVE('',#267,#268,#233,.F.);
#324=EDGE_CURVE('',#268,#269,#131,.T.);
#325=EDGE_CURVE('',#270,#269,#35,.T.);
#326=EDGE_CURVE('',#270,#266,#132,.T.);
#327=EDGE_CURVE('',#271,#264,#133,.T.);
#328=EDGE_CURVE('',#267,#271,#134,.T.);
#329=EDGE_CURVE('',#272,#273,#135,.T.);
#330=EDGE_CURVE('',#273,#274,#234,.T.);
#331=EDGE_CURVE('',#274,#275,#136,.T.);
#332=EDGE_CURVE('',#275,#272,#36,.T.);
#333=EDGE_CURVE('',#276,#277,#235,.F.);
#334=EDGE_CURVE('',#278,#276,#236,.F.);
#335=EDGE_CURVE('',#277,#278,#237,.F.);
#336=EDGE_CURVE('',#279,#278,#137,.T.);
#337=EDGE_CURVE('',#276,#280,#138,.T.);
#338=EDGE_CURVE('',#280,#279,#37,.T.);
#339=EDGE_CURVE('',#275,#281,#139,.T.);
#340=EDGE_CURVE('',#281,#282,#38,.T.);
#341=EDGE_CURVE('',#282,#272,#140,.T.);
#342=EDGE_CURVE('',#283,#284,#141,.T.);
#343=EDGE_CURVE('',#284,#285,#238,.T.);
#344=EDGE_CURVE('',#285,#286,#142,.T.);
#345=EDGE_CURVE('',#286,#283,#39,.T.);
#346=EDGE_CURVE('',#287,#288,#239,.F.);
#347=EDGE_CURVE('',#289,#287,#240,.F.);
#348=EDGE_CURVE('',#288,#289,#241,.F.);
#349=EDGE_CURVE('',#290,#291,#242,.F.);
#350=EDGE_CURVE('',#292,#290,#243,.F.);
#351=EDGE_CURVE('',#291,#292,#244,.F.);
#352=EDGE_CURVE('',#281,#292,#143,.T.);
#353=EDGE_CURVE('',#290,#282,#144,.T.);
#354=EDGE_CURVE('',#269,#293,#145,.T.);
#355=EDGE_CURVE('',#293,#294,#245,.T.);
#356=EDGE_CURVE('',#294,#270,#146,.T.);
#357=EDGE_CURVE('',#271,#295,#246,.F.);
#358=EDGE_CURVE('',#296,#271,#247,.F.);
#359=EDGE_CURVE('',#295,#296,#248,.F.);
#360=EDGE_CURVE('',#265,#283,#147,.T.);
#361=EDGE_CURVE('',#286,#296,#148,.T.);
#362=EDGE_CURVE('',#287,#295,#149,.T.);
#363=EDGE_CURVE('',#296,#289,#150,.T.);
#364=EDGE_CURVE('',#297,#298,#249,.F.);
#365=EDGE_CURVE('',#299,#297,#250,.F.);
#366=EDGE_CURVE('',#298,#299,#251,.F.);
#367=EDGE_CURVE('',#268,#300,#252,.F.);
#368=EDGE_CURVE('',#300,#267,#253,.F.);
#369=EDGE_CURVE('',#295,#300,#151,.T.);
#370=EDGE_CURVE('',#297,#268,#152,.T.);
#371=EDGE_CURVE('',#300,#299,#153,.T.);
#372=EDGE_CURVE('',#288,#298,#154,.T.);
#373=EDGE_CURVE('',#299,#287,#155,.T.);
#374=EDGE_CURVE('',#298,#291,#156,.T.);
#375=EDGE_CURVE('',#292,#297,#157,.T.);
#376=EDGE_CURVE('',#291,#277,#158,.T.);
#377=EDGE_CURVE('',#278,#290,#159,.T.);
#378=EDGE_CURVE('',#277,#288,#160,.T.);
#379=EDGE_CURVE('',#289,#276,#161,.T.);
#380=EDGE_CURVE('',#301,#279,#162,.T.);
#381=EDGE_CURVE('',#280,#302,#163,.T.);
#382=EDGE_CURVE('',#302,#301,#40,.T.);
#383=EDGE_CURVE('',#302,#303,#164,.T.);
#384=EDGE_CURVE('',#303,#304,#254,.T.);
#385=EDGE_CURVE('',#304,#301,#165,.T.);
#386=EDGE_CURVE('',#303,#285,#166,.T.);
#387=EDGE_CURVE('',#273,#304,#167,.T.);
#388=EDGE_CURVE('',#272,#301,#168,.T.);
#389=EDGE_CURVE('',#270,#283,#169,.T.);
#390=EDGE_CURVE('',#284,#294,#170,.T.);
#391=EDGE_CURVE('',#282,#279,#171,.T.);
#392=EDGE_CURVE('',#293,#274,#172,.T.);
#393=EDGE_CURVE('',#305,#305,#255,.T.);
#394=EDGE_CURVE('',#305,#306,#173,.T.);
#395=EDGE_CURVE('',#306,#306,#256,.T.);
#396=ORIENTED_EDGE('',*,*,#307,.F.);
#397=ORIENTED_EDGE('',*,*,#308,.F.);
#398=ORIENTED_EDGE('',*,*,#309,.T.);
#399=ORIENTED_EDGE('',*,*,#310,.F.);
#400=ORIENTED_EDGE('',*,*,#309,.F.);
#401=ORIENTED_EDGE('',*,*,#311,.F.);
#402=ORIENTED_EDGE('',*,*,#312,.F.);
#403=ORIENTED_EDGE('',*,*,#313,.F.);
#404=ORIENTED_EDGE('',*,*,#314,.T.);
#405=ORIENTED_EDGE('',*,*,#307,.T.);
#406=ORIENTED_EDGE('',*,*,#315,.T.);
#407=ORIENTED_EDGE('',*,*,#316,.T.);
#408=ORIENTED_EDGE('',*,*,#317,.T.);
#409=ORIENTED_EDGE('',*,*,#318,.T.);
#410=ORIENTED_EDGE('',*,*,#315,.F.);
#411=ORIENTED_EDGE('',*,*,#313,.T.);
#412=ORIENTED_EDGE('',*,*,#319,.T.);
#413=ORIENTED_EDGE('',*,*,#320,.T.);
#414=ORIENTED_EDGE('',*,*,#317,.F.);
#415=ORIENTED_EDGE('',*,*,#312,.T.);
#416=ORIENTED_EDGE('',*,*,#314,.F.);
#417=ORIENTED_EDGE('',*,*,#321,.T.);
#418=ORIENTED_EDGE('',*,*,#319,.F.);
#419=ORIENTED_EDGE('',*,*,#311,.T.);
#420=ORIENTED_EDGE('',*,*,#308,.T.);
#421=ORIENTED_EDGE('',*,*,#321,.F.);
#422=ORIENTED_EDGE('',*,*,#322,.T.);
#423=ORIENTED_EDGE('',*,*,#323,.T.);
#424=ORIENTED_EDGE('',*,*,#324,.T.);
#425=ORIENTED_EDGE('',*,*,#325,.F.);
#426=ORIENTED_EDGE('',*,*,#326,.T.);
#427=ORIENTED_EDGE('',*,*,#316,.F.);
#428=ORIENTED_EDGE('',*,*,#327,.F.);
#429=ORIENTED_EDGE('',*,*,#328,.F.);
#430=ORIENTED_EDGE('',*,*,#322,.F.);
#431=ORIENTED_EDGE('',*,*,#329,.T.);
#432=ORIENTED_EDGE('',*,*,#330,.T.);
#433=ORIENTED_EDGE('',*,*,#331,.T.);
#434=ORIENTED_EDGE('',*,*,#332,.T.);
#435=ORIENTED_EDGE('',*,*,#333,.F.);
#436=ORIENTED_EDGE('',*,*,#334,.F.);
#437=ORIENTED_EDGE('',*,*,#335,.F.);
#438=ORIENTED_EDGE('',*,*,#336,.T.);
#439=ORIENTED_EDGE('',*,*,#334,.T.);
#440=ORIENTED_EDGE('',*,*,#337,.T.);
#441=ORIENTED_EDGE('',*,*,#338,.T.);
#442=ORIENTED_EDGE('',*,*,#339,.T.);
#443=ORIENTED_EDGE('',*,*,#340,.T.);
#444=ORIENTED_EDGE('',*,*,#341,.T.);
#445=ORIENTED_EDGE('',*,*,#332,.F.);
#446=ORIENTED_EDGE('',*,*,#342,.T.);
#447=ORIENTED_EDGE('',*,*,#343,.T.);
#448=ORIENTED_EDGE('',*,*,#344,.T.);
#449=ORIENTED_EDGE('',*,*,#345,.T.);
#450=ORIENTED_EDGE('',*,*,#346,.F.);
#451=ORIENTED_EDGE('',*,*,#347,.F.);
#452=ORIENTED_EDGE('',*,*,#348,.F.);
#453=ORIENTED_EDGE('',*,*,#349,.F.);
#454=ORIENTED_EDGE('',*,*,#350,.F.);
#455=ORIENTED_EDGE('',*,*,#351,.F.);
#456=ORIENTED_EDGE('',*,*,#352,.T.);
#457=ORIENTED_EDGE('',*,*,#350,.T.);
#458=ORIENTED_EDGE('',*,*,#353,.T.);
#459=ORIENTED_EDGE('',*,*,#340,.F.);
#460=ORIENTED_EDGE('',*,*,#354,.T.);
#461=ORIENTED_EDGE('',*,*,#355,.T.);
#462=ORIENTED_EDGE('',*,*,#356,.T.);
#463=ORIENTED_EDGE('',*,*,#325,.T.);
#464=ORIENTED_EDGE('',*,*,#357,.F.);
#465=ORIENTED_EDGE('',*,*,#358,.F.);
#466=ORIENTED_EDGE('',*,*,#359,.F.);
#467=ORIENTED_EDGE('',*,*,#318,.F.);
#468=ORIENTED_EDGE('',*,*,#360,.T.);
#469=ORIENTED_EDGE('',*,*,#345,.F.);
#470=ORIENTED_EDGE('',*,*,#361,.T.);
#471=ORIENTED_EDGE('',*,*,#358,.T.);
#472=ORIENTED_EDGE('',*,*,#327,.T.);
#473=ORIENTED_EDGE('',*,*,#347,.T.);
#474=ORIENTED_EDGE('',*,*,#362,.T.);
#475=ORIENTED_EDGE('',*,*,#359,.T.);
#476=ORIENTED_EDGE('',*,*,#363,.T.);
#477=ORIENTED_EDGE('',*,*,#364,.F.);
#478=ORIENTED_EDGE('',*,*,#365,.F.);
#479=ORIENTED_EDGE('',*,*,#366,.F.);
#480=ORIENTED_EDGE('',*,*,#367,.F.);
#481=ORIENTED_EDGE('',*,*,#323,.F.);
#482=ORIENTED_EDGE('',*,*,#368,.F.);
#483=ORIENTED_EDGE('',*,*,#357,.T.);
#484=ORIENTED_EDGE('',*,*,#369,.T.);
#485=ORIENTED_EDGE('',*,*,#368,.T.);
#486=ORIENTED_EDGE('',*,*,#328,.T.);
#487=ORIENTED_EDGE('',*,*,#365,.T.);
#488=ORIENTED_EDGE('',*,*,#370,.T.);
#489=ORIENTED_EDGE('',*,*,#367,.T.);
#490=ORIENTED_EDGE('',*,*,#371,.T.);
#491=ORIENTED_EDGE('',*,*,#346,.T.);
#492=ORIENTED_EDGE('',*,*,#372,.T.);
#493=ORIENTED_EDGE('',*,*,#366,.T.);
#494=ORIENTED_EDGE('',*,*,#373,.T.);
#495=ORIENTED_EDGE('',*,*,#364,.T.);
#496=ORIENTED_EDGE('',*,*,#374,.T.);
#497=ORIENTED_EDGE('',*,*,#351,.T.);
#498=ORIENTED_EDGE('',*,*,#375,.T.);
#499=ORIENTED_EDGE('',*,*,#349,.T.);
#500=ORIENTED_EDGE('',*,*,#376,.T.);
#501=ORIENTED_EDGE('',*,*,#335,.T.);
#502=ORIENTED_EDGE('',*,*,#377,.T.);
#503=ORIENTED_EDGE('',*,*,#333,.T.);
#504=ORIENTED_EDGE('',*,*,#378,.T.);
#505=ORIENTED_EDGE('',*,*,#348,.T.);
#506=ORIENTED_EDGE('',*,*,#379,.T.);
#507=ORIENTED_EDGE('',*,*,#380,.T.);
#508=ORIENTED_EDGE('',*,*,#338,.F.);
#509=ORIENTED_EDGE('',*,*,#381,.T.);
#510=ORIENTED_EDGE('',*,*,#382,.T.);
#511=ORIENTED_EDGE('',*,*,#383,.T.);
#512=ORIENTED_EDGE('',*,*,#384,.T.);
#513=ORIENTED_EDGE('',*,*,#385,.T.);
#514=ORIENTED_EDGE('',*,*,#382,.F.);
#515=ORIENTED_EDGE('',*,*,#383,.F.);
#516=ORIENTED_EDGE('',*,*,#381,.F.);
#517=ORIENTED_EDGE('',*,*,#337,.F.);
#518=ORIENTED_EDGE('',*,*,#379,.F.);
#519=ORIENTED_EDGE('',*,*,#363,.F.);
#520=ORIENTED_EDGE('',*,*,#361,.F.);
#521=ORIENTED_EDGE('',*,*,#344,.F.);
#522=ORIENTED_EDGE('',*,*,#386,.F.);
#523=ORIENTED_EDGE('',*,*,#385,.F.);
#524=ORIENTED_EDGE('',*,*,#387,.F.);
#525=ORIENTED_EDGE('',*,*,#329,.F.);
#526=ORIENTED_EDGE('',*,*,#388,.T.);
#527=ORIENTED_EDGE('',*,*,#320,.F.);
#528=ORIENTED_EDGE('',*,*,#326,.F.);
#529=ORIENTED_EDGE('',*,*,#389,.T.);
#530=ORIENTED_EDGE('',*,*,#360,.F.);
#531=ORIENTED_EDGE('',*,*,#342,.F.);
#532=ORIENTED_EDGE('',*,*,#389,.F.);
#533=ORIENTED_EDGE('',*,*,#356,.F.);
#534=ORIENTED_EDGE('',*,*,#390,.F.);
#535=ORIENTED_EDGE('',*,*,#362,.F.);
#536=ORIENTED_EDGE('',*,*,#373,.F.);
#537=ORIENTED_EDGE('',*,*,#371,.F.);
#538=ORIENTED_EDGE('',*,*,#369,.F.);
#539=ORIENTED_EDGE('',*,*,#372,.F.);
#540=ORIENTED_EDGE('',*,*,#378,.F.);
#541=ORIENTED_EDGE('',*,*,#376,.F.);
#542=ORIENTED_EDGE('',*,*,#374,.F.);
#543=ORIENTED_EDGE('',*,*,#336,.F.);
#544=ORIENTED_EDGE('',*,*,#391,.F.);
#545=ORIENTED_EDGE('',*,*,#353,.F.);
#546=ORIENTED_EDGE('',*,*,#377,.F.);
#547=ORIENTED_EDGE('',*,*,#380,.F.);
#548=ORIENTED_EDGE('',*,*,#388,.F.);
#549=ORIENTED_EDGE('',*,*,#341,.F.);
#550=ORIENTED_EDGE('',*,*,#391,.T.);
#551=ORIENTED_EDGE('',*,*,#331,.F.);
#552=ORIENTED_EDGE('',*,*,#392,.F.);
#553=ORIENTED_EDGE('',*,*,#354,.F.);
#554=ORIENTED_EDGE('',*,*,#324,.F.);
#555=ORIENTED_EDGE('',*,*,#370,.F.);
#556=ORIENTED_EDGE('',*,*,#375,.F.);
#557=ORIENTED_EDGE('',*,*,#352,.F.);
#558=ORIENTED_EDGE('',*,*,#339,.F.);
#559=ORIENTED_EDGE('',*,*,#393,.F.);
#560=ORIENTED_EDGE('',*,*,#394,.T.);
#561=ORIENTED_EDGE('',*,*,#395,.T.);
#562=ORIENTED_EDGE('',*,*,#394,.F.);
#563=ORIENTED_EDGE('',*,*,#310,.T.);
#564=ORIENTED_EDGE('',*,*,#393,.T.);
#565=ORIENTED_EDGE('',*,*,#384,.F.);
#566=ORIENTED_EDGE('',*,*,#386,.T.);
#567=ORIENTED_EDGE('',*,*,#343,.F.);
#568=ORIENTED_EDGE('',*,*,#390,.T.);
#569=ORIENTED_EDGE('',*,*,#355,.F.);
#570=ORIENTED_EDGE('',*,*,#392,.T.);
#571=ORIENTED_EDGE('',*,*,#330,.F.);
#572=ORIENTED_EDGE('',*,*,#387,.T.);
#573=ORIENTED_EDGE('',*,*,#395,.F.);
#574=CYLINDRICAL_SURFACE('',#648,7.);
#575=CYLINDRICAL_SURFACE('',#660,4.);
#576=CYLINDRICAL_SURFACE('',#664,4.);
#577=CYLINDRICAL_SURFACE('',#671,4.);
#578=CYLINDRICAL_SURFACE('',#673,4.);
#579=CYLINDRICAL_SURFACE('',#675,4.);
#580=CYLINDRICAL_SURFACE('',#686,4.);
#581=CYLINDRICAL_SURFACE('',#687,4.);
#582=CYLINDRICAL_SURFACE('',#693,4.);
#583=CYLINDRICAL_SURFACE('',#694,4.);
#584=CYLINDRICAL_SURFACE('',#702,4.);
#585=CYLINDRICAL_SURFACE('',#703,4.);
#586=CYLINDRICAL_SURFACE('',#704,4.);
#587=CYLINDRICAL_SURFACE('',#705,4.);
#588=CYLINDRICAL_SURFACE('',#706,4.);
#589=CYLINDRICAL_SURFACE('',#707,4.);
#590=CYLINDRICAL_SURFACE('',#708,4.);
#591=CYLINDRICAL_SURFACE('',#710,4.);
#592=CYLINDRICAL_SURFACE('',#721,3.);
#593=ADVANCED_FACE('',(#45),#574,.F.);
#594=ADVANCED_FACE('',(#46),#43,.T.);
#595=ADVANCED_FACE('',(#47),#41,.F.);
#596=ADVANCED_FACE('',(#48),#44,.T.);
#597=ADVANCED_FACE('',(#49),#42,.F.);
#598=ADVANCED_FACE('',(#50),#575,.T.);
#599=ADVANCED_FACE('',(#51),#23,.T.);
#600=ADVANCED_FACE('',(#52),#576,.T.);
#601=ADVANCED_FACE('',(#53),#17,.T.);
#602=ADVANCED_FACE('',(#54),#577,.T.);
#603=ADVANCED_FACE('',(#55),#578,.T.);
#604=ADVANCED_FACE('',(#56),#579,.T.);
#605=ADVANCED_FACE('',(#57),#18,.T.);
#606=ADVANCED_FACE('',(#58),#19,.T.);
#607=ADVANCED_FACE('',(#59),#580,.T.);
#608=ADVANCED_FACE('',(#60),#581,.T.);
#609=ADVANCED_FACE('',(#61),#20,.T.);
#610=ADVANCED_FACE('',(#62),#582,.T.);
#611=ADVANCED_FACE('',(#63),#583,.T.);
#612=ADVANCED_FACE('',(#64),#21,.T.);
#613=ADVANCED_FACE('',(#65),#22,.T.);
#614=ADVANCED_FACE('',(#66),#584,.T.);
#615=ADVANCED_FACE('',(#67),#585,.T.);
#616=ADVANCED_FACE('',(#68),#586,.T.);
#617=ADVANCED_FACE('',(#69),#587,.T.);
#618=ADVANCED_FACE('',(#70),#588,.T.);
#619=ADVANCED_FACE('',(#71),#589,.T.);
#620=ADVANCED_FACE('',(#72),#590,.T.);
#621=ADVANCED_FACE('',(#73),#591,.T.);
#622=ADVANCED_FACE('',(#74),#24,.T.);
#623=ADVANCED_FACE('',(#75),#25,.T.);
#624=ADVANCED_FACE('',(#76),#26,.T.);
#625=ADVANCED_FACE('',(#77),#27,.T.);
#626=ADVANCED_FACE('',(#78),#28,.T.);
#627=ADVANCED_FACE('',(#79),#29,.T.);
#628=ADVANCED_FACE('',(#80),#30,.T.);
#629=ADVANCED_FACE('',(#81),#31,.T.);
#630=ADVANCED_FACE('',(#82),#32,.T.);
#631=ADVANCED_FACE('',(#83),#592,.F.);
#632=ADVANCED_FACE('',(#84,#15),#33,.T.);
#633=ADVANCED_FACE('',(#85,#16),#34,.F.);
#634=CLOSED_SHELL('',(#593,#594,#595,#596,#597,#598,#599,#600,#601,#602,
#603,#604,#605,#606,#607,#608,#609,#610,#611,#612,#613,#614,#615,#616,#617,
#618,#619,#620,#621,#622,#623,#624,#625,#626,#627,#628,#629,#630,#631,#632,
#633));
#635=DERIVED_UNIT_ELEMENT(#637,1.);
#636=DERIVED_UNIT_ELEMENT(#1265,-3.);
#637=(
MASS_UNIT()
NAMED_UNIT(*)
SI_UNIT(.KILO.,.GRAM.)
);
#638=DERIVED_UNIT((#635,#636));
#639=MEASURE_REPRESENTATION_ITEM('density measure',
POSITIVE_RATIO_MEASURE(1100.),#638);
#640=PROPERTY_DEFINITION_REPRESENTATION(#645,#642);
#641=PROPERTY_DEFINITION_REPRESENTATION(#646,#643);
#642=REPRESENTATION('material name',(#644),#1262);
#643=REPRESENTATION('density',(#639),#1262);
#644=DESCRIPTIVE_REPRESENTATION_ITEM(
'PA 12 - Nylon - PA 603-CF (with EOS P 3D Printers)',
'PA 12 - Nylon - PA 603-CF (with EOS P 3D Printers)');
#645=PROPERTY_DEFINITION('material property','material name',#1272);
#646=PROPERTY_DEFINITION('material property','density of part',#1272);
#647=AXIS2_PLACEMENT_3D('',#929,#726,#727);
#648=AXIS2_PLACEMENT_3D('',#930,#728,#729);
#649=AXIS2_PLACEMENT_3D('',#933,#730,#731);
#650=AXIS2_PLACEMENT_3D('',#944,#733,#734);
#651=AXIS2_PLACEMENT_3D('',#953,#735,#736);
#652=AXIS2_PLACEMENT_3D('',#962,#737,#738);
#653=AXIS2_PLACEMENT_3D('',#964,#739,#740);
#654=AXIS2_PLACEMENT_3D('',#966,#741,#742);
#655=AXIS2_PLACEMENT_3D('',#967,#743,#744);
#656=AXIS2_PLACEMENT_3D('',#1025,#745,#746);
#657=AXIS2_PLACEMENT_3D('',#1034,#747,#748);
#658=AXIS2_PLACEMENT_3D('',#1036,#749,#750);
#659=AXIS2_PLACEMENT_3D('',#1037,#751,#752);
#660=AXIS2_PLACEMENT_3D('',#1110,#753,#754);
#661=AXIS2_PLACEMENT_3D('',#1114,#756,#757);
#662=AXIS2_PLACEMENT_3D('',#1118,#759,#760);
#663=AXIS2_PLACEMENT_3D('',#1120,#762,#763);
#664=AXIS2_PLACEMENT_3D('',#1124,#766,#767);
#665=AXIS2_PLACEMENT_3D('',#1129,#769,#770);
#666=AXIS2_PLACEMENT_3D('',#1132,#772,#773);
#667=AXIS2_PLACEMENT_3D('',#1133,#774,#775);
#668=AXIS2_PLACEMENT_3D('',#1136,#776,#777);
#669=AXIS2_PLACEMENT_3D('',#1138,#778,#779);
#670=AXIS2_PLACEMENT_3D('',#1139,#780,#781);
#671=AXIS2_PLACEMENT_3D('',#1140,#782,#783);
#672=AXIS2_PLACEMENT_3D('',#1145,#786,#787);
#673=AXIS2_PLACEMENT_3D('',#1146,#788,#789);
#674=AXIS2_PLACEMENT_3D('',#1150,#791,#792);
#675=AXIS2_PLACEMENT_3D('',#1152,#794,#795);
#676=AXIS2_PLACEMENT_3D('',#1157,#797,#798);
#677=AXIS2_PLACEMENT_3D('',#1160,#800,#801);
#678=AXIS2_PLACEMENT_3D('',#1161,#802,#803);
#679=AXIS2_PLACEMENT_3D('',#1164,#804,#805);
#680=AXIS2_PLACEMENT_3D('',#1166,#806,#807);
#681=AXIS2_PLACEMENT_3D('',#1167,#808,#809);
#682=AXIS2_PLACEMENT_3D('',#1168,#810,#811);
#683=AXIS2_PLACEMENT_3D('',#1171,#812,#813);
#684=AXIS2_PLACEMENT_3D('',#1173,#814,#815);
#685=AXIS2_PLACEMENT_3D('',#1174,#816,#817);
#686=AXIS2_PLACEMENT_3D('',#1175,#818,#819);
#687=AXIS2_PLACEMENT_3D('',#1178,#822,#823);
#688=AXIS2_PLACEMENT_3D('',#1182,#825,#826);
#689=AXIS2_PLACEMENT_3D('',#1184,#828,#829);
#690=AXIS2_PLACEMENT_3D('',#1186,#830,#831);
#691=AXIS2_PLACEMENT_3D('',#1188,#832,#833);
#692=AXIS2_PLACEMENT_3D('',#1189,#834,#835);
#693=AXIS2_PLACEMENT_3D('',#1190,#836,#837);
#694=AXIS2_PLACEMENT_3D('',#1193,#840,#841);
#695=AXIS2_PLACEMENT_3D('',#1196,#844,#845);
#696=AXIS2_PLACEMENT_3D('',#1199,#846,#847);
#697=AXIS2_PLACEMENT_3D('',#1201,#848,#849);
#698=AXIS2_PLACEMENT_3D('',#1202,#850,#851);
#699=AXIS2_PLACEMENT_3D('',#1203,#852,#853);
#700=AXIS2_PLACEMENT_3D('',#1205,#854,#855);
#701=AXIS2_PLACEMENT_3D('',#1206,#856,#857);
#702=AXIS2_PLACEMENT_3D('',#1207,#858,#859);
#703=AXIS2_PLACEMENT_3D('',#1209,#861,#862);
#704=AXIS2_PLACEMENT_3D('',#1212,#865,#866);
#705=AXIS2_PLACEMENT_3D('',#1215,#869,#870);
#706=AXIS2_PLACEMENT_3D('',#1218,#873,#874);
#707=AXIS2_PLACEMENT_3D('',#1221,#877,#878);
#708=AXIS2_PLACEMENT_3D('',#1224,#881,#882);
#709=AXIS2_PLACEMENT_3D('',#1229,#885,#886);
#710=AXIS2_PLACEMENT_3D('',#1230,#887,#888);
#711=AXIS2_PLACEMENT_3D('',#1234,#890,#891);
#712=AXIS2_PLACEMENT_3D('',#1236,#893,#894);
#713=AXIS2_PLACEMENT_3D('',#1238,#896,#897);
#714=AXIS2_PLACEMENT_3D('',#1241,#900,#901);
#715=AXIS2_PLACEMENT_3D('',#1243,#903,#904);
#716=AXIS2_PLACEMENT_3D('',#1245,#906,#907);
#717=AXIS2_PLACEMENT_3D('',#1246,#908,#909);
#718=AXIS2_PLACEMENT_3D('',#1247,#910,#911);
#719=AXIS2_PLACEMENT_3D('',#1249,#913,#914);
#720=AXIS2_PLACEMENT_3D('',#1250,#915,#916);
#721=AXIS2_PLACEMENT_3D('',#1252,#918,#919);
#722=AXIS2_PLACEMENT_3D('',#1254,#920,#921);
#723=AXIS2_PLACEMENT_3D('',#1257,#923,#924);
#724=AXIS2_PLACEMENT_3D('',#1258,#925,#926);
#725=AXIS2_PLACEMENT_3D('',#1259,#927,#928);
#726=DIRECTION('axis',(0.,0.,1.));
#727=DIRECTION('refdir',(1.,0.,0.));
#728=DIRECTION('center_axis',(1.,0.,0.));
#729=DIRECTION('ref_axis',(0.,1.,0.));
#730=DIRECTION('center_axis',(-1.,0.,0.));
#731=DIRECTION('ref_axis',(0.,-1.27103528959282E-15,1.));
#732=DIRECTION('',(-1.,0.,0.));
#733=DIRECTION('center_axis',(1.,0.,0.));
#734=DIRECTION('ref_axis',(0.,1.,0.));
#735=DIRECTION('center_axis',(-1.,0.,0.));
#736=DIRECTION('ref_axis',(0.,-1.27103528959282E-15,-1.));
#737=DIRECTION('center_axis',(-1.,0.,0.));
#738=DIRECTION('ref_axis',(0.,0.,1.));
#739=DIRECTION('center_axis',(1.25883327897578E-14,0.661437827766151,0.749999999999997));
#740=DIRECTION('ref_axis',(1.,1.11022302462516E-15,-1.77635683940026E-14));
#741=DIRECTION('center_axis',(-2.93737402297613E-15,-0.661437827766151,
0.749999999999997));
#742=DIRECTION('ref_axis',(0.,-0.749999999999997,-0.661437827766151));
#743=DIRECTION('center_axis',(1.,0.,0.));
#744=DIRECTION('ref_axis',(0.,-1.27103528959282E-15,1.));
#745=DIRECTION('center_axis',(-2.7684750166557E-13,0.66143782776633,0.749999999999839));
#746=DIRECTION('ref_axis',(0.,-0.749999999999839,0.66143782776633));
#747=DIRECTION('center_axis',(-1.,0.,0.));
#748=DIRECTION('ref_axis',(0.,-1.02262982945429E-13,-1.));
#749=DIRECTION('center_axis',(1.25883327897578E-14,0.661437827766151,-0.749999999999997));
#750=DIRECTION('ref_axis',(0.,0.749999999999997,0.661437827766151));
#751=DIRECTION('center_axis',(1.,0.,0.));
#752=DIRECTION('ref_axis',(0.,-1.27103528959282E-15,-1.));
#753=DIRECTION('center_axis',(0.,0.,1.));
#754=DIRECTION('ref_axis',(0.707106781186549,-0.707106781186546,0.));
#755=DIRECTION('',(0.,0.,1.));
#756=DIRECTION('center_axis',(0.,-4.44089209850063E-15,1.));
#757=DIRECTION('ref_axis',(1.,0.,0.));
#758=DIRECTION('',(0.,0.,-1.));
#759=DIRECTION('center_axis',(-0.707106781186548,0.,-0.707106781186548));
#760=DIRECTION('ref_axis',(-0.707106781186547,0.,0.707106781186547));
#761=DIRECTION('',(0.,0.,1.));
#762=DIRECTION('center_axis',(1.,0.,0.));
#763=DIRECTION('ref_axis',(0.,1.,0.));
#764=DIRECTION('',(0.,1.66533453693773E-16,-1.));
#765=DIRECTION('',(0.,1.,0.));
#766=DIRECTION('center_axis',(1.,0.,0.));
#767=DIRECTION('ref_axis',(0.,-0.707106781186549,0.707106781186546));
#768=DIRECTION('',(-1.,0.,0.));
#769=DIRECTION('center_axis',(1.,0.,0.));
#770=DIRECTION('ref_axis',(0.,-0.707106781186549,0.707106781186546));
#771=DIRECTION('',(1.,0.,0.));
#772=DIRECTION('center_axis',(-0.707106781186548,0.,-0.707106781186548));
#773=DIRECTION('ref_axis',(-0.707106781186548,0.,0.707106781186548));
#774=DIRECTION('center_axis',(-0.408248290463863,-0.816496580927726,-0.408248290463863));
#775=DIRECTION('ref_axis',(-0.577350269189626,0.577350269189626,-0.577350269189626));
#776=DIRECTION('center_axis',(0.,0.,-1.));
#777=DIRECTION('ref_axis',(0.,1.,0.));
#778=DIRECTION('center_axis',(-1.,0.,0.));
#779=DIRECTION('ref_axis',(0.,0.,-1.));
#780=DIRECTION('center_axis',(0.,1.,0.));
#781=DIRECTION('ref_axis',(-1.,0.,0.));
#782=DIRECTION('center_axis',(-1.,0.,0.));
#783=DIRECTION('ref_axis',(0.,0.707106781186547,-0.707106781186548));
#784=DIRECTION('',(-1.,0.,0.));
#785=DIRECTION('',(1.,0.,0.));
#786=DIRECTION('center_axis',(-0.707106781186548,0.,0.707106781186548));
#787=DIRECTION('ref_axis',(0.707106781186548,0.,0.707106781186548));
#788=DIRECTION('center_axis',(0.,0.,1.));
#789=DIRECTION('ref_axis',(-0.707106781186549,-0.707106781186546,0.));
#790=DIRECTION('',(0.,0.,1.));
#791=DIRECTION('center_axis',(0.707106781186548,0.,-0.707106781186548));
#792=DIRECTION('ref_axis',(-0.707106781186547,0.,-0.707106781186547));
#793=DIRECTION('',(0.,0.,-1.));
#794=DIRECTION('center_axis',(1.,0.,0.));
#795=DIRECTION('ref_axis',(0.,0.707106781186549,-0.707106781186546));
#796=DIRECTION('',(-1.,0.,0.));
#797=DIRECTION('center_axis',(1.,0.,0.));
#798=DIRECTION('ref_axis',(0.,0.707106781186549,-0.707106781186546));
#799=DIRECTION('',(1.,0.,0.));
#800=DIRECTION('center_axis',(-0.707106781186548,0.,-0.707106781186548));
#801=DIRECTION('ref_axis',(-0.707106781186547,0.,0.707106781186547));
#802=DIRECTION('center_axis',(-0.408248290463863,0.408248290463862,-0.816496580927726));
#803=DIRECTION('ref_axis',(-0.577350269189626,0.577350269189626,0.577350269189625));
#804=DIRECTION('center_axis',(0.,1.,0.));
#805=DIRECTION('ref_axis',(0.,0.,1.));
#806=DIRECTION('center_axis',(-1.,0.,0.));
#807=DIRECTION('ref_axis',(0.,1.,0.));
#808=DIRECTION('center_axis',(0.,-2.22044604925031E-15,1.));
#809=DIRECTION('ref_axis',(-1.,0.,0.));
#810=DIRECTION('center_axis',(0.408248290463863,-0.816496580927726,0.408248290463863));
#811=DIRECTION('ref_axis',(-0.577350269189626,-0.577350269189626,-0.577350269189626));
#812=DIRECTION('center_axis',(0.,-1.,0.));
#813=DIRECTION('ref_axis',(0.,0.,-1.));
#814=DIRECTION('center_axis',(-1.,0.,0.));
#815=DIRECTION('ref_axis',(0.,-1.,0.));
#816=DIRECTION('center_axis',(0.,0.,-1.));
#817=DIRECTION('ref_axis',(-1.,0.,0.));
#818=DIRECTION('center_axis',(-1.,0.,0.));
#819=DIRECTION('ref_axis',(0.,-0.707106781186547,-0.707106781186548));
#820=DIRECTION('',(-1.,0.,0.));
#821=DIRECTION('',(1.,0.,0.));
#822=DIRECTION('center_axis',(1.,0.,0.));
#823=DIRECTION('ref_axis',(0.,-0.707106781186549,-0.707106781186546));
#824=DIRECTION('',(-1.,0.,0.));
#825=DIRECTION('center_axis',(1.,0.,0.));
#826=DIRECTION('ref_axis',(0.,-0.707106781186549,-0.707106781186546));
#827=DIRECTION('',(1.,0.,0.));
#828=DIRECTION('center_axis',(0.408248290463863,0.408248290463861,-0.816496580927727));
#829=DIRECTION('ref_axis',(0.577350269189627,0.577350269189627,0.577350269189623));
#830=DIRECTION('center_axis',(0.,1.,-2.7755575615629E-16));
#831=DIRECTION('ref_axis',(1.,0.,0.));
#832=DIRECTION('center_axis',(0.,0.,1.));
#833=DIRECTION('ref_axis',(0.,1.,0.));
#834=DIRECTION('center_axis',(1.,0.,0.));
#835=DIRECTION('ref_axis',(0.,0.,1.));
#836=DIRECTION('center_axis',(0.,-1.66533453693773E-16,1.));
#837=DIRECTION('ref_axis',(0.707106781186549,0.707106781186546,0.));
#838=DIRECTION('',(0.,1.66533453693773E-16,-1.));
#839=DIRECTION('',(0.,-1.66533453693773E-16,1.));
#840=DIRECTION('center_axis',(-1.,0.,0.));
#841=DIRECTION('ref_axis',(0.,0.707106781186548,0.707106781186547));
#842=DIRECTION('',(1.,0.,0.));
#843=DIRECTION('',(-1.,0.,0.));
#844=DIRECTION('center_axis',(-0.408248290463863,-0.408248290463863,-0.816496580927726));
#845=DIRECTION('ref_axis',(-0.577350269189626,-0.577350269189625,0.577350269189626));
#846=DIRECTION('center_axis',(0.,0.,1.));
#847=DIRECTION('ref_axis',(0.,-1.,0.));
#848=DIRECTION('center_axis',(-1.,0.,0.));
#849=DIRECTION('ref_axis',(0.,0.,1.));
#850=DIRECTION('center_axis',(0.,-1.,0.));
#851=DIRECTION('ref_axis',(-1.,0.,0.));
#852=DIRECTION('center_axis',(0.408248290463859,-0.40824829046386,-0.816496580927729));
#853=DIRECTION('ref_axis',(0.577350269189629,-0.577350269189627,0.577350269189622));
#854=DIRECTION('center_axis',(1.,0.,0.));
#855=DIRECTION('ref_axis',(0.,-1.,0.));
#856=DIRECTION('center_axis',(0.,-1.,0.));
#857=DIRECTION('ref_axis',(0.,0.,1.));
#858=DIRECTION('center_axis',(0.,1.,0.));
#859=DIRECTION('ref_axis',(0.70710678118655,0.,0.707106781186545));
#860=DIRECTION('',(0.,-1.,0.));
#861=DIRECTION('center_axis',(-1.,0.,0.));
#862=DIRECTION('ref_axis',(0.,-0.707106781186548,0.707106781186547));
#863=DIRECTION('',(1.,0.,0.));
#864=DIRECTION('',(-1.,0.,0.));
#865=DIRECTION('center_axis',(0.,1.,0.));
#866=DIRECTION('ref_axis',(-0.707106781186548,0.,0.707106781186547));
#867=DIRECTION('',(0.,-1.,0.));
#868=DIRECTION('',(0.,1.,0.));
#869=DIRECTION('center_axis',(0.,0.,1.));
#870=DIRECTION('ref_axis',(-0.707106781186548,-0.707106781186547,0.));
#871=DIRECTION('',(0.,0.,-1.));
#872=DIRECTION('',(0.,0.,1.));
#873=DIRECTION('center_axis',(0.,-1.,0.));
#874=DIRECTION('ref_axis',(-0.707106781186548,0.,-0.707106781186548));
#875=DIRECTION('',(0.,1.,0.));
#876=DIRECTION('',(0.,-1.,0.));
#877=DIRECTION('center_axis',(0.,1.66533453693773E-16,-1.));
#878=DIRECTION('ref_axis',(-0.707106781186548,0.707106781186547,0.));
#879=DIRECTION('',(0.,-1.66533453693773E-16,1.));
#880=DIRECTION('',(0.,1.66533453693773E-16,-1.));
#881=DIRECTION('center_axis',(0.,-1.66533453693773E-16,1.));
#882=DIRECTION('ref_axis',(-0.707106781186549,0.707106781186546,0.));
#883=DIRECTION('',(0.,-1.66533453693773E-16,1.));
#884=DIRECTION('',(0.,1.66533453693773E-16,-1.));
#885=DIRECTION('center_axis',(0.707106781186548,0.,0.707106781186548));
#886=DIRECTION('ref_axis',(0.707106781186547,2.35513868802566E-16,-0.707106781186547));
#887=DIRECTION('center_axis',(1.,0.,0.));
#888=DIRECTION('ref_axis',(0.,0.707106781186549,0.707106781186546));
#889=DIRECTION('',(-1.,0.,0.));
#890=DIRECTION('center_axis',(1.,0.,0.));
#891=DIRECTION('ref_axis',(0.,0.707106781186549,0.707106781186546));
#892=DIRECTION('',(1.,0.,0.));
#893=DIRECTION('center_axis',(0.,1.,1.66533453693773E-16));
#894=DIRECTION('ref_axis',(0.,-1.66533453693773E-16,1.));
#895=DIRECTION('',(0.,1.66533453693773E-16,-1.));
#896=DIRECTION('center_axis',(0.,0.,1.));
#897=DIRECTION('ref_axis',(0.,-1.,0.));
#898=DIRECTION('',(0.,1.,0.));
#899=DIRECTION('',(0.,1.,0.));
#900=DIRECTION('center_axis',(1.,0.,0.));
#901=DIRECTION('ref_axis',(0.,1.,0.));
#902=DIRECTION('',(0.,1.,0.));
#903=DIRECTION('center_axis',(0.,0.,-1.));
#904=DIRECTION('ref_axis',(0.,1.,0.));
#905=DIRECTION('',(0.,-1.,0.));
#906=DIRECTION('center_axis',(0.,0.,1.));
#907=DIRECTION('ref_axis',(1.,0.,0.));
#908=DIRECTION('center_axis',(-1.,0.,0.));
#909=DIRECTION('ref_axis',(0.,0.,1.));
#910=DIRECTION('center_axis',(0.,0.,-1.));
#911=DIRECTION('ref_axis',(0.,-1.,0.));
#912=DIRECTION('',(0.,1.,0.));
#913=DIRECTION('center_axis',(-1.,0.,0.));
#914=DIRECTION('ref_axis',(0.,-1.,0.));
#915=DIRECTION('center_axis',(0.,-1.,0.));
#916=DIRECTION('ref_axis',(0.,0.,-1.));
#917=DIRECTION('',(0.,0.,1.));
#918=DIRECTION('center_axis',(1.,0.,0.));
#919=DIRECTION('ref_axis',(0.,1.,0.));
#920=DIRECTION('center_axis',(-1.,0.,0.));
#921=DIRECTION('ref_axis',(0.,1.,0.));
#922=DIRECTION('',(-1.,0.,0.));
#923=DIRECTION('center_axis',(-1.,0.,0.));
#924=DIRECTION('ref_axis',(0.,1.,0.));
#925=DIRECTION('center_axis',(1.,0.,0.));
#926=DIRECTION('ref_axis',(0.,1.,0.));
#927=DIRECTION('center_axis',(1.,0.,0.));
#928=DIRECTION('ref_axis',(0.,1.,0.));
#929=CARTESIAN_POINT('',(0.,0.,0.));
#930=CARTESIAN_POINT('Origin',(50.,-4.13782530189674E-15,-125.));
#931=CARTESIAN_POINT('',(99.,-5.25000000000001,-120.369935205637));
#932=CARTESIAN_POINT('',(99.,5.25,-120.369935205637));
#933=CARTESIAN_POINT('Origin',(99.,-4.13782530189674E-15,-125.));
#934=CARTESIAN_POINT('',(98.2371462325042,-6.99939849531102,-125.000397079302));
#935=CARTESIAN_POINT('Ctrl Pts',(98.2375279885078,-6.99918553267671,-125.000537665163));
#936=CARTESIAN_POINT('Ctrl Pts',(98.2375724282129,-6.9992888531731,-124.756837194061));
#937=CARTESIAN_POINT('Ctrl Pts',(98.2740348404679,-6.96208744938854,-124.025595368749));
#938=CARTESIAN_POINT('Ctrl Pts',(98.5175758466398,-6.71029986183579,-122.845417232421));
#939=CARTESIAN_POINT('Ctrl Pts',(98.8669259468618,-6.13635600414845,-121.530428673762));
#940=CARTESIAN_POINT('Ctrl Pts',(99.,-5.57205754377381,-120.73511413507));
#941=CARTESIAN_POINT('Ctrl Pts',(99.,-5.25000000000001,-120.369935205637));
#942=CARTESIAN_POINT('',(60.,-7.00000000000001,-125.));
#943=CARTESIAN_POINT('',(50.,-7.00000000000001,-125.));
#944=CARTESIAN_POINT('Origin',(60.,-4.13782530189674E-15,-125.));
#945=CARTESIAN_POINT('',(99.,-5.25000000000001,-129.630064794363));
#946=CARTESIAN_POINT('Ctrl Pts',(99.,-5.25000000000001,-129.630064794363));
#947=CARTESIAN_POINT('Ctrl Pts',(99.,-5.57205754377381,-129.26488586493));
#948=CARTESIAN_POINT('Ctrl Pts',(98.8034405762902,-6.41540621052452,-128.074360442176));
#949=CARTESIAN_POINT('Ctrl Pts',(98.2978054458312,-6.93605125213999,-126.462427128495));
#950=CARTESIAN_POINT('Ctrl Pts',(98.2374835513566,-6.99908221811798,-125.244224131205));
#951=CARTESIAN_POINT('Ctrl Pts',(98.2375279885078,-6.99918553267671,-125.000537665163));
#952=CARTESIAN_POINT('',(99.,5.2499999999989,-129.630064794364));
#953=CARTESIAN_POINT('Origin',(99.,-4.13782530189674E-15,-125.));
#954=CARTESIAN_POINT('Ctrl Pts',(99.,5.25000000000001,-120.369935205637));
#955=CARTESIAN_POINT('Ctrl Pts',(99.,5.89411508754772,-121.100293064504));
#956=CARTESIAN_POINT('Ctrl Pts',(98.6145333289904,6.6100018831737,-122.374665510663));
#957=CARTESIAN_POINT('Ctrl Pts',(98.2269953797546,7.01024683854466,-124.260058048439));
#958=CARTESIAN_POINT('Ctrl Pts',(98.2285006079534,7.01004667865832,-125.739273204709));
#959=CARTESIAN_POINT('Ctrl Pts',(98.6158513337807,6.60920392275579,-127.62583570377));
#960=CARTESIAN_POINT('Ctrl Pts',(99.0000000000003,5.89411508754677,-128.899706935498));
#961=CARTESIAN_POINT('Ctrl Pts',(99.,5.2499999999989,-129.630064794364));
#962=CARTESIAN_POINT('Origin',(99.,-4.13782530189674E-15,-125.));
#963=CARTESIAN_POINT('',(100.,-6.00000000000001,-119.708497377871));
#964=CARTESIAN_POINT('Origin',(99.,-6.00000000000001,-119.708497377871));
#965=CARTESIAN_POINT('',(100.,5.99999999999999,-119.708497377871));
#966=CARTESIAN_POINT('Origin',(99.,6.,-119.708497377871));
#967=CARTESIAN_POINT('Origin',(100.,-4.13782530189674E-15,-125.));
#968=CARTESIAN_POINT('Ctrl Pts',(99.,5.25000000000001,-120.369935205637));
#969=CARTESIAN_POINT('Ctrl Pts',(99.,5.89411508754772,-121.100293064504));
#970=CARTESIAN_POINT('Ctrl Pts',(98.6145333289904,6.6100018831737,-122.374665510663));
#971=CARTESIAN_POINT('Ctrl Pts',(98.2269953797546,7.01024683854466,-124.260058048439));
#972=CARTESIAN_POINT('Ctrl Pts',(98.2285006079534,7.01004667865832,-125.739273204709));
#973=CARTESIAN_POINT('Ctrl Pts',(98.6158513337807,6.60920392275579,-127.62583570377));
#974=CARTESIAN_POINT('Ctrl Pts',(99.0000000000003,5.89411508754677,-128.899706935498));
#975=CARTESIAN_POINT('Ctrl Pts',(99.,5.2499999999989,-129.630064794364));
#976=CARTESIAN_POINT('Ctrl Pts',(99.1495996501709,5.25000000000001,-120.369935205637));
#977=CARTESIAN_POINT('Ctrl Pts',(99.1671040189604,5.91011075862814,-121.11852778084));
#978=CARTESIAN_POINT('Ctrl Pts',(98.8044109784906,6.62780167371574,-122.422401477737));
#979=CARTESIAN_POINT('Ctrl Pts',(98.446824652586,7.00909064979364,-124.28509708093));
#980=CARTESIAN_POINT('Ctrl Pts',(98.4481529122297,7.00907784549466,-125.714626693468));
#981=CARTESIAN_POINT('Ctrl Pts',(98.8053054442245,6.62728157120817,-127.577775249545));
#982=CARTESIAN_POINT('Ctrl Pts',(99.1671040189607,5.91011075862719,-128.881472219161));
#983=CARTESIAN_POINT('Ctrl Pts',(99.1495996501709,5.24999999999887,-129.630064794364));
#984=CARTESIAN_POINT('Ctrl Pts',(99.4487402242095,5.30120141858678,-120.324779798852));
#985=CARTESIAN_POINT('Ctrl Pts',(99.5012871079096,6.01197815667188,-121.106121668261));
#986=CARTESIAN_POINT('Ctrl Pts',(99.1841437379355,6.77404228719648,-122.468690955605));
#987=CARTESIAN_POINT('Ctrl Pts',(98.8865494524779,7.15923025582448,-124.318131354365));
#988=CARTESIAN_POINT('Ctrl Pts',(98.8875148337875,7.15940947158984,-125.682289747131));
#989=CARTESIAN_POINT('Ctrl Pts',(99.1841998209691,6.77398843805229,-127.530934819725));
#990=CARTESIAN_POINT('Ctrl Pts',(99.5012871079098,6.01197815667088,-128.89387833174));
#991=CARTESIAN_POINT('Ctrl Pts',(99.4487402242094,5.30120141858556,-129.675220201149));
#992=CARTESIAN_POINT('Ctrl Pts',(99.7784772239546,5.49851936497179,-120.150761727071));
#993=CARTESIAN_POINT('Ctrl Pts',(99.8508394564906,6.31265448138801,-120.961096438381));
#994=CARTESIAN_POINT('Ctrl Pts',(99.5351645031305,7.21093122492832,-122.37829137935));
#995=CARTESIAN_POINT('Ctrl Pts',(99.2373933290856,7.69220771579884,-124.296970185831));
#996=CARTESIAN_POINT('Ctrl Pts',(99.2383373090194,7.69222228660551,-125.703592050504));
#997=CARTESIAN_POINT('Ctrl Pts',(99.5350235602645,7.21077823252752,-127.621214920531));
#998=CARTESIAN_POINT('Ctrl Pts',(99.8508394564908,6.31265448138687,-129.03890356162));
#999=CARTESIAN_POINT('Ctrl Pts',(99.7784772239545,5.49851936497039,-129.849238272931));
#1000=CARTESIAN_POINT('Ctrl Pts',(99.9617961057797,5.74761727690637,-119.931078018043));
#1001=CARTESIAN_POINT('Ctrl Pts',(100.014669391125,6.65926999988953,-120.756700791091));
#1002=CARTESIAN_POINT('Ctrl Pts',(99.6257243184648,7.68398197501928,-122.20001768675));
#1003=CARTESIAN_POINT('Ctrl Pts',(99.2391151706541,8.26013051781743,-124.232144309255));
#1004=CARTESIAN_POINT('Ctrl Pts',(99.2405192907416,8.25988136975543,-125.767876407046));
#1005=CARTESIAN_POINT('Ctrl Pts',(99.6263406959027,7.68331790932448,-127.799930563897));
#1006=CARTESIAN_POINT('Ctrl Pts',(100.014669391126,6.65926999988825,-129.24329920891));
#1007=CARTESIAN_POINT('Ctrl Pts',(99.9617961057796,5.7476172769048,-130.068921981959));
#1008=CARTESIAN_POINT('Ctrl Pts',(100.,5.91585019677886,-119.782710528604));
#1009=CARTESIAN_POINT('Ctrl Pts',(100.020711170129,6.87715411761184,-120.614419575903));
#1010=CARTESIAN_POINT('Ctrl Pts',(99.5523511073372,7.95351909627326,-122.066639701639));
#1011=CARTESIAN_POINT('Ctrl Pts',(99.080417546117,8.55997695808138,-124.180417263842));
#1012=CARTESIAN_POINT('Ctrl Pts',(99.0822186875502,8.55966614740772,-125.819083123182));
#1013=CARTESIAN_POINT('Ctrl Pts',(99.5537285885363,7.95247633474876,-127.933715731726));
#1014=CARTESIAN_POINT('Ctrl Pts',(100.020711170129,6.87715411761048,-129.385580424099));
#1015=CARTESIAN_POINT('Ctrl Pts',(99.9999999999999,5.9158501967772,-130.217289471398));
#1016=CARTESIAN_POINT('Ctrl Pts',(100.,6.00000000000001,-119.708497377871));
#1017=CARTESIAN_POINT('Ctrl Pts',(100.,6.98150870483461,-120.543192073719));
#1018=CARTESIAN_POINT('Ctrl Pts',(99.4860444386538,8.072383821979,-121.999617726472));
#1019=CARTESIAN_POINT('Ctrl Pts',(98.9693271730061,8.68228089682998,-124.154352055359));
#1020=CARTESIAN_POINT('Ctrl Pts',(98.9713341439378,8.6819758912889,-125.844883662525));
#1021=CARTESIAN_POINT('Ctrl Pts',(99.4878017783742,8.07116788229456,-128.000955090023));
#1022=CARTESIAN_POINT('Ctrl Pts',(100.,6.98150870483323,-129.456807926283));
#1023=CARTESIAN_POINT('Ctrl Pts',(100.,5.99999999999832,-130.291502622131));
#1024=CARTESIAN_POINT('',(100.,5.99999999999916,-130.291502622131));
#1025=CARTESIAN_POINT('Origin',(99.,5.99999999999874,-130.291502622131));
#1026=CARTESIAN_POINT('Ctrl Pts',(100.,5.99999999999832,-130.291502622131));
#1027=CARTESIAN_POINT('Ctrl Pts',(100.,6.98150870483323,-129.456807926283));
#1028=CARTESIAN_POINT('Ctrl Pts',(99.4878017783742,8.07116788229456,-128.000955090023));
#1029=CARTESIAN_POINT('Ctrl Pts',(98.9713341439378,8.6819758912889,-125.844883662525));
#1030=CARTESIAN_POINT('Ctrl Pts',(98.9693271730061,8.68228089682998,-124.154352055359));
#1031=CARTESIAN_POINT('Ctrl Pts',(99.4860444386538,8.072383821979,-121.999617726472));
#1032=CARTESIAN_POINT('Ctrl Pts',(100.,6.98150870483461,-120.543192073719));
#1033=CARTESIAN_POINT('Ctrl Pts',(100.,6.00000000000001,-119.708497377871));
#1034=CARTESIAN_POINT('Origin',(99.,-4.13782530189674E-15,-125.));
#1035=CARTESIAN_POINT('',(100.,-6.00000000000001,-130.291502622129));
#1036=CARTESIAN_POINT('Origin',(99.,-6.00000000000001,-130.291502622129));
#1037=CARTESIAN_POINT('Origin',(100.,-4.13782530189674E-15,-125.));
#1038=CARTESIAN_POINT('Ctrl Pts',(99.,-5.25000000000001,-129.630064794363));
#1039=CARTESIAN_POINT('Ctrl Pts',(99.,-5.57205754377381,-129.26488586493));
#1040=CARTESIAN_POINT('Ctrl Pts',(98.8034405762902,-6.41540621052452,-128.074360442176));
#1041=CARTESIAN_POINT('Ctrl Pts',(98.2255694836055,-7.01043155780626,-126.232143378528));
#1042=CARTESIAN_POINT('Ctrl Pts',(98.2253283187795,-7.01244323048166,-124.261622857083));
#1043=CARTESIAN_POINT('Ctrl Pts',(98.5175758466398,-6.71029986183579,-122.845417232421));
#1044=CARTESIAN_POINT('Ctrl Pts',(98.8669259468618,-6.13635600414845,-121.530428673762));
#1045=CARTESIAN_POINT('Ctrl Pts',(99.,-5.57205754377381,-120.73511413507));
#1046=CARTESIAN_POINT('Ctrl Pts',(99.,-5.25000000000001,-120.369935205637));
#1047=CARTESIAN_POINT('Ctrl Pts',(99.149599650171,-5.25000000000001,-129.630064794363));
#1048=CARTESIAN_POINT('Ctrl Pts',(99.1583518345657,-5.58005537931401,-129.255768506762));
#1049=CARTESIAN_POINT('Ctrl Pts',(98.9831496328775,-6.43895450483127,-128.035585732141));
#1050=CARTESIAN_POINT('Ctrl Pts',(98.4438959017828,-7.01047669619975,-126.189480594251));
#1051=CARTESIAN_POINT('Ctrl Pts',(98.4453020666956,-7.01130890900174,-124.286361568755));
#1052=CARTESIAN_POINT('Ctrl Pts',(98.7143361716328,-6.72381884322291,-122.887409756409));
#1053=CARTESIAN_POINT('Ctrl Pts',(99.0412560824248,-6.1534130072407,-121.557748229353));
#1054=CARTESIAN_POINT('Ctrl Pts',(99.1583518345657,-5.580055379314,-120.744231493238));
#1055=CARTESIAN_POINT('Ctrl Pts',(99.149599650171,-5.25000000000001,-120.369935205637));
#1056=CARTESIAN_POINT('Ctrl Pts',(99.4487402242096,-5.30120141858679,-129.675220201148));
#1057=CARTESIAN_POINT('Ctrl Pts',(99.4750136660596,-5.65658978762924,-129.284549266444));
#1058=CARTESIAN_POINT('Ctrl Pts',(99.3425416197285,-6.578584692198,-128.009522351851));
#1059=CARTESIAN_POINT('Ctrl Pts',(98.880620017381,-7.16202012894061,-126.133369090796));
#1060=CARTESIAN_POINT('Ctrl Pts',(98.8853056352234,-7.16124852292582,-124.318694074174));
#1061=CARTESIAN_POINT('Ctrl Pts',(99.1078810858149,-6.87164568464719,-122.930426906548));
#1062=CARTESIAN_POINT('Ctrl Pts',(99.3898722853996,-6.27028574538903,-121.563139311337));
#1063=CARTESIAN_POINT('Ctrl Pts',(99.4750136660596,-5.65658978762922,-120.715450733556));
#1064=CARTESIAN_POINT('Ctrl Pts',(99.4487402242096,-5.30120141858678,-120.324779798852));
#1065=CARTESIAN_POINT('Ctrl Pts',(99.7784772239547,-5.4985193649718,-129.849238272929));
#1066=CARTESIAN_POINT('Ctrl Pts',(99.8146583402227,-5.90558692317979,-129.444070917274));
#1067=CARTESIAN_POINT('Ctrl Pts',(99.6960054433639,-6.97060217483478,-128.120476808539));
#1068=CARTESIAN_POINT('Ctrl Pts',(99.230633244918,-7.69383082530536,-126.168726158288));
#1069=CARTESIAN_POINT('Ctrl Pts',(99.2361931322064,-7.69404052999544,-124.29727199552));
#1070=CARTESIAN_POINT('Ctrl Pts',(99.4585453634299,-7.33214733675438,-122.857387861281));
#1071=CARTESIAN_POINT('Ctrl Pts',(99.739560757186,-6.61574068007303,-121.435782475968));
#1072=CARTESIAN_POINT('Ctrl Pts',(99.8146583402227,-5.90558692317974,-120.555929082726));
#1073=CARTESIAN_POINT('Ctrl Pts',(99.7784772239547,-5.49851936497179,-120.150761727071));
#1074=CARTESIAN_POINT('Ctrl Pts',(99.9617961057797,-5.74761727690638,-130.068921981958));
#1075=CARTESIAN_POINT('Ctrl Pts',(99.9882327484526,-6.20344363839782,-129.656110595433));
#1076=CARTESIAN_POINT('Ctrl Pts',(99.8229359508867,-7.40192570058677,-128.308513719412));
#1077=CARTESIAN_POINT('Ctrl Pts',(99.2345638728017,-8.26027670334609,-126.277575777909));
#1078=CARTESIAN_POINT('Ctrl Pts',(99.2375776150681,-8.26236200085642,-124.233034932751));
#1079=CARTESIAN_POINT('Ctrl Pts',(99.5278017452261,-7.82837166507854,-122.707462891563));
#1080=CARTESIAN_POINT('Ctrl Pts',(99.8791364133866,-7.00461397445256,-121.2416095831));
#1081=CARTESIAN_POINT('Ctrl Pts',(99.9882327484526,-6.20344363839776,-120.343889404567));
#1082=CARTESIAN_POINT('Ctrl Pts',(99.9617961057797,-5.74761727690637,-119.931078018043));
#1083=CARTESIAN_POINT('Ctrl Pts',(100.,-5.91585019677886,-130.217289471396));
#1084=CARTESIAN_POINT('Ctrl Pts',(100.010355585065,-6.39650215719521,-129.801434947747));
#1085=CARTESIAN_POINT('Ctrl Pts',(99.7850989929038,-7.65832662920622,-128.445061586247));
#1086=CARTESIAN_POINT('Ctrl Pts',(99.0777626861013,-8.5600128133201,-126.36439169768));
#1087=CARTESIAN_POINT('Ctrl Pts',(99.0784583126401,-8.56287948047668,-124.181893102825));
#1088=CARTESIAN_POINT('Ctrl Pts',(99.4339420952909,-8.10540624815061,-122.594418399527));
#1089=CARTESIAN_POINT('Ctrl Pts',(99.8586527087847,-7.24069709825677,-121.1038238698));
#1090=CARTESIAN_POINT('Ctrl Pts',(100.010355585065,-6.39650215719515,-120.198565052253));
#1091=CARTESIAN_POINT('Ctrl Pts',(100.,-5.91585019677886,-119.782710528604));
#1092=CARTESIAN_POINT('Ctrl Pts',(100.,-6.00000000000002,-130.291502622129));
#1093=CARTESIAN_POINT('Ctrl Pts',(100.,-6.49075435241717,-129.874155274205));
#1094=CARTESIAN_POINT('Ctrl Pts',(99.7379207683869,-7.77585708270401,-128.513554791058));
#1095=CARTESIAN_POINT('Ctrl Pts',(98.9674259781406,-8.68256237379996,-126.408163861175));
#1096=CARTESIAN_POINT('Ctrl Pts',(98.9671044250393,-8.68562777978152,-124.156140408095));
#1097=CARTESIAN_POINT('Ctrl Pts',(99.3567677955197,-8.22521883708305,-122.537619694195));
#1098=CARTESIAN_POINT('Ctrl Pts',(99.8225679291491,-7.35063772060712,-121.034775627156));
#1099=CARTESIAN_POINT('Ctrl Pts',(100.,-6.49075435241711,-120.125844725794));
#1100=CARTESIAN_POINT('Ctrl Pts',(100.,-6.00000000000001,-119.708497377871));
#1101=CARTESIAN_POINT('Ctrl Pts',(100.,-6.00000000000001,-119.708497377871));
#1102=CARTESIAN_POINT('Ctrl Pts',(100.,-6.49075435241711,-120.125844725794));
#1103=CARTESIAN_POINT('Ctrl Pts',(99.8225679291491,-7.35063772060712,-121.034775627156));
#1104=CARTESIAN_POINT('Ctrl Pts',(99.3567677955197,-8.22521883708305,-122.537619694195));
#1105=CARTESIAN_POINT('Ctrl Pts',(98.9671044250393,-8.68562777978152,-124.156140408095));
#1106=CARTESIAN_POINT('Ctrl Pts',(98.9674259781406,-8.68256237379996,-126.408163861175));
#1107=CARTESIAN_POINT('Ctrl Pts',(99.7379207683869,-7.77585708270401,-128.513554791058));
#1108=CARTESIAN_POINT('Ctrl Pts',(100.,-6.49075435241717,-129.874155274205));
#1109=CARTESIAN_POINT('Ctrl Pts',(100.,-6.00000000000002,-130.291502622129));
#1110=CARTESIAN_POINT('Origin',(96.,-6.00000000000001,-120.));
#1111=CARTESIAN_POINT('',(100.,-6.00000000000001,-39.));
#1112=CARTESIAN_POINT('',(100.,-6.00000000000001,-120.));
#1113=CARTESIAN_POINT('',(96.,-10.,-39.));
#1114=CARTESIAN_POINT('Origin',(96.,-6.00000000000001,-39.));
#1115=CARTESIAN_POINT('',(96.,-10.,-131.));
#1116=CARTESIAN_POINT('',(96.,-10.,-120.));
#1117=CARTESIAN_POINT('',(100.,-6.00000000000001,-135.));
#1118=CARTESIAN_POINT('Origin',(96.,-6.00000000000001,-131.));
#1119=CARTESIAN_POINT('',(100.,-6.00000000000001,-120.));
#1120=CARTESIAN_POINT('Origin',(100.,-6.66133814775094E-15,-125.));
#1121=CARTESIAN_POINT('',(100.,5.99999999999998,-39.));
#1122=CARTESIAN_POINT('',(100.,6.,-130.));
#1123=CARTESIAN_POINT('',(100.,-9.99200722162641E-15,-39.));
#1124=CARTESIAN_POINT('Origin',(50.,-6.00000000000001,-119.));
#1125=CARTESIAN_POINT('',(80.,-6.00000000000001,-115.));
#1126=CARTESIAN_POINT('',(50.,-6.00000000000001,-115.));
#1127=CARTESIAN_POINT('',(50.,-6.00000000000001,-115.));
#1128=CARTESIAN_POINT('',(50.,-10.,-119.));
#1129=CARTESIAN_POINT('Origin',(50.,-6.00000000000001,-119.));
#1130=CARTESIAN_POINT('',(84.,-10.,-119.));
#1131=CARTESIAN_POINT('',(50.,-10.,-119.));
#1132=CARTESIAN_POINT('Origin',(84.,-6.00000000000001,-119.));
#1133=CARTESIAN_POINT('Origin',(64.,5.99999999999998,-41.));
#1134=CARTESIAN_POINT('',(64.,9.99999999999998,-41.));
#1135=CARTESIAN_POINT('',(60.,5.99999999999998,-41.));
#1136=CARTESIAN_POINT('Origin',(64.,5.99999999999998,-41.));
#1137=CARTESIAN_POINT('',(64.,5.99999999999998,-45.));
#1138=CARTESIAN_POINT('Origin',(64.,5.99999999999998,-41.));
#1139=CARTESIAN_POINT('Origin',(64.,5.99999999999998,-41.));
#1140=CARTESIAN_POINT('Origin',(65.,5.99999999999998,-41.));
#1141=CARTESIAN_POINT('',(80.,5.99999999999998,-45.));
#1142=CARTESIAN_POINT('',(65.,5.99999999999998,-45.));
#1143=CARTESIAN_POINT('',(84.,9.99999999999998,-41.));
#1144=CARTESIAN_POINT('',(65.,9.99999999999998,-41.));
#1145=CARTESIAN_POINT('Origin',(84.,5.99999999999998,-41.));
#1146=CARTESIAN_POINT('Origin',(84.,-6.00000000000001,-115.));
#1147=CARTESIAN_POINT('',(84.,-10.,-41.));
#1148=CARTESIAN_POINT('',(84.,-10.,-115.));
#1149=CARTESIAN_POINT('',(80.,-6.00000000000001,-45.));
#1150=CARTESIAN_POINT('Origin',(84.,-6.00000000000001,-41.));
#1151=CARTESIAN_POINT('',(80.,-6.00000000000001,-115.));
#1152=CARTESIAN_POINT('Origin',(50.,6.,-131.));
#1153=CARTESIAN_POINT('',(100.,6.,-135.));
#1154=CARTESIAN_POINT('',(50.,6.,-135.));
#1155=CARTESIAN_POINT('',(50.,6.,-135.));
#1156=CARTESIAN_POINT('',(50.,10.,-131.));
#1157=CARTESIAN_POINT('Origin',(50.,6.,-131.));
#1158=CARTESIAN_POINT('',(96.,10.,-131.));
#1159=CARTESIAN_POINT('',(50.,10.,-131.));
#1160=CARTESIAN_POINT('Origin',(96.,6.,-131.));
#1161=CARTESIAN_POINT('Origin',(64.,5.99999999999998,-39.));
#1162=CARTESIAN_POINT('',(64.,5.99999999999998,-35.));
#1163=CARTESIAN_POINT('',(60.,5.99999999999998,-39.));
#1164=CARTESIAN_POINT('Origin',(64.,5.99999999999998,-39.));
#1165=CARTESIAN_POINT('',(64.,9.99999999999998,-39.));
#1166=CARTESIAN_POINT('Origin',(64.,5.99999999999998,-39.));
#1167=CARTESIAN_POINT('Origin',(64.,5.99999999999998,-39.));
#1168=CARTESIAN_POINT('Origin',(64.,-6.00000000000001,-41.));
#1169=CARTESIAN_POINT('',(64.,-6.00000000000001,-45.));
#1170=CARTESIAN_POINT('',(60.,-6.00000000000001,-41.));
#1171=CARTESIAN_POINT('Origin',(64.,-6.00000000000001,-41.));
#1172=CARTESIAN_POINT('',(64.,-10.,-41.));
#1173=CARTESIAN_POINT('Origin',(64.,-6.00000000000001,-41.));
#1174=CARTESIAN_POINT('Origin',(64.,-6.00000000000001,-41.));
#1175=CARTESIAN_POINT('Origin',(65.,-6.00000000000001,-41.));
#1176=CARTESIAN_POINT('',(65.,-10.,-41.));
#1177=CARTESIAN_POINT('',(65.,-6.00000000000001,-45.));
#1178=CARTESIAN_POINT('Origin',(50.,-6.00000000000001,-131.));
#1179=CARTESIAN_POINT('',(50.,-10.,-131.));
#1180=CARTESIAN_POINT('',(50.,-10.,-131.));
#1181=CARTESIAN_POINT('',(50.,-6.,-135.));
#1182=CARTESIAN_POINT('Origin',(50.,-6.00000000000001,-131.));
#1183=CARTESIAN_POINT('',(50.,-6.00000000000001,-135.));
#1184=CARTESIAN_POINT('Origin',(96.,5.99999999999998,-39.));
#1185=CARTESIAN_POINT('',(96.,5.99999999999998,-35.));
#1186=CARTESIAN_POINT('Origin',(96.,5.99999999999998,-39.));
#1187=CARTESIAN_POINT('',(96.,9.99999999999998,-39.));
#1188=CARTESIAN_POINT('Origin',(96.,5.99999999999998,-39.));
#1189=CARTESIAN_POINT('Origin',(96.,5.99999999999998,-39.));
#1190=CARTESIAN_POINT('Origin',(96.,6.,-130.));
#1191=CARTESIAN_POINT('',(100.,6.,-130.));
#1192=CARTESIAN_POINT('',(96.,10.,-130.));
#1193=CARTESIAN_POINT('Origin',(70.,5.99999999999998,-39.));
#1194=CARTESIAN_POINT('',(70.,5.99999999999998,-35.));
#1195=CARTESIAN_POINT('',(70.,9.99999999999998,-39.));
#1196=CARTESIAN_POINT('Origin',(64.,-6.00000000000001,-39.));
#1197=CARTESIAN_POINT('',(64.,-10.,-39.));
#1198=CARTESIAN_POINT('',(60.,-6.00000000000001,-39.));
#1199=CARTESIAN_POINT('Origin',(64.,-6.00000000000001,-39.));
#1200=CARTESIAN_POINT('',(64.,-6.00000000000001,-35.));
#1201=CARTESIAN_POINT('Origin',(64.,-6.00000000000001,-39.));
#1202=CARTESIAN_POINT('Origin',(64.,-6.00000000000001,-39.));
#1203=CARTESIAN_POINT('Origin',(96.,-6.00000000000001,-39.));
#1204=CARTESIAN_POINT('',(96.,-6.00000000000001,-35.));
#1205=CARTESIAN_POINT('Origin',(96.,-6.00000000000001,-39.));
#1206=CARTESIAN_POINT('Origin',(96.,-6.00000000000001,-39.));
#1207=CARTESIAN_POINT('Origin',(96.,-9.99200722162641E-15,-39.));
#1208=CARTESIAN_POINT('',(96.,-9.99200722162641E-15,-35.));
#1209=CARTESIAN_POINT('Origin',(70.,-6.00000000000001,-39.));
#1210=CARTESIAN_POINT('',(70.,-10.,-39.));
#1211=CARTESIAN_POINT('',(70.,-6.00000000000001,-35.));
#1212=CARTESIAN_POINT('Origin',(64.,-1.33226762955019E-14,-39.));
#1213=CARTESIAN_POINT('',(60.,-1.33226762955019E-14,-39.));
#1214=CARTESIAN_POINT('',(64.,-1.33226762955019E-14,-35.));
#1215=CARTESIAN_POINT('Origin',(64.,-6.00000000000001,-77.5));
#1216=CARTESIAN_POINT('',(60.,-6.00000000000001,-77.5));
#1217=CARTESIAN_POINT('',(64.,-10.,-77.5));
#1218=CARTESIAN_POINT('Origin',(64.,4.99999999999999,-41.));
#1219=CARTESIAN_POINT('',(60.,4.99999999999999,-41.));
#1220=CARTESIAN_POINT('',(64.,4.99999999999999,-45.));
#1221=CARTESIAN_POINT('Origin',(64.,5.99999999999999,-87.5));
#1222=CARTESIAN_POINT('',(60.,5.99999999999999,-87.5));
#1223=CARTESIAN_POINT('',(64.,9.99999999999999,-87.5));
#1224=CARTESIAN_POINT('Origin',(84.,5.99999999999999,-125.));
#1225=CARTESIAN_POINT('',(80.,5.99999999999999,-115.));
#1226=CARTESIAN_POINT('',(80.,5.99999999999999,-125.));
#1227=CARTESIAN_POINT('',(84.,9.99999999999999,-119.));
#1228=CARTESIAN_POINT('',(84.,10.,-125.));
#1229=CARTESIAN_POINT('Origin',(84.,5.99999999999999,-119.));
#1230=CARTESIAN_POINT('Origin',(50.,5.99999999999999,-119.));
#1231=CARTESIAN_POINT('',(50.,9.99999999999999,-119.));
#1232=CARTESIAN_POINT('',(50.,9.99999999999999,-119.));
#1233=CARTESIAN_POINT('',(50.,5.99999999999999,-115.));
#1234=CARTESIAN_POINT('Origin',(50.,5.99999999999999,-119.));
#1235=CARTESIAN_POINT('',(50.,5.99999999999999,-115.));
#1236=CARTESIAN_POINT('Origin',(50.,10.,-135.));
#1237=CARTESIAN_POINT('',(50.,9.99999999999999,-115.));
#1238=CARTESIAN_POINT('Origin',(50.,9.99999999999999,-115.));
#1239=CARTESIAN_POINT('',(50.,-10.,-115.));
#1240=CARTESIAN_POINT('',(80.,9.99999999999999,-115.));
#1241=CARTESIAN_POINT('Origin',(100.,-6.66133814775094E-15,-125.));
#1242=CARTESIAN_POINT('',(100.,10.,-135.));
#1243=CARTESIAN_POINT('Origin',(50.,-10.,-135.));
#1244=CARTESIAN_POINT('',(50.,10.,-135.));
#1245=CARTESIAN_POINT('Origin',(90.,-1.33226762955019E-14,-35.));
#1246=CARTESIAN_POINT('Origin',(60.,-1.33226762955019E-14,-40.));
#1247=CARTESIAN_POINT('Origin',(80.,9.99999999999999,-45.));
#1248=CARTESIAN_POINT('',(80.,9.99999999999999,-45.));
#1249=CARTESIAN_POINT('Origin',(80.,9.99999999999999,-115.));
#1250=CARTESIAN_POINT('Origin',(50.,-10.,-115.));
#1251=CARTESIAN_POINT('',(50.,-10.,-135.));
#1252=CARTESIAN_POINT('Origin',(50.,-4.13782530189674E-15,-125.));
#1253=CARTESIAN_POINT('',(60.,-3.,-125.));
#1254=CARTESIAN_POINT('Origin',(60.,-4.13782530189674E-15,-125.));
#1255=CARTESIAN_POINT('',(50.,-3.,-125.));
#1256=CARTESIAN_POINT('',(50.,-3.,-125.));
#1257=CARTESIAN_POINT('Origin',(50.,-4.13782530189674E-15,-125.));
#1258=CARTESIAN_POINT('Origin',(60.,-4.44089209850063E-15,-125.));
#1259=CARTESIAN_POINT('Origin',(50.,-4.44089209850063E-15,-125.));
#1260=UNCERTAINTY_MEASURE_WITH_UNIT(LENGTH_MEASURE(0.01),#1264,
'DISTANCE_ACCURACY_VALUE',
'Maximum model space distance between geometric entities at asserted c
onnectivities');
#1261=UNCERTAINTY_MEASURE_WITH_UNIT(LENGTH_MEASURE(0.01),#1264,
'DISTANCE_ACCURACY_VALUE',
'Maximum model space distance between geometric entities at asserted c
onnectivities');
#1262=(
GEOMETRIC_REPRESENTATION_CONTEXT(3)
GLOBAL_UNCERTAINTY_ASSIGNED_CONTEXT((#1260))
GLOBAL_UNIT_ASSIGNED_CONTEXT((#1264,#1266,#1267))
REPRESENTATION_CONTEXT('','3D')
);
#1263=(
GEOMETRIC_REPRESENTATION_CONTEXT(3)
GLOBAL_UNCERTAINTY_ASSIGNED_CONTEXT((#1261))
GLOBAL_UNIT_ASSIGNED_CONTEXT((#1264,#1266,#1267))
REPRESENTATION_CONTEXT('','3D')
);
#1264=(
LENGTH_UNIT()
NAMED_UNIT(*)
SI_UNIT(.MILLI.,.METRE.)
);
#1265=(
LENGTH_UNIT()
NAMED_UNIT(*)
SI_UNIT($,.METRE.)
);
#1266=(
NAMED_UNIT(*)
PLANE_ANGLE_UNIT()
SI_UNIT($,.RADIAN.)
);
#1267=(
NAMED_UNIT(*)
SI_UNIT($,.STERADIAN.)
SOLID_ANGLE_UNIT()
);
#1268=SHAPE_DEFINITION_REPRESENTATION(#1269,#1270);
#1269=PRODUCT_DEFINITION_SHAPE('',$,#1272);
#1270=SHAPE_REPRESENTATION('',(#647),#1262);
#1271=PRODUCT_DEFINITION_CONTEXT('part definition',#1276,'design');
#1272=PRODUCT_DEFINITION('Side handle','Side handle',#1273,#1271);
#1273=PRODUCT_DEFINITION_FORMATION('',$,#1278);
#1274=PRODUCT_RELATED_PRODUCT_CATEGORY('Side handle','Side handle',(#1278));
#1275=APPLICATION_PROTOCOL_DEFINITION('international standard',
'automotive_design',2009,#1276);
#1276=APPLICATION_CONTEXT(
'Core Data for Automotive Mechanical Design Process');
#1277=PRODUCT_CONTEXT('part definition',#1276,'mechanical');
#1278=PRODUCT('Side handle','Side handle',$,(#1277));
#1279=PRESENTATION_STYLE_ASSIGNMENT((#1281));
#1280=PRESENTATION_STYLE_ASSIGNMENT((#1282));
#1281=SURFACE_STYLE_USAGE(.BOTH.,#1283);
#1282=SURFACE_STYLE_USAGE(.BOTH.,#1284);
#1283=SURFACE_SIDE_STYLE('',(#1285));
#1284=SURFACE_SIDE_STYLE('',(#1286));
#1285=SURFACE_STYLE_FILL_AREA(#1287);
#1286=SURFACE_STYLE_FILL_AREA(#1288);
#1287=FILL_AREA_STYLE(
'PA 12 - Nylon - PA 603-CF (with EOS P 3D Printers)',(#1289));
#1288=FILL_AREA_STYLE('ABS (White)',(#1290));
#1289=FILL_AREA_STYLE_COLOUR(
'PA 12 - Nylon - PA 603-CF (with EOS P 3D Printers)',#1291);
#1290=FILL_AREA_STYLE_COLOUR('ABS (White)',#1292);
#1291=COLOUR_RGB('PA 12 - Nylon - PA 603-CF (with EOS P 3D Printers)',0.247058823529412,
0.247058823529412,0.247058823529412);
#1292=COLOUR_RGB('ABS (White)',0.996078431372549,0.313725490196078,0.);
ENDSEC;
END-ISO-10303-21;
